<?xml version="1.0" standalone="no"?>
<!DOCTYPE svg PUBLIC "-//W3C//DTD SVG 1.1//EN" "http://www.w3.org/Graphics/SVG/1.1/DTD/svg11.dtd" >
<svg xmlns="http://www.w3.org/2000/svg" xmlns:xlink="http://www.w3.org/1999/xlink" version="1.1">
<metadata>
Created by FontForge 20170731 at Fri Jan  1 02:30:17 1904
 By Aleksey,,,
COPYRIGHT ESSELTE LETRASET LTD., 1994 
</metadata>
<defs>
<font id="OberonLetPlain" horiz-adv-x="819" >
  <font-face 
    font-family="Oberon LET"
    font-weight="5"
    font-stretch="normal"
    units-per-em="2048"
    panose-1="0 0 0 0 0 0 0 0 0 0"
    ascent="1638"
    descent="-410"
    x-height="893"
    cap-height="1381"
    bbox="-580 -511 2409 1816"
    underline-thickness="158"
    underline-position="-511"
    unicode-range="U+0020-F002"
  />
<missing-glyph horiz-adv-x="1024" 
d="M82 1365h860v-1365h-860v1365zM123 1324v-1283h778v1283h-778z" />
    <glyph glyph-name=".notdef" horiz-adv-x="1024" 
d="M82 1365h860v-1365h-860v1365zM123 1324v-1283h778v1283h-778z" />
    <glyph glyph-name=".null" horiz-adv-x="0" 
 />
    <glyph glyph-name="nonmarkingreturn" horiz-adv-x="410" 
 />
    <glyph glyph-name="space" unicode=" " horiz-adv-x="410" 
 />
    <glyph glyph-name="exclam" unicode="!" horiz-adv-x="507" 
d="M185 196q14 -34 14 -62q0 -52 -30 -93q-32 -41 -72 -41q-29 0 -52 32q25 -16 46 -16q39 0 68 44q28 43 28 104q0 12 -2 32zM559 1142q23 -51 23 -84q0 -42 -33 -113q-3 -7 -43 -79l-10 -18t-11 -18q-5 -9 -9.5 -17t-8.5 -15q-48 -84 -96 -176t-75 -150q-45 -97 -90 -222
l-23 9l-22 29l31 -13q51 135 102 239q20 44 91 174q21 38 45 81q32 58 49 88q53 92 72 137q17 45 17 86q0 26 -9 62zM102 267q29 0 45 -21q17 -22 17 -56q0 -54 -31 -95q-31 -42 -71 -42q-62 0 -62 71q0 33 15 67t39 55t48 21zM162 319l-32 20q35 85 74 196q51 150 98 326
q4 13 19 75q13 51 13 50q65 240 146 240q26 0 43 -26t17 -67q0 -47 -19 -98q-18 -47 -64 -129l-76 -138q-51 -90 -123 -239q-39 -82 -86 -186z" />
    <glyph glyph-name="quotedbl" unicode="&#x22;" horiz-adv-x="574" 
d="M468 716l-25 21l-8 26l23 -20q9 15 32 55t26 45q56 97 78 146q21 47 21 80q0 23 -14 57q27 -42 27 -78q0 -32 -23 -83q-26 -51 -76 -138q-39 -70 -61 -111zM443 778l-31 26q18 61 28 114q14 71 19 94q6 32 13 48q5 15 17 38q29 57 62 57q17 0 28 -17q10 -17 10 -46
q0 -50 -53 -145l-44 -78q-5 -9 -13.5 -24.5t-16.5 -30.5t-19 -36zM260 716l-25 21l-7 26l23 -20q34 61 57 100q50 84 75 140q24 54 24 86q0 24 -13 57q27 -42 27 -78q0 -33 -24 -83q-13 -31 -75 -138q-12 -21 -62 -111zM236 778l-31 26q13 45 28 114q14 71 19 94q9 38 14 52
q9 23 15 34q13 25 32 42q17 15 31 15q17 0 28 -17q10 -17 10 -46q0 -47 -54 -145l-43 -78q-5 -9 -13.5 -24.5t-16.5 -30.5t-19 -36z" />
    <glyph glyph-name="numbersign" unicode="#" horiz-adv-x="843" 
d="M229 150h-30q32 47 45 69q16 27 39 74l28.5 57t30.5 62q92 188 120 237q25 46 53 82q23 29 49 51q22 19 35 19q12 0 12 -10q0 -6 -14 -14q-35 -20 -68 -63q-26 -37 -46 -72q-12 -20 -68 -134q-2 -4 -5.5 -11.5t-21.5 -43t-31 -61.5l-62 -123q-40 -79 -66 -119zM135 128
q51 -19 92 -19q148 0 280 213q74 118 113 226q40 110 40 194q0 46 -16 74q-17 29 -41 29q-47 0 -126 -100q-43 -56 -83 -134q-15 -32 -31 -65t-54 -111q-61 -133 -96 -195q-38 -65 -78 -112zM1031 1249v14q10 -23 10 -44q0 -36 -24 -62q-25 -27 -60 -27q-27 0 -59 29
q26 -12 44 -12q38 0 64 29q25 28 25 73zM831 1284l-12 -22q-223 -7 -370 -402l-38 -47q48 133 88 210q42 80 97 139q52 60 110 90q57 29 125 32zM806 726q24 -55 24 -112q0 -73 -25 -151q-25 -81 -72 -159q-47 -80 -106 -142q-75 -80 -172 -126q-96 -46 -192 -46
q-66 0 -139 44q-44 -32 -70 -32q-25 0 -57 27q19 -10 36 -10q19 0 40 8q20 8 51 31q62 -44 145 -44q76 0 145 28q73 29 134 79q62 51 119 128q144 203 144 400q0 32 -5 77zM29 114q23 3 37 13q16 13 35 34q29 34 59 89q24 43 87 178q80 172 145 278q63 103 117 148
q55 46 110 46q45 0 80 -28q35 -27 55 -79q18 -51 18 -116q0 -116 -41 -228q-42 -111 -118 -202q-77 -92 -169 -141q-94 -50 -192 -50q-43 0 -74 10q-32 9 -74 32q-46 -42 -89 -42q-27 0 -44 16q-19 16 -19 38q0 16 22 28q32 18 51 45q17 26 42 86q39 95 79 229q21 73 32 120
l8 31l8 32l8 31l8 32q46 182 104 292q55 106 152 190q80 71 180 111q102 41 190 41q74 0 122 -33q47 -35 47 -84q0 -30 -26 -53t-61 -23q-29 0 -48 14q-19 13 -19 34q0 19 27 41q14 11 14 22q0 28 -67 28q-78 0 -156 -45q-78 -47 -139 -128q-60 -82 -115 -210
q-28 -65 -83 -217q-98 -265 -184 -431q-64 -127 -119 -179z" />
    <glyph glyph-name="dollar" unicode="$" horiz-adv-x="727" 
d="M324 361l6 -35q-45 -104 -85 -150q-38 -44 -86 -47q44 23 83 78q38 54 82 154zM448 1017q-20 -50 -28 -71l-22 -59q-2 -6 -3 -8q0 -1 -2 -5.5t-6 -15.5q-3 20 -3 30q0 43 18 77q16 33 46 52zM381 753q28 80 67 178t71 168q-79 -22 -127 -79q-47 -56 -47 -134
q0 -56 36 -133zM331 480q-46 -114 -94 -203q-64 -126 -139 -126q-26 0 -40 27q-7 -10 -7 -19q0 -25 32 -43q31 -19 74 -19q57 0 106 31q50 32 78 85q29 53 29 118q0 67 -39 149zM809 1260v6q12 -19 12 -32q0 -17 -12 -28q-12 -12 -28 -12q-19 0 -32 19q13 -7 20 -7
q17 0 29 16q11 16 11 38zM685 1160l-15 16q25 39 55 58l11 -16q-35 -31 -51 -58zM457 647l-13 31l10 27q46 134 72 197t72 157q27 -9 43 -40l-31 10q-75 -143 -153 -382zM806 987q20 -34 20 -64q0 -58 -43 -104t-99 -46q-36 0 -68 35q31 -16 57 -16q57 0 97 48q41 47 41 109
q0 15 -5 38zM474 581q69 -103 69 -213q0 -98 -50 -187q-51 -89 -136 -141q-86 -53 -179 -53q-83 0 -137 61q37 -25 64 -34q26 -9 57 -9q98 0 181 52q83 51 133 138q49 86 49 188q0 45 -11 92q-13 49 -40 106zM302 538q-59 104 -84 175q-26 73 -26 126q0 78 48 151
q47 71 131 118q82 44 178 52q96 164 186 164q23 0 39 -12q15 -12 15 -32q0 -16 -13 -28t-28 -12q-31 0 -31 26q0 6 4 17q-55 -24 -120 -132q84 -13 132 -61q47 -47 47 -116q0 -57 -39 -101t-90 -44q-32 0 -54 22q-23 21 -23 52q0 28 18 47q16 19 47 25q-2 -10 -2 -14
q0 -8 9 -14q7 -7 16 -7q20 0 33 15q13 13 13 35q0 41 -36 71q-37 29 -99 37q-70 -147 -151 -375l-12 -34q43 -96 60 -157q17 -60 17 -118q0 -160 -92 -264t-235 -104q-77 0 -127 36t-50 90q0 33 21 55q19 22 52 22q43 0 48 -44q23 4 42 20q17 15 38 50q54 91 118 263z" />
    <glyph glyph-name="percent" unicode="%" horiz-adv-x="1469" 
d="M713 1014q12 -15 19 -49q8 -40 11 -71l-29 -6q6 39 6 69q0 37 -7 57zM1188 586q-50 -24 -100 -87t-81 -145q-31 -81 -31 -156q0 -29 6 -59q-29 14 -29 56q0 70 28 150q30 83 76 151q28 42 63 73q35 30 54 30q13 0 14 -13zM545 1057q-54 -26 -103 -89q-49 -64 -79 -145
t-30 -155q0 -22 5 -59q-28 15 -28 57q0 69 28 149q28 81 75 151q25 38 61 71q35 32 56 32q12 0 15 -12zM912 204q0 -47 16 -73q16 -28 43 -28q39 0 95 56q54 54 89 132q31 67 55 149q21 77 21 124q0 79 -53 79q-33 0 -77 -36q-47 -41 -88 -104q-44 -69 -73 -154
q-28 -84 -28 -145zM535 820q-32 29 -32 61q0 27 15 45t37 18q6 0 18 -3q15 60 15 94q0 78 -53 78q-74 0 -165 -139q-44 -67 -74 -153q-28 -81 -28 -152q0 -42 18 -69q17 -27 42 -27q53 3 115 77q60 72 92 170zM883 39q43 -26 88 -26q93 0 187 73q95 72 156 184
q60 113 60 225q-6 65 -12 87q24 -55 28 -110q0 -87 -37 -173q-37 -88 -105 -162q-133 -145 -268 -145q-33 0 -52 10q-22 11 -45 37zM801 231q0 87 52 192q53 106 133 180q105 96 198 96q71 0 111 -52t40 -144q0 -81 -39 -170q-39 -90 -104 -164q-49 -55 -111 -87
q-61 -33 -119 -33q-71 0 -116 52q-45 51 -45 130zM518 -126q12 -21 12 -37q0 -51 -42 -90q-43 -40 -100 -40q-31 0 -55 11q-25 12 -60 41q56 -33 102 -33q65 0 104 42q39 40 39 106zM240 509q29 -17 46 -21q18 -5 41 -5q90 0 184 70q93 69 164 188q62 2 108 18q48 18 111 59
q-41 -51 -85 -71q-45 -22 -120 -27q-39 -62 -82 -109.5t-88 -80.5q-92 -67 -182 -67q-29 0 -53 11q-22 10 -44 35zM1204 1117q11 -58 11 -85q0 -116 -95 -247t-278 -266l-137 -101q-225 -166 -313 -295q-30 -45 -52 -102q-21 -57 -21 -95q0 -11 2 -25q-16 32 -16 60
q0 26 11 62t33 74q25 43 49 74q79 103 293 266l143 107q194 147 284 276q87 128 87 262v17q-1 5 -1 18zM372 -65q28 25 54 25q30 0 49 -22t19 -51q0 -46 -41 -84q-43 -38 -95 -38q-71 0 -119 58t-48 145q0 72 32 153q32 80 91 160q61 82 148 162q86 79 189 148l142 95
q161 109 234 205q42 58 65 112q23 57 23 103q0 62 -48 77q-14 -116 -71 -206q-58 -91 -150 -142q-93 -51 -204 -51q-37 -81 -88 -138q-52 -60 -114 -93q-63 -33 -123 -33q-68 0 -114 52q-46 50 -46 129q0 86 53 194q53 106 132 179q105 96 198 96q72 0 112 -52t40 -143
q0 -47 -17 -118q7 -1 22 -1q115 0 223 119q41 47 62 90q18 40 21 95h-4q-1 -1 -5 -1q-13 0 -20 10q-9 9 -9 22q0 31 25 53t61 22q34 0 63 -20q26 -19 43 -58q15 -39 15 -82q0 -75 -31 -152q-31 -78 -93 -157q-44 -57 -103 -111q-52 -49 -163 -132q-74 -55 -123 -94
q-66 -51 -70 -54q-10 -7 -50 -41q-45 -38 -47 -40q-104 -93 -166 -192q-62 -98 -62 -170q0 -48 21 -79q20 -33 50 -33q22 0 38 15q15 13 15 35q0 15 -16 34z" />
    <glyph glyph-name="ampersand" unicode="&#x26;" horiz-adv-x="1483" 
d="M1206 1102q-65 20 -115 20q-73 0 -150 -33t-138 -91q-60 -57 -92 -127h-27q38 81 102 144q63 62 142 96q78 34 163 34q46 0 70 -9q25 -11 45 -34zM645 820l27 5q101 17 142 23q181 27 212 35q100 24 161 79q61 54 61 118q0 49 -43 77t-117 28q-103 0 -201 -51
q-100 -53 -165 -136q-66 -84 -77 -178zM1252 566q7 -7 15 -7t21 7q-11 -17 -18 -17q-10 0 -18 17zM801 280q5 -20 5 -28q0 -30 -24 -54t-53 -24q-20 0 -48 16q18 -3 29 -3q37 0 63 26q25 25 28 67zM788 347l-24 7q17 16 29 21q12 6 31 6q43 0 57 -38q-31 17 -56 17
q-21 0 -37 -13zM278 326q7 -22 7 -41q0 -35 -22 -58q-22 -25 -57 -25q-21 0 -35 9t-30 37q29 -26 56 -26q36 0 59 29q22 28 22 75zM926 647q7 -21 7 -33q0 -35 -31 -54q-34 -21 -116 -44q-132 -36 -192 -87t-60 -129q0 -31 15 -67q-36 44 -36 85q0 76 68 132q66 54 205 89
q87 22 114 43q25 20 26 65zM1408 607q7 -27 7 -42q0 -54 -41 -104q-40 -49 -108 -79q-67 -30 -141 -30q-23 0 -58 5v18q33 -3 48 -3q69 0 133 27q66 26 106 72q31 34 41 61t13 75zM1343 1066q7 -25 7 -51q0 -47 -23 -101q-24 -52 -66 -96q-45 -45 -98 -72q-49 -24 -102 -35
q-52 -11 -127 -11l-14 17q119 5 192 30q74 26 131 83q97 97 100 236zM497 683l20 -19q-156 -38 -247 -129q-65 -67 -65 -137q-18 14 -18 34q0 35 33 81q33 47 84 81q74 54 193 89zM1064 305q4 -20 4 -36q0 -71 -59 -133t-159 -100q-99 -37 -212 -37q-56 0 -96 8
q-37 8 -69 27t-63 52q50 -35 106 -52q52 -16 128 -16q105 0 201 38q94 37 157 105q34 37 47 67q14 32 15 77zM681 745l-22 -1q18 -35 40 -48q22 -14 56 -14q30 0 43 7l32 12q18 7 31 7q18 0 28 -12q10 -11 10 -29q0 -36 -32 -57q-28 -18 -132 -46q-260 -71 -260 -241
q0 -81 59 -137q59 -57 142 -57q64 0 120 28q58 29 92 75t34 98q0 42 -24 67q-25 25 -67 25q-44 0 -79 -26q-36 -27 -36 -59q0 -12 7 -20q8 -9 16 -9q12 0 22 22q19 -19 19 -37q0 -28 -22 -47q-23 -20 -50 -20q-32 0 -53 24q-22 23 -22 58q0 58 48 110q47 53 124 85
q75 31 160 31q48 0 102 -6q5 0 10.5 -0.5t8.5 -1.5q5 0 11 -0.5t9 -1.5q11 -1 51 -6q23 -4 53 -4q41 0 72 22t31 50q0 14 -8 14q-4 0 -12 -5q-16 -12 -28 -12q-14 0 -28 15q-13 13 -13 32q0 30 26 53t57 23q33 0 55 -22q21 -22 21 -57q0 -88 -84 -150q-84 -63 -202 -63
q-72 0 -168 25l-3 -16q50 -4 79 -30q27 -25 27 -68q0 -69 -55 -130q-56 -62 -146 -99t-193 -37q-151 0 -237 65q-87 65 -87 178q0 135 136 225q51 33 114 54q62 20 156 33q63 11 78 15q14 5 14 11q0 10 -10 10q-6 0 -12 -3q-46 -15 -107 -15q-128 0 -174 91
q-93 -28 -148 -54q-57 -26 -97 -59q-51 -41 -83 -94t-32 -100q0 -28 13 -47t32 -19q21 0 38 29q28 -25 28 -54q0 -30 -20 -48q-20 -19 -53 -19q-50 0 -84 43q-35 44 -35 104q0 75 49 151q50 78 125 123q91 58 245 102q-3 27 -3 40q0 80 49 156t138 139q84 59 198 97
q111 36 209 36q70 0 124 -22q56 -23 85 -62q30 -40 30 -91q0 -63 -41 -133q-41 -69 -104 -115q-50 -35 -100 -48q-53 -14 -153 -20l-128 -7z" />
    <glyph glyph-name="quotesingle" unicode="'" horiz-adv-x="366" 
d="M260 716l-25 21l-7 26l23 -20q34 61 57 100q50 84 75 140q24 54 24 86q0 24 -13 57q27 -42 27 -78q0 -33 -24 -83q-13 -31 -75 -138q-12 -21 -62 -111zM236 778l-31 26q13 45 28 114q14 71 19 94q9 38 14 52q9 23 15 34q13 25 32 42q17 15 31 15q17 0 28 -17
q10 -17 10 -46q0 -47 -54 -145l-43 -78q-5 -9 -13.5 -24.5t-16.5 -30.5t-19 -36z" />
    <glyph glyph-name="parenleft" unicode="(" horiz-adv-x="778" 
d="M507 -111l10 -21l-48 -31q-22 10 -41 25t-35 33q40 -28 68 -39zM1119 1449l14 -21q-110 -32 -202 -86q-90 -53 -167 -133q-78 -81 -142 -187q-74 -122 -119 -241q-48 -125 -72 -256q-25 -131 -25 -268v-55q-15 71 -15 137q0 202 86 436q85 231 222 395q42 50 90.5 94
t97.5 77q101 66 232 108zM486 -75l-56 -29q-85 69 -132 159q-45 88 -68 190q-25 103 -25 213q0 146 46 296q45 152 129 285q41 66 90 124t105 108q101 90 228 159q129 68 252 98l42 -45q-189 -72 -302 -164q-55 -44 -108.5 -106t-108.5 -148q-53 -84 -95 -176
q-41 -93 -70 -185q-28 -91 -45 -185q-16 -90 -16 -182q0 -257 134 -412z" />
    <glyph glyph-name="parenright" unicode=")" horiz-adv-x="778" 
d="M462 1499l57 29q84 -69 131 -159q43 -85 69 -190q24 -103 24 -213q0 -145 -46 -295q-46 -151 -129 -285q-84 -133 -195 -234q-72 -64 -146 -110q-82 -52 -168 -89q-89 -39 -166 -57l-42 45q130 51 216 104q91 56 162 130q69 71 141 184q105 166 166 359q61 192 61 368
q0 259 -135 413zM711 1279q95 -148 95 -344q0 -94 -24 -196q-24 -100 -68 -206q-47 -109 -106 -200q-60 -93 -134 -171q-76 -81 -164 -144q-91 -64 -186 -106q-100 -45 -202 -69l-11 19q76 18 149 46.5t148 71.5q144 85 250 200q43 47 89.5 109.5t79.5 122t66 134.5
q89 210 89 397q0 92 -16 169q-16 74 -55 167z" />
    <glyph glyph-name="asterisk" unicode="*" horiz-adv-x="618" 
d="M375 1086l-17 -22l-13 22h30zM695 988l14 -18l-6 -8q0 -1 -1.5 -2.5t-2.5 -3.5q-40 -52 -66 -52q-23 0 -46 27q22 -11 31 -11q29 0 77 68zM799 1268l-10 -29q-3 1 -6 1.5t-4 0.5q-25 6 -34 6q5 5 8 6q12 9 18 9q4 0 10 -3q7 24 7 49q9 -17 11 -40zM794 1175l11 -23
q-21 -46 -52 -64q-32 -19 -92 -20l-12 22q6 -1 24 -1q85 0 121 86zM492 1028l7 -31q-24 -24 -39 -43q-10 -14 -17 -22q-4 -6 -8 -10.5t-8 -10.5q-6 -6 -10 -12q-13 -19 -25 -19q-6 0 -18 5q10 7 22 22l12 17q60 76 84 104zM520 1090l-6 20q-92 -93 -161 -192q-10 23 -10 41
q0 32 28 72q29 41 90 99h-23l-45 -1q-41 -1 -58 -15h-14q12 49 37 67q25 17 82 17h28h22q-1 9 -2.5 12t-1.5 4l-11 38q-11 37 -17 45q-7 10 -23 10l-6 9q6 6 14 10l41 32q20 14 29 14q17 0 26 -16q8 -18 17 -63q0 1 10 -47l4 -19l22 19q131 114 148 114q13 0 13 -26v-28v-13
h-8q-25 0 -138 -95q48 -2 42 -2q76 0 104 20h14q-16 -87 -102 -87q-28 0 -39 1q-21 0 -30 1q36 -105 57 -105q5 0 9 4l8 -9l-13 -16q-30 -36 -38 -43q-10 -9 -24 -9q-16 0 -33 30q-16 29 -42 107z" />
    <glyph glyph-name="plus" unicode="+" horiz-adv-x="823" 
d="M1029 1260q11 -27 11 -44q0 -36 -24 -62q-25 -27 -60 -27q-29 0 -60 29q26 -12 45 -12q37 0 64 29q26 29 26 66q0 -3 -2 21zM829 1281l-12 -22q-218 -14 -362 -386l-11 -28l-36 -46q45 134 86 213q39 76 92 137q55 64 113 96q57 32 130 36zM739 191l12 -23
q-57 -90 -104 -128q-50 -41 -103 -41q-34 0 -72 32q34 -17 60 -17q52 0 97 39q46 38 110 138zM769 773q20 -42 20 -78q0 -52 -28 -121q-31 -77 -95 -192q-69 -128 -81 -173l-6 -23q-4 -16 -13 -16q-10 0 -10 13q0 12 11 42q20 53 93 192q65 122 90 190q23 66 23 122
q0 20 -4 44zM-11 31q29 -8 42 -8q70 0 137 82q19 23 46 65.5t53 90.5t62 122l60 125q49 102 108 190q59 86 78 86q11 0 11 -10q0 -7 -14 -19q-70 -67 -163 -258l-73 -152q-102 -211 -177 -283q-60 -60 -108 -60q-31 0 -62 29zM683 280l29 -55q-64 -102 -105 -138
q-40 -36 -91 -36q-56 0 -91 48q-36 47 -36 122q0 60 29 141q28 77 89 176l54 86q64 101 64 155q0 25 -10 39q-10 15 -27 15q-39 0 -104 -87q-67 -90 -137 -234l-76 -159q-145 -301 -257 -301q-26 0 -43 16q-19 16 -19 38q0 18 19 30l20 11q79 46 182 458l44 171
q74 302 260 455q170 142 356 142q77 0 127 -32q49 -31 49 -82q0 -36 -25 -58q-26 -23 -65 -23q-27 0 -46 14q-19 13 -19 34q0 23 15 33l15 11q12 11 12 18q0 15 -19 22q-21 8 -49 8q-53 0 -110 -23q-55 -22 -107 -68q-70 -63 -124 -152q-53 -88 -117 -256l-62 -162
q-101 -265 -195 -428q-41 -73 -89 -118q21 2 33 9q13 6 33 28q52 58 131 224l72 149q62 127 119 216q56 84 107 122q52 38 105 38q56 0 87 -36q32 -38 32 -98q0 -99 -98 -287l-65 -123q-71 -134 -71 -196q0 -17 9 -28q9 -12 23 -12q27 0 62 38q34 38 80 125z" />
    <glyph glyph-name="comma" unicode="," horiz-adv-x="464" 
d="M218 192q20 -38 20 -64q0 -39 -24 -86q-26 -48 -66 -89q-38 -41 -93 -74l-14 19q80 43 130 114q49 70 49 146q0 12 -2 34zM18 -73l-27 44q42 24 66 52q21 24 42 67q-30 -27 -54 -27q-20 0 -32 16q-12 15 -12 37q0 55 40 107t83 52q31 0 51 -23q18 -24 18 -62
q0 -142 -175 -263z" />
    <glyph glyph-name="hyphen" unicode="-" horiz-adv-x="651" 
d="M109 409q13 -10 26 -10q33 0 33 33q0 8 -5 25q10 2 16 2q15 0 43 -11l50 -18q83 -30 143 -30q66 0 103 27q37 25 48 79q3 -10 3 -24q0 -47 -43 -75q-43 -30 -111 -30q-55 0 -145 32l-64 23q-17 6 -31 8q4 -13 4 -22q0 -15 -10 -25q-11 -11 -24 -11q-21 0 -36 27zM134 492
q14 -11 14 -24t-9 -24q-11 -11 -23 -11q-15 0 -24 12q-10 10 -10 25q0 40 42 65q43 26 105 26q76 0 202 -47q36 -14 48 -14q8 0 22 8q-20 11 -20 24q0 11 9 20t21 9q16 0 23 -10t7 -25q0 -36 -36 -62q-37 -25 -87 -25q-23 0 -48 5q-17 4 -94 29q-84 30 -103 30
q-15 0 -39 -11z" />
    <glyph glyph-name="period" unicode="." horiz-adv-x="464" 
d="M0 118q0 55 39 106t82 51q29 0 47 -20q17 -20 17 -50q0 -58 -40 -107q-41 -50 -86 -50q-26 0 -43 20q-16 19 -16 50zM210 186v13q7 -22 7 -48q0 -60 -36 -105q-37 -46 -84 -46q-31 0 -55 31q28 -14 43 -14q51 0 88 51q37 49 37 118z" />
    <glyph glyph-name="slash" unicode="/" horiz-adv-x="880" 
d="M98 -85l-24 25h148l740 1435l13 -24l-739 -1436h-138zM199 -17h-158l757 1467h158z" />
    <glyph glyph-name="zero" unicode="0" horiz-adv-x="1014" 
d="M763 1046q-89 -13 -173 -82q-93 -78 -168 -194q-76 -118 -120 -252q-44 -135 -44 -249q0 -56 17 -116q-24 27 -31 55q-8 30 -8 82q0 102 44 236q44 132 117 249q73 118 169 200q95 81 161 81q17 0 36 -10zM836 910q0 89 -28 136q-28 48 -79 48q-46 0 -108 -36
q-61 -37 -126 -102t-116 -143q-58 -90 -97 -180q-42 -94 -63 -183q-22 -87 -22 -172q0 -81 28 -125q29 -45 78 -45q79 0 184 87t188 221q52 84 87 169q37 93 55 171q19 80 19 154zM1012 922q36 -70 36 -133q0 -75 -32 -173q-30 -91 -91 -196q-59 -99 -131 -177
q-73 -80 -148 -134q-81 -56 -161 -87q-81 -31 -151 -31q-53 0 -87 14q-31 13 -69 52q43 -27 74 -37q29 -9 66 -9q116 0 243 73q126 73 233 193q52 57 95.5 124t74.5 136q63 141 63 274q0 51 -15 111zM48 366q0 133 61 271q63 140 164 258q105 121 225 190q121 70 236 70
q73 0 132 -41q60 -43 92 -115q33 -73 33 -163q0 -132 -61 -270q-60 -136 -164 -257q-103 -118 -224 -188t-234 -70q-115 0 -187 89q-73 88 -73 226z" />
    <glyph glyph-name="one" unicode="1" horiz-adv-x="537" 
d="M249 880q14 -9 27 -9q26 0 51 22l-16 -30q-11 -8 -23 -8q-23 0 -39 25zM-62 -44l-12 22q104 80 158 80q10 0 25 -5q-92 -27 -171 -97zM189 0l-12 20q57 63 109 173q32 69 56 142q22 69 55 199q37 153 76 280q35 113 65 163q29 51 68 74q15 8 23 16q3 5 3 18
q11 -24 11 -26q0 -10 -30 -30q-58 -34 -109 -188q-10 -29 -44 -150q-1 -5 -43 -168q-26 -110 -59 -206q-30 -88 -66 -159q-54 -104 -103 -158zM-95 8l-18 26q99 92 190 242q40 66 91 169t92 202l60 143q43 101 93 178q50 76 107 124l14 11q-10 10 -22 10q-20 0 -51 -31
q-17 -17 -66 -80q-38 -50 -70 -73q-30 -21 -58 -21t-45 16q-19 16 -19 41q0 10 7 25q11 -4 19 -4q30 0 97 63q64 61 112 89q47 27 92 27q33 0 55 -16q21 -16 21 -39q0 -11 -16 -20q-25 -14 -51 -46q-27 -31 -46 -68q-25 -51 -50 -123q-22 -67 -48 -168l-34 -134
q-37 -147 -66 -232t-63 -149q-34 -66 -80 -122q-22 52 -72 52q-37 0 -76 -21q-39 -20 -99 -71z" />
    <glyph glyph-name="two" unicode="2" horiz-adv-x="869" 
d="M164 89q5 -20 5 -29q0 -27 -20 -47q-22 -20 -50 -20q-31 0 -57 38q29 -20 49 -20q30 0 51 22t22 56zM434 832q16 -32 16 -56q0 -40 -30 -67q-29 -28 -72 -28q-46 0 -75 38q33 -18 66 -18q28 0 51 14t36 36q14 23 14 50q0 15 -6 31zM586 1042q-98 -5 -150 -37
q-54 -35 -76 -106q-15 11 -15 20q0 30 39 73q56 62 135 62q27 0 67 -12zM730 196q5 -22 5 -31q0 -68 -74 -124q-75 -57 -168 -57q-121 0 -229 114l-42 45q-23 23 -40 23q-14 0 -22 -11q-8 11 -8 17q0 15 20 15t65 -42q85 -81 138 -110q54 -30 117 -30q92 0 159 53
q66 53 79 138zM879 946q31 -61 31 -110q0 -84 -55 -164q-56 -81 -149 -139q-96 -60 -214 -85l-113 -24q-67 -14 -123 -37q-10 1 -31 1q-12 0 -18 -1q41 23 84 37q40 12 154 36q118 24 193 60q76 35 140 96q111 104 111 249q0 37 -10 81zM386 888q27 -28 27 -61
q0 -38 -28 -63t-67 -25q-32 0 -58 17q-27 17 -40 47q-15 30 -15 70q0 72 50 140q49 66 134 106q84 39 178 39q86 0 152 -33q65 -35 101 -96q35 -64 35 -143q0 -87 -48 -165q-47 -78 -133 -134q-85 -55 -199 -79l-106 -23q-151 -31 -245 -115q-40 -37 -65 -87
q-27 -52 -27 -96q0 -39 37 -52q-8 34 -8 53q0 66 51 114t124 48q63 0 118 -42q15 -10 82 -80q81 -85 150 -85q22 0 38 12q17 12 17 26q0 5 -3 11t-6 6l-21 -2v0.5t-1 0.5q-1 1 -3 1q-22 9 -22 32q0 21 17 36q17 14 38 14q26 0 42 -19t16 -47q0 -66 -61 -117t-143 -51
q-99 0 -198 90l-49 43q-46 43 -83 43q-23 0 -36 -13q-14 -14 -14 -36q0 -18 12 -33q15 -18 15 -31q0 -24 -19 -40q-20 -17 -46 -17q-42 0 -72 39q-31 38 -31 92q0 70 39 148q37 76 104 138q66 61 147 98q37 18 161 60q79 29 122 54q42 25 77 64q69 83 69 183q0 75 -42 120
q-43 45 -116 45q-53 0 -106 -27q-54 -28 -86 -70q-34 -43 -34 -86q0 -21 12 -35t32 -14q27 0 34 27z" />
    <glyph glyph-name="three" unicode="3" horiz-adv-x="828" 
d="M120 198q4 -12 4 -21q0 -24 -16 -24q-8 0 -18 10q20 2 30 35zM365 888q8 -21 8 -31q0 -31 -26 -54q-25 -24 -61 -24t-61 40q28 -22 51 -22q33 0 58 25t31 66zM602 1023q-43 5 -66 5q-71 0 -116 -17q-44 -18 -86 -63q-9 9 -9 17q0 19 46 47q64 38 152 38q34 0 50 -6
q15 -5 29 -21zM496 564q-16 3 -30 3q-45 0 -71 -23q-27 -24 -30 -66q-29 -20 -50 -20q-22 0 -40 29q20 -7 33 -7q26 0 51 18q-1 7 -1 19q0 24 30 46q29 22 63 22q23 0 45 -21zM836 986q19 -34 19 -62q0 -68 -58 -125q-58 -58 -158 -87l-23 11q102 31 165 91q61 58 61 129
q0 18 -6 43zM756 525q21 -37 21 -71q0 -73 -60 -165q-63 -93 -153 -160q-85 -63 -185 -97q-99 -34 -199 -34q-62 0 -100 13t-76 45q71 -38 168 -38q73 0 151 20q75 19 148 58q74 39 128 89q77 72 120 150q42 77 42 146q0 16 -5 44zM340 922q3 -7 3 -14q0 -24 -27 -45
q-28 -22 -59 -22q-36 0 -61 28q-26 29 -26 67q0 44 29 85q28 40 80 71q53 30 118 48q68 17 144 17q75 0 139 -23q64 -25 97 -67q35 -44 35 -97q0 -96 -96 -155q-46 -27 -81 -39q-37 -12 -151 -39q-128 -29 -174 -73q-30 -28 -30 -49q0 -7 8 -25q104 116 232 116
q59 0 105 -25t73 -69q27 -43 27 -102q0 -85 -47 -168q-48 -82 -128 -147q-83 -67 -181 -104q-102 -38 -206 -38q-101 0 -166 41t-65 105q0 38 24 65q24 26 60 26q30 0 52 -18q21 -18 21 -45q0 -16 -10 -27q-9 -12 -24 -17q-16 -4 -16 -15q0 -21 33 -38q34 -17 71 -17
q75 0 150 33q74 33 134 90q59 56 93 126q33 71 33 140q0 58 -27 92q-28 33 -77 33q-41 0 -79 -27t-38 -57q0 2 2 -12q-16 -10 -35 -10q-36 0 -58 25q-23 26 -23 59q0 94 152 156l98 39q91 37 142 87q50 50 50 103q0 48 -35 74t-100 26q-62 0 -116 -19q-58 -20 -89 -50
q-34 -31 -34 -65q0 -15 11 -28q10 -13 24 -13q9 0 19 7z" />
    <glyph glyph-name="four" unicode="4" horiz-adv-x="937" 
d="M759 1060l-28 -34q-112 -51 -213 -131q-106 -85 -187 -183q-82 -101 -126 -200l-32 -16q49 119 140 232q91 112 204 196q119 88 242 136zM510 493l13 29l69 161q62 137 96 203q31 62 70 119q34 47 66 73l17 13q9 8 9 14q0 11 -15 11q-53 0 -137 -37t-169 -99
q-74 -53 -130 -104.5t-105.5 -110.5t-88.5 -122q-37 -59 -58 -117q-23 -63 -23 -98q0 -27 9 -27q1 0 4 3l13 18q34 43 92 67q59 24 127 24q59 0 141 -20zM428 44q-70 -12 -174 -90l-14 21l18 12q101 68 139 68q15 0 31 -11zM410 382l-12 -23q-40 12 -75 12q-51 0 -84 -21
q-33 -22 -33 -56q0 -10 1 -14q-18 -21 -43 -21q-30 0 -53 32q20 -12 39 -12t35 10v9q0 46 37 71q38 26 102 26q41 0 86 -13zM713 461l-20 8l7 28l33 127q38 145 69 232q30 86 60 129q30 44 71 68q16 10 16 24q0 9 -1 13q9 -18 9 -29q0 -16 -19 -29q-48 -31 -89 -118
q-25 -55 -60 -173q-38 -125 -67 -243zM905 459q5 -22 5 -31q0 -37 -30 -70q-31 -34 -81 -54q-51 -20 -103 -20q6 0 -34 2q-25 -74 -63 -152q-43 -85 -91 -151l-14 17q101 145 154 311q32 -6 56 -6q78 0 140 47q61 46 61 107zM219 0l-14 30q166 164 261 371q-79 30 -156 30
q-46 0 -79 -11q-32 -12 -52 -38q-19 -25 -30 -67q-15 -4 -18 -4q-29 0 -49 32q-21 32 -21 77q0 114 67 244t176 233q82 77 178 139q93 58 188 94q92 33 162 33q42 0 70 -17q27 -16 27 -43q0 -11 -9 -14l-17 -7q-59 -26 -119 -170q-35 -83 -59 -168q-30 -105 -45 -165
l-28 -108l-7 -26q63 -29 114 -29q41 0 41 27q0 9 -9 15l-13 8q-13 9 -13 24q0 17 16 30q17 12 36 12q26 0 42 -16t16 -42q0 -35 -23 -64q-25 -31 -66 -47q-43 -17 -91 -17q-39 0 -76 10q-37 -118 -70 -186q-34 -70 -83 -128q-11 53 -63 53q-36 0 -77 -21q-46 -26 -107 -74z
" />
    <glyph glyph-name="five" unicode="5" horiz-adv-x="796" 
d="M116 208v7q8 -22 8 -38q0 -26 -18 -26q-10 0 -14 10q24 8 24 47zM902 1140q6 -22 6 -38q0 -47 -34 -91q-34 -45 -88 -73q-56 -29 -110 -29q-61 0 -153 39q-58 23 -71 23q-20 0 -41 -27q-22 -29 -53 -93l-34 -18q43 91 69 128q27 37 52 37q17 0 86 -29q87 -38 147 -38
q42 0 90 24q46 24 81 62q42 45 53 123zM485 710q-114 -14 -179 -137q-32 -61 -51 -80q-19 -21 -47 -21q-15 0 -25 7t-28 31q26 -18 43 -18q39 0 77 68l27 49q28 48 71 79q44 32 82 32q17 0 30 -10zM738 684q15 -25 21 -45q6 -21 6 -58q0 -105 -50 -213q-49 -105 -136 -192
q-88 -88 -195 -137q-108 -51 -214 -51q-54 0 -91 14q-35 13 -75 50q40 -23 74 -32q33 -10 79 -10q107 0 216 50q107 50 193 137q86 88 134 197q48 110 48 221q0 32 -10 69zM297 1162q23 23 40 23q20 0 33 -16t13 -42q0 -14 -6 -32q56 47 77 59t45 12q27 0 85 -32
q81 -45 148 -45t92 55q-3 -1 -13 -1q-15 0 -27 12q-13 10 -13 24q0 15 12 25q11 9 27 9q26 0 44 -20q18 -21 18 -50q0 -41 -29 -81q-30 -39 -76 -64q-47 -26 -94 -26q-31 0 -53 7q-32 10 -100 38q-49 21 -73 21q-33 0 -61 -28q-29 -29 -63 -97l-131 -258q-9 -16 -9 -23
q0 -11 9 -11q5 0 11 9q71 116 146 170q76 53 166 53q60 0 106 -26q44 -27 69 -76q24 -49 24 -112q0 -112 -46 -217q-47 -107 -128 -193q-44 -45 -87 -77t-95 -58q-99 -49 -201 -49q-96 0 -162 48q-67 46 -67 116q0 35 26 61q25 24 62 24q32 0 52 -19q21 -19 21 -48
q0 -30 -36 -42q-20 -6 -20 -23q0 -22 34 -37q35 -15 81 -15q155 0 272 165q58 81 91 181q35 103 35 186q0 120 -84 120q-125 0 -227 -194q-10 -21 -22 -29q-10 -9 -28 -9q-29 0 -54 22t-25 47q0 15 20 52q11 19 29 59l60 118q37 75 73 167q32 87 32 118q0 24 -23 49z" />
    <glyph glyph-name="six" unicode="6" horiz-adv-x="875" 
d="M238 269l24 -17q9 -58 21 -89q-42 37 -45 106zM425 327q6 -22 6 -30q0 -31 -22 -50q-22 -21 -55 -21q-20 0 -31 7q-13 7 -31 28q25 -16 49 -16q33 0 58 23q23 23 26 59zM592 706h-12q-54 0 -105 -42q-53 -44 -84 -110q-32 -69 -32 -138q-16 19 -16 43q0 47 24 99
q25 55 64 94q30 31 65 51q36 21 63 21q20 0 33 -18zM227 442h-11q-18 -88 -18 -155q0 -80 29 -126q29 -45 79 -45q92 0 203 154q63 88 97 188q35 102 35 188q0 118 -78 118q-59 0 -120 -47q-61 -46 -100 -120q-39 -73 -39 -145q0 -35 12 -55t33 -20q13 0 29 13
q17 -23 17 -45q0 -29 -19 -45q-19 -18 -49 -18q-44 0 -73 36q-29 35 -29 91q0 1 2 33zM981 1049q4 -25 4 -43q0 -42 -24 -69q-25 -27 -64 -27q-19 0 -33 8q-13 8 -33 27q28 -16 49 -16q45 0 72 32t29 88zM768 1068l-10 -22q-77 -11 -141 -55q-66 -46 -139 -137l-43 -24
l19 25q57 75 103 117q47 43 98 66q49 22 113 30zM824 696q40 -61 40 -130q0 -98 -49 -197q-49 -101 -130 -185t-177 -135q-97 -51 -189 -51q-86 0 -143 67q40 -25 73 -37q27 -10 65 -10q92 0 186 51q93 49 172 134t125 185q47 102 47 194q0 51 -20 114zM284 636l15 -3
q53 96 143 156t181 60q84 0 136 -60q51 -60 51 -162q0 -104 -46 -206q-22 -49 -56.5 -99.5t-72.5 -90.5q-75 -78 -166 -124q-92 -47 -167 -47q-76 0 -132 40q-59 41 -90 113q-32 73 -32 167q0 129 69 283q35 78 77.5 144t97.5 125q67 71 145 123q81 52 168 80t167 28
t129 -30q49 -31 49 -81q0 -35 -28 -60q-29 -26 -68 -26q-29 0 -46 15q-17 14 -17 38t14 33l14 9q6 3 6 15q0 32 -52 32q-160 0 -317 -184q-36 -42 -69 -91t-60 -101q-29 -56 -43 -96z" />
    <glyph glyph-name="seven" unicode="7" horiz-adv-x="764" 
d="M429 31l13 -24q-27 -39 -56 -58q-26 -19 -62 -19q-28 0 -47 11q-19 10 -43 39q41 -30 80 -30q72 0 115 81zM636 933l-26 -18q-69 2 -174 14q-33 4 -52 4q-48 0 -77 -26t-59 -95l-10 -23l-39 17l-17 28l41 -19q2 3 3.5 6t2.5 6q2 6 3 8q31 65 65 93q34 26 86 26q5 0 39 -2
l59 -8q78 -10 155 -11zM892 1060v19q12 -27 12 -46q0 -85 -125 -207l-100 -97q-63 -60 -117 -134q-52 -70 -94 -147q-41 -78 -60 -146q-21 -70 -21 -128q0 -24 6 -59q-16 22 -21 38q-5 15 -5 41q0 77 37 170q36 95 101 193q62 93 149 179l105 102q72 71 103 122
q30 51 30 100zM401 74q-22 -85 -97 -85q-68 0 -116 58q-48 57 -48 141q0 91 44 200q45 110 119 203q98 119 315 276q80 58 107 82q37 34 56 56q30 36 30 59q0 17 -15 24q-14 -55 -57 -83q-44 -29 -113 -29q-50 0 -127 7q-88 8 -113 8q-61 0 -105 -30q-43 -31 -84 -102
l-43 19q33 64 56 132q24 71 24 104q0 26 -18 50q17 11 32 11q40 0 40 -51q0 -27 -23 -75h10q59 110 156 110q50 0 127 -37q108 -49 154 -49q27 0 46 15q20 15 20 34q0 8 -8 22q20 15 37 15q26 0 41 -19t15 -51q0 -51 -31 -100q-31 -50 -109 -128l-93 -93q-68 -68 -123 -141
t-97 -151q-82 -154 -82 -279q0 -119 73 -123z" />
    <glyph glyph-name="eight" unicode="8" horiz-adv-x="859" 
d="M666 1020q-43 8 -67 8q-68 0 -112 -32q-45 -33 -60 -91q-4 13 -4 24q0 45 48 81q47 36 108 36q43 0 87 -26zM411 545l17 -16q-119 -14 -182 -87q-31 -35 -49 -87q-19 -51 -19 -100q0 -29 7 -57q-24 38 -24 82q0 69 33 127q32 59 90 96q57 36 127 42zM471 769l23 4
q73 14 113 30q41 17 73 43q65 53 65 114q0 56 -45 93q-45 36 -116 36q-83 0 -142 -47q-58 -46 -58 -114q0 -39 18 -72t69 -87zM428 593q-119 -20 -193 -77q-51 -39 -83 -104q-33 -66 -33 -129q0 -79 52 -127q50 -49 139 -49q79 0 143 27t101 76q36 50 36 110q0 62 -36 125
q-39 64 -126 148zM885 973q12 -25 12 -47q0 -78 -75 -146q-78 -69 -199 -97l-18 18q73 11 138 47q67 38 105 91q39 53 39 108q0 -4 -2 26zM755 439q25 -50 25 -99q0 -98 -55 -177q-56 -81 -155 -127q-100 -47 -216 -47q-80 0 -140 23q-58 22 -104 73q42 -28 75 -43
q38 -17 80 -24q46 -8 88 -8q115 0 209 45q93 44 148 125q53 80 53 173q0 32 -8 86zM383 632q-67 67 -94 121q-29 58 -29 122q0 78 46 142q44 63 125 101q80 36 178 36q106 0 176 -52q71 -53 71 -128q0 -56 -43 -109q-43 -55 -114 -90q-61 -31 -176 -50l18 -17q63 -56 92 -86
q30 -33 48 -65q48 -79 48 -176t-48 -172q-48 -77 -136 -117q-88 -42 -199 -42q-146 0 -246 77q-100 76 -100 191q0 71 43 141q42 70 113 114q45 30 100 45q56 14 127 14z" />
    <glyph glyph-name="nine" unicode="9" horiz-adv-x="903" 
d="M693 1049l-29 -26q-175 -35 -272 -208q-78 -140 -82 -295q-15 33 -15 63q0 64 25 133q26 73 69 139q41 63 94 110q86 74 210 84zM678 975q24 49 68 49q28 0 54 -22q8 16 8 24q0 27 -32 47q-31 18 -79 18q-80 0 -158 -42q-79 -42 -140 -117q-61 -74 -101 -175
q-42 -103 -42 -179q0 -57 31 -94q32 -38 82 -38q118 0 237 182q42 62 69 140q26 78 26 139q0 36 -23 68zM165 214v7q11 -24 11 -38q0 -12 -6 -20q-6 -9 -15 -9q-10 0 -16 13q26 15 26 47zM888 903l-11 22q30 14 30 59v12q-1 3 -1 11q12 -40 12 -50q0 -31 -30 -54zM580 453
q-89 -140 -241 -140q-43 0 -74 14q-30 14 -57 51q58 -43 129 -43q116 0 243 118zM903 874q27 -75 27 -141q0 -89 -29 -187q-30 -96 -84 -187q-53 -90 -126 -163q-63 -63 -143 -110q-79 -46 -164 -70q-84 -25 -166 -25q-109 0 -165 69q77 -50 166 -50q88 0 182 32
q92 31 178 90q85 59 145 134q87 106 139 242q51 135 51 261q0 48 -11 105zM845 955q34 -84 34 -169q0 -84 -25 -174q-26 -94 -70 -181q-49 -94 -101 -151q-88 -100 -222 -165q-135 -65 -254 -65q-95 0 -163 47t-68 112q0 39 26 67q26 26 65 26q31 0 52 -18t21 -44
q0 -17 -7 -25q-8 -10 -30 -23q-13 -9 -13 -19q0 -26 33 -43q33 -18 80 -18q95 0 195 70t185 197q52 76 98 185q42 104 42 153q0 18 -7 18t-10 -10l-16 -40q-22 -57 -66 -121q-43 -64 -92 -105q-104 -86 -207 -86q-61 0 -108 31q-47 30 -76 84q-29 55 -29 120q0 96 53 210
q52 112 133 187q71 68 172 110q96 40 193 40q84 0 148 -43q63 -43 63 -102q0 -34 -29 -55z" />
    <glyph glyph-name="colon" unicode=":" horiz-adv-x="464" 
d="M0 118q0 55 39 106t82 51q29 0 47 -20q17 -20 17 -50q0 -58 -40 -107q-41 -50 -86 -50q-26 0 -43 20q-16 19 -16 50zM210 186v13q7 -22 7 -48q0 -60 -36 -105q-37 -46 -84 -46q-31 0 -55 31q28 -14 43 -14q51 0 88 51q37 49 37 118zM180 607q0 55 39 106t82 51
q29 0 47 -20q17 -20 17 -50q0 -58 -40 -107q-41 -50 -86 -50q-59 0 -59 70zM390 675v13q7 -27 7 -48q0 -60 -36 -105q-37 -46 -85 -46q-30 0 -54 31q25 -14 42 -14q52 0 89 51q37 49 37 118z" />
    <glyph glyph-name="semicolon" unicode=";" horiz-adv-x="464" 
d="M180 607q0 55 39 106t82 51q29 0 47 -20q18 -19 18 -50q0 -56 -41 -106q-40 -51 -86 -51q-26 0 -42 19q-17 20 -17 51zM391 675v13q6 -25 6 -48q0 -60 -36 -105q-37 -46 -84 -46q-32 0 -54 31q25 -14 42 -14q51 0 88 51q38 52 38 118zM218 192q20 -38 20 -64
q0 -39 -24 -86q-26 -48 -66 -89q-38 -41 -93 -74l-14 19q80 43 130 114q49 70 49 146q0 12 -2 34zM18 -73l-27 44q42 24 66 52q21 24 42 67q-30 -27 -54 -27q-20 0 -32 16q-12 15 -12 37q0 55 40 107t83 52q31 0 51 -23q18 -24 18 -62q0 -142 -175 -263z" />
    <glyph glyph-name="less" unicode="&#x3c;" horiz-adv-x="842" 
d="M1038 1246q8 -21 8 -37q0 -35 -28 -62t-68 -27q-30 0 -50 29q24 -11 42 -11q25 0 48 14t36 35q13 22 13 46q0 9 -1 13zM762 189l11 -22q-53 -85 -108 -128q-56 -44 -105 -44q-38 0 -67 35q32 -17 58 -17q103 0 211 176zM850 855l12 -27l-12 -29q-64 -169 -183 -412
q-13 -27 -24 -50.5t-16.5 -35.5t-8.5 -19q-14 -32 -22 -56q-13 -34 -15 -52q-3 -13 -10 -13q-11 0 -11 19q0 44 85 215q79 157 120 250q41 90 85 210zM167 765l-8 -20h-30l-12 20h50zM-396 -138v22q10 -33 10 -53q0 -24 -14 -24q-7 0 -14 7q18 12 18 48zM829 1271l-14 -21
q-54 0 -104 -27t-95 -80q-95 -111 -142 -251h-25q48 123 105 208q55 84 121 128q64 43 134 43h20zM561 745h-142l-11 -34l-47 -140l-54 -165q-45 -133 -69 -196q-30 -75 -66 -145q-64 -126 -150 -221q-89 -97 -186 -149q-98 -54 -188 -54q-91 0 -144 59q73 -37 136 -37
q147 0 303 135q75 65 131 145q54 76 106 192q52 117 107 285l54 163l52 155l8 27h117h14q17 0 21 -4q5 -5 8 -16zM222 804h-129l15 49h62q36 0 56 14t39 57q44 101 87 163q41 60 106 119q84 78 184 121q99 41 198 41q71 0 118 -32q46 -31 46 -82q0 -34 -23 -55
q-22 -22 -61 -22q-27 0 -47 15q-20 14 -20 35q0 28 29 40q13 7 13 13q0 14 -21 24t-53 10q-154 0 -275 -160q-82 -107 -142 -273l-10 -28h280q61 2 86 12q27 11 49 39l14 -8q-40 -105 -64 -162q-14 -32 -18.5 -42.5t-19.5 -44.5t-22 -49q-24 -55 -75 -158q-76 -156 -91 -201
q-14 -48 -14 -79q0 -43 33 -43q57 0 154 159l32 -55q-58 -90 -104 -127q-47 -38 -96 -38q-58 0 -93 48q-36 47 -36 124q0 68 25 140q24 75 85 196l51 100q30 60 30 91q0 28 -21 38q-22 11 -75 11h-133l-7 -21l-60 -184q-57 -172 -106 -306q-41 -113 -78 -185
q-41 -80 -82 -139q-95 -135 -191 -198q-97 -64 -210 -64q-98 0 -157 43q-60 43 -60 114q0 42 24 71q22 28 60 28q32 0 57 -23q23 -25 23 -54q0 -18 -9 -30t-21 -12q-5 0 -12 4q-2 1 -6 1q-9 0 -9 -12q0 -30 32 -50q31 -21 75 -21q143 0 268 167q61 81 107 189
q44 104 101 299l55 187q6 21 14 47t17 57q20 67 20 69z" />
    <glyph glyph-name="equal" unicode="=" horiz-adv-x="431" 
d="M-191 -46l-16 25h116l754 1110l14 -24l-751 -1111h-117zM-112 22h-120l778 1144l120 -2z" />
    <glyph glyph-name="greater" unicode="&#x3e;" horiz-adv-x="864" 
d="M672 1018h-25l-16 23q14 2 15 2q20 0 26 -25zM770 188l8 -23q-117 -177 -218 -177q-38 0 -71 37q34 -19 61 -19q51 0 104 44q54 44 116 138zM167 765l-8 -20h-30l-12 20h50zM-396 -138v22q10 -33 10 -53q0 -24 -14 -24q-7 0 -14 7q18 12 18 48zM980 1124l-11 -31
q-50 -157 -109 -297q-53 -126 -164 -348q-69 -138 -93 -201q-15 -43 -19 -67q-4 -21 -13 -21q-10 0 -10 14q0 13 13 55q21 64 113 250q114 228 159 336q62 149 108 299l8 26q71 30 71 89q0 11 -1 15q9 -18 9 -34q0 -60 -61 -85zM829 1271l-14 -21q-109 -1 -200 -107
q-49 -60 -83 -121q-34 -60 -58 -130h-25q48 123 105 208q55 84 121 128q64 43 134 43h20zM578 810l15 -20l-16 -45h-158l-11 -34l-47 -140l-54 -165q-45 -133 -69 -196q-30 -75 -66 -145q-64 -126 -150 -221q-89 -97 -186 -149q-98 -54 -188 -54q-91 0 -144 59
q73 -37 136 -37q147 0 303 135q75 65 131 145q54 76 106 192q52 117 107 285l54 163l52 155l8 27h161zM933 1178l-7 -23q-40 -123 -75 -217q-40 -106 -78 -190q-36 -78 -98 -201q-76 -153 -117 -249q-37 -87 -37 -136t33 -49q27 0 70 45q42 42 85 116l32 -48
q-58 -96 -105 -137q-48 -42 -98 -42q-57 0 -95 47q-37 46 -37 121q0 99 51 226q15 38 86 174q60 114 98 196q74 157 74 206q0 33 -25 49t-82 19l27 48l169 -2q51 0 74 10q24 10 40 36q-27 2 -45 15q-19 13 -19 36q0 27 28 39q13 7 13 13q0 14 -21 24t-53 10
q-154 0 -274 -160q-39 -49 -73 -114q-33 -63 -69 -159l-11 -28h157l-19 -49h-161l-7 -21l-60 -184q-57 -172 -106 -306q-41 -113 -78 -185q-41 -80 -82 -139q-95 -135 -191 -198q-97 -64 -210 -64q-98 0 -157 43q-60 43 -60 114q0 42 24 71q22 28 60 28q32 0 57 -23
q23 -25 23 -54q0 -18 -9 -30t-21 -12q-5 0 -12 4q-2 1 -6 1q-9 0 -9 -12q0 -30 32 -50q31 -21 75 -21q143 0 268 167q61 81 107 189q44 104 101 299l55 187q6 21 14 47t17 57q20 67 20 69l6 23h-129l15 49h62q36 0 56 14t39 57q44 101 87 163q41 60 106 119q84 78 184 121
q99 41 198 41q71 0 118 -32q46 -31 46 -82q0 -65 -71 -76z" />
    <glyph glyph-name="question" unicode="?" horiz-adv-x="760" 
d="M397 310l13 -16l-21 -40q-39 9 -57 20q-16 11 -39 39q27 -22 40 -27q11 -4 42 -12zM362 196q14 -34 14 -62q0 -52 -30 -93q-32 -41 -72 -41q-29 0 -52 32q26 -16 47 -16q39 0 68 44q28 43 28 104q0 10 -3 32zM279 267q18 0 32 -10q16 -11 23 -28q8 -19 8 -39
q0 -54 -31 -95q-31 -42 -71 -42q-63 0 -63 71q0 33 15 67t39 55t48 21zM443 1084l-8 20q32 0 52 -11q18 -12 40 -46q-47 26 -84 37zM441 1045q15 -24 15 -42q0 -28 -22 -47q-22 -21 -54 -21q-19 0 -34 9q-14 7 -32 29q31 -17 56 -17q30 0 52 21q21 20 21 49q0 5 -2 19z
M697 1000q49 -70 49 -143q0 -203 -240 -331q-87 -43 -110 -65q-24 -22 -31 -64q-9 12 -9 22q0 28 26 54q24 24 88 59q65 35 111 68q43 32 71 66q35 44 56 100q20 57 20 111q0 57 -31 123zM376 353l-22 -40q-57 3 -90 43q-34 38 -34 104q0 50 19 95q18 44 56 87q38 42 107 95
q103 77 131 113q43 56 43 126q0 71 -42 120q-43 48 -105 48q-23 0 -35 -6q-13 -7 -13 -19q0 -8 17 -25q16 -16 16 -35q0 -26 -21 -46q-20 -19 -52 -19q-39 0 -64 28q-27 27 -27 64q0 55 43 91q43 35 108 35q75 0 140 -41q64 -40 103 -111q38 -71 38 -154q0 -202 -188 -309
l-94 -54q-97 -55 -97 -130q0 -26 17 -43t46 -17z" />
    <glyph glyph-name="at" unicode="@" horiz-adv-x="817" 
d="M829 1272l-12 -22q-223 -15 -369 -402l-10 -28l-38 -49q38 110 64 168q28 66 58 114q32 53 72 97q59 64 112 91q53 28 123 31zM-11 22q26 -9 42 -9q39 0 75 24t74 74q71 95 149 263q39 84 54 111q13 24 35 48q21 22 28 22q6 0 6 -7q0 -5 -7 -13l-15 -18q-16 -22 -50 -87
l-44 -94q-164 -344 -285 -344q-30 0 -62 30zM741 187l14 -24q-112 -162 -206 -162q-38 0 -88 39q51 -23 76 -23q91 0 204 170zM699 698q25 -4 39 -4q37 0 62 30q24 30 24 76q9 -24 9 -40q0 -32 -23 -58t-54 -26q-26 0 -57 22zM622 773v-24q-41 -11 -74 -45h-27q32 35 52 49
q17 11 49 20zM1032 1236v15q10 -24 10 -44q0 -37 -24 -63q-26 -26 -60 -26q-28 0 -59 28q24 -11 44 -11q37 0 63 29t26 72zM639 551q25 -40 25 -88q0 -52 -47 -161q-41 -93 -45 -127q-1 -16 -11 -16q-12 0 -12 17q0 12 18 64q11 29 42 102q37 89 37 149q0 31 -7 60zM24 102
q20 1 34 9q14 6 33 27q22 27 58 84q27 46 73 140q98 201 132 263q42 77 82 127q41 52 82 83q84 66 159 66q50 0 85 -26q33 -27 33 -67q0 -33 -25 -57t-62 -24q-23 0 -37 12q-15 12 -15 29q0 10 10 20q8 8 8 13q0 16 -29 16q-53 0 -112 -49q-61 -49 -120 -143q60 42 100 42
q48 0 76 -36q28 -37 28 -98q0 -41 -14 -95q-16 -55 -49 -133q-47 -115 -47 -147q0 -18 11 -32q10 -13 28 -13q25 0 55 34t84 124l28 -50l-20 -30q-47 -69 -88 -104q-40 -32 -83 -32q-60 0 -96 42q-37 40 -37 110q0 37 13 82q15 52 49 134q56 138 56 154q0 31 -30 31
q-41 0 -92 -59q-38 -46 -84 -142q-90 -191 -159 -278q-68 -86 -129 -86q-26 0 -43 16q-18 17 -18 38q0 20 19 29l20 12q44 26 84 134q51 134 98 324l43 171q37 151 104 266q64 111 157 189q170 142 356 142q75 0 127 -32q50 -32 50 -81q0 -35 -26 -59q-27 -24 -65 -24
q-28 0 -46 15q-19 13 -19 34t14 33l16 11q12 9 12 18q0 13 -18 22q-21 8 -50 8q-53 0 -110 -23q-55 -22 -107 -68q-71 -63 -125 -153q-50 -84 -116 -255l-62 -162q-50 -132 -99 -241q-48 -104 -96 -187q-24 -43 -42 -67q-15 -21 -47 -51z" />
    <glyph glyph-name="A" unicode="A" horiz-adv-x="1792" 
d="M1236 767h-23q58 117 126 214q68 95 138 162q70 65 145 106q74 41 153 51l-24 -25q-114 -29 -229 -124q-140 -117 -273 -361zM888 606l-15 -21l-24 -1q-354 -23 -502 -96q-77 -38 -124 -98q-47 -59 -47 -118q0 -43 34 -110q-31 32 -42 59q-12 29 -12 60q0 88 87 164
q86 76 231 112q79 19 185 33q99 11 229 16zM1149 727q12 -1 39 -1q123 0 300 19l9 23q97 238 197 383q77 110 191 174q-28 21 -65 21q-65 0 -139 -28q-73 -27 -147 -79q-71 -49 -134 -118q-49 -54 -115 -156q-39 -61 -74.5 -124.5t-61.5 -113.5zM965 648l-28 -1
q-118 -4 -231 -15q-104 -10 -193 -28q-78 -16 -140 -41q-127 -50 -189 -121q-64 -71 -64 -162q0 -59 27 -106q27 -48 77 -74t113 -26q79 0 154 34q74 33 153 104q78 72 155 177q83 113 166 259zM1107 -61l-13 22l13 10q106 77 154 77q22 0 42 -14q-12 2 -21 2q-27 0 -64 -20
q-34 -18 -111 -77zM2007 1278q0 -25 -5 -33q-6 -8 -26 -8q-49 0 -102 -69q-60 -81 -104 -201l-26 -7q56 146 112 221q57 76 109 76h18q14 0 24 21zM1873 849v19q10 -24 10 -44q0 -110 -200 -172q-19 -78 -51 -182q-32 -103 -69 -191q-72 -180 -169 -294l-12 23
q86 95 160 277q75 187 125 385q95 23 150 72q56 50 56 107zM1419 628l-10 -18q-95 -14 -233 -18l-25 -1l-10 -21q-64 -137 -127.5 -235.5t-132.5 -170.5q-66 -69 -151 -123q-80 -50 -176 -80q-93 -29 -178 -29q-146 0 -215 82q58 -32 108 -47q45 -13 105 -13q135 0 271 65
q137 65 237 179q54 63 89 114q35 49 79 129q47 83 80 154l9 20h33q131 0 247 13zM1071 0l-16 20q90 92 141 159q55 75 106 166q96 172 155 326l-29 -3q-101 -11 -201 -13l-87 -2l-26 -1l-8 -18q-64 -143 -125 -239q-60 -96 -134 -176q-211 -226 -481 -226q-95 0 -172 42
q-78 42 -122 116q-45 74 -45 163q0 94 53 185q51 88 142 145q74 47 179 68q108 20 257 20q-16 0 130 -2l185 -3l39 -1l19 31q89 146 174 255q83 106 185 202q95 89 210 138q117 50 224 50q69 0 109 -22q41 -23 41 -60q0 -17 -6 -22q-7 -5 -30 -7q-34 -2 -76 -44
q-44 -44 -84 -112q-39 -69 -72 -165q-32 -90 -56 -196q116 44 116 102q0 22 -19 34q21 26 46 26t40 -16q14 -17 14 -44q0 -56 -56 -101q-53 -45 -158 -74q-47 -188 -112 -360q-67 -181 -162 -297q-38 50 -92 50q-69 0 -196 -94z" />
    <glyph glyph-name="B" unicode="B" horiz-adv-x="1636" 
d="M1327 1041l10 -28q-45 -92 -79 -258l-25 -10l8 30q45 175 86 266zM1283 542q-43 9 -81 11q-30 -116 -64 -208q-31 -84 -80 -176h-22q55 107 95 224q29 89 55 180q24 2 20 2q43 0 77 -33zM1182 715l-6 -23q216 41 216 238q0 91 -66 184q-38 -63 -68 -147q-36 -98 -76 -252
zM981 147q57 -21 99 -21q92 0 154 62q46 46 78 124q30 77 30 142q0 79 -35 120t-102 41q-14 0 -52 -6l-9 -31q-31 -108 -71 -214t-92 -217zM1492 1173l-15 16q7 4 16 4q13 0 13 -7t-14 -13zM1662 1219q12 -22 12 -39q0 -27 -17 -44q-18 -18 -44 -18q-12 0 -20 3
q-11 5 -35 19q22 -5 33 -5q32 0 52 19q20 18 20 48q0 13 -1 17zM582 605q6 -24 6 -31q0 -26 -21 -44t-53 -18q-34 0 -63 27q30 -13 52 -13q36 0 58 22q21 21 21 57zM689 865q-11 4 -19 4q-26 0 -49 -19q-26 -20 -43 -50t-22 -68l-4 -26q-2 -14 -11 -14q-8 0 -8 15
q0 42 19 81q18 41 47 68t53 27q19 0 37 -18zM1572 1000q28 -52 28 -102q0 -137 -148 -234l-22 12q78 46 117 106q36 59 36 142q0 34 -11 76zM1547 492q27 -54 27 -105q0 -74 -36 -148t-99 -134q-124 -118 -290 -118q-48 0 -120 8q2 0 -64 9q-5 1 -10.5 2.5t-9.5 1.5
q-3 1 -9.5 1.5t-12.5 0.5q-59 8 -93 8q-86 0 -168 -70l-14 18q53 41 93 57q39 16 86 16q37 0 95 -8q80 -12 110 -15q66 -8 113 -8q168 0 283 115q60 59 95 136q34 74 34 149q0 40 -10 84zM912 829q26 -60 26 -103q0 -54 -21 -116q-20 -59 -56 -120q-33 -56 -85 -111
q-67 -69 -151 -109q-87 -41 -163 -41q-98 0 -177 65q49 -25 86 -36q33 -10 80 -10q85 0 170 43q85 44 152 117q68 74 108 163t40 180q0 35 -9 78zM1152 1197l-33 6q-100 17 -164 17q-174 0 -320 -77q-145 -76 -228 -212q-83 -137 -83 -300q0 -91 32 -185q-28 46 -39 89
q-11 44 -11 108q0 166 83 303q82 136 228 214t321 78q97 0 214 -41zM628 1l-18 30q187 166 361 568l75 173q42 97 80 171q35 68 75 123q41 56 81 96q-131 116 -342 116q-189 0 -344 -83q-156 -82 -243 -230q-88 -146 -88 -326q0 -124 53 -198q53 -75 141 -75q119 0 207 121
q31 45 52 90q21 47 34 102q12 53 12 101q0 65 -29 106q-28 39 -79 39q-40 0 -80 -35q-39 -35 -64 -92q-25 -54 -25 -110q0 -51 37 -51q13 0 27 14q6 -16 6 -25q0 -30 -22 -52t-52 -22q-38 0 -65 35t-27 85q0 84 47 167q46 82 122 135q73 52 150 52q56 0 96 -28
q38 -27 62 -82q21 -52 21 -124q0 -94 -37 -183q-38 -93 -101 -163q-64 -73 -145 -115t-163 -42q-134 0 -220 96q-86 95 -86 243q0 200 110 367q55 83 130.5 149.5t168.5 113.5q189 96 414 96q115 0 211 -26q92 -25 199 -90q101 61 173 61q45 0 70 -19q26 -20 26 -49
q0 -26 -19 -45t-45 -19q-18 0 -41 10q9 14 9 23q0 31 -46 31q-34 0 -83 -25q72 -64 103 -127t31 -143q0 -235 -315 -265v-19q46 8 74 8q66 0 116 -26q49 -25 76 -75q26 -50 26 -116q0 -105 -51 -197q-53 -93 -141 -145q-91 -53 -193 -53q-51 0 -108 9l-96 15q-56 8 -90 8
q-62 0 -113 -18q-54 -20 -105 -61z" />
    <glyph glyph-name="C" unicode="C" horiz-adv-x="1510" 
d="M1394 1277q-13 1 -47 1q-84 0 -165 -28q-87 -30 -160 -83q-80 -58 -145 -133q-68 -79 -127 -181l-30 -2q32 66 80 129t110 124q195 189 395 189q42 0 89 -16zM650 797l36 5l188 24q204 28 313 54q106 25 182 65q72 38 113 94q40 55 40 120q0 80 -58 126q-59 47 -154 47
t-190 -39q-96 -41 -186 -112q-92 -74 -163 -170q-73 -97 -121 -214zM321 222q9 -28 9 -45q0 -46 -39 -81q-41 -35 -92 -35q-50 0 -93 38q44 -18 75 -18q63 0 102 40q38 40 38 101zM323 579l-2 -26q-64 -36 -108 -102q-44 -68 -44 -131q0 -20 4 -45q-24 33 -24 65q0 43 23 91
q23 47 62 85q39 39 89 63zM1374 367l18 -22q-60 -83 -116 -139q-52 -52 -124 -101q-178 -120 -347 -120q-81 0 -138 22q-58 22 -115 75q66 -39 122 -55q52 -16 121 -16q79 0 159 23q77 23 152 69t143 114q70 69 125 150zM1635 1173q18 -43 18 -79q0 -52 -21 -105
q-22 -55 -61 -104q-39 -51 -91 -92q-82 -64 -184 -97q-102 -34 -252 -43l-170 -7l-182 -8l-30 -1q-36 -124 -36 -217q0 -110 76 -189q-51 27 -75 73q-25 44 -25 115q0 102 44 242l30 1q136 8 265 12q152 6 224 16q79 11 147 37q102 41 174 102q72 62 112 140q39 78 39 164
q0 -6 -2 40zM1310 460l39 -59q-130 -181 -262 -263q-133 -84 -289 -84q-125 0 -223 58q-99 59 -153 162q-55 103 -55 233q0 54 14 144q-53 -19 -94 -42q-39 -22 -80 -61q-43 -43 -72 -104t-29 -114q0 -40 23 -69q23 -30 56 -30q48 0 48 53q3 1 12 1q21 0 33 -14
q12 -13 12 -39q0 -46 -34 -79t-84 -33q-44 0 -80 24q-37 24 -57 65q-21 41 -21 93q0 85 44 175q43 88 116 147q91 76 236 120q27 76 64 142q37 69 88 132q52 64 121 130q88 84 189 143q103 60 209 91t212 31q89 0 161 -33q71 -35 110 -93q38 -59 38 -133q0 -102 -61 -194
q-29 -45 -71 -84t-96 -70q-82 -46 -170 -64q-51 -11 -106.5 -16t-153.5 -10q-70 -3 -301 -17l-31 -2q-49 -153 -49 -269q0 -131 75 -206q73 -76 204 -76q256 0 468 314z" />
    <glyph glyph-name="D" unicode="D" horiz-adv-x="1690" 
d="M1323 1035l16 -25q-26 -52 -42 -106q-15 -49 -20 -72q-11 -38 -20 -81q-17 -71 -26 -111q-30 -137 -64 -240q-34 -99 -99 -238h-25q33 70 65 149q32 81 54 152q23 81 44 172q45 198 69 274q21 68 48 126zM996 162l-12 -25q61 -14 99 -14q88 0 167 88q39 43 71.5 102.5
t56.5 132.5q48 146 48 306q0 111 -25 199q-26 90 -75 163q-37 -57 -59 -120q-24 -66 -43 -129q-22 -73 -37 -139q-45 -185 -64 -252q-23 -83 -51 -148q-25 -59 -76 -164zM1512 1181h-28l-14 13q12 9 20 9q22 0 22 -22zM1676 1222q4 -17 4 -28q0 -28 -19 -48q-19 -22 -47 -22
q-22 0 -47 19h14q3 -1 9 -1q69 0 86 80zM583 596q2 -12 2 -25q0 -28 -20 -48q-19 -19 -49 -19q-29 0 -63 23q24 -6 41 -6q31 0 56 20q24 19 33 55zM691 872q-60 -4 -97 -44q-38 -41 -45 -110q-3 -35 -13 -35t-10 31q0 59 42 117q42 57 87 57q20 0 36 -16zM906 846
q30 -55 30 -109q0 -120 -71 -241q-71 -119 -186 -196t-229 -77q-107 0 -181 81q46 -33 80 -44q36 -13 88 -13q174 0 310 138q80 83 125 180q45 98 45 191q0 38 -11 90zM1108 1212q-76 9 -140 9q-153 0 -270 -46q-122 -47 -210 -137q-82 -85 -126 -189q-43 -102 -43 -218
q0 -52 7 -90q8 -46 25 -94q-53 89 -53 204q0 117 50 228q50 110 137 190t202 126q114 45 244 45q90 0 177 -28zM673 -51l-12 18q98 70 186 70q46 0 121 -13q90 -16 149 -16q116 0 226 71q111 71 184 194q60 97 94 215q34 117 34 226q0 119 -40 224q35 -54 50 -105
q7 -23 10.5 -55t3.5 -74q0 -130 -56 -283q-56 -152 -140 -250q-48 -55 -112 -99q-60 -41 -129 -64q-66 -22 -132 -22q-58 0 -141 16q-82 14 -123 14q-81 0 -173 -67zM638 0l-21 21q119 113 238 329q48 86 128 257q60 137 94 217q13 30 29.5 66t24.5 53.5t17 33.5
q22 43 56 94q30 42 77 96q-150 111 -359 111q-180 0 -331 -85q-152 -86 -241 -232t-89 -316q0 -131 52 -210q51 -80 137 -80q56 0 114 37q59 37 101 94q45 59 71 133q26 78 26 149q0 75 -26 119q-27 43 -71 43q-45 0 -85 -34q-42 -36 -67 -90q-27 -55 -27 -113q0 -28 12 -48
q12 -19 28 -19q15 0 25 16q3 -13 3 -22q0 -30 -21 -50q-22 -21 -52 -21q-38 0 -64 33q-25 32 -25 85q0 86 45 170q44 83 115 133t146 50q84 0 135 -66t51 -171q0 -92 -37 -182q-37 -89 -100 -162q-61 -70 -143 -114q-83 -44 -161 -44q-55 0 -118 26q-60 25 -102 70
q-86 92 -86 254q0 197 109 363q110 167 296 262q188 96 411 96q226 0 408 -116q104 73 191 73q38 0 67 -20q27 -21 27 -50q0 -24 -20 -44q-20 -19 -49 -19q-16 0 -40 10q14 14 14 24q0 14 -13 23q-14 8 -35 8q-40 0 -96 -38q101 -74 155 -189t54 -265q0 -186 -67 -345
q-68 -161 -182 -256q-114 -96 -245 -96q-51 0 -143 14q-84 12 -126 12q-117 0 -215 -78z" />
    <glyph glyph-name="E" unicode="E" horiz-adv-x="1425" 
d="M1362 1233q-43 6 -76 6q-84 0 -164 -31q-82 -31 -148 -84q-66 -51 -115 -125q-48 -74 -66 -154l-20 -1q16 77 51 139t91 118q76 76 165 116q87 40 176 40q46 0 106 -24zM732 802l25 2q181 19 297 41.5t201 52.5q211 78 211 230q0 76 -57 124q-59 47 -147 47
q-93 0 -195 -45q-104 -47 -176 -118q-142 -136 -159 -334zM1032 267q-72 -1 -118 -44q-46 -42 -52 -115q-7 -6 -11 -6q-8 0 -8 17q0 59 48 111q47 51 101 51q18 0 40 -14zM948 35q13 -22 13 -42q0 -39 -33 -69q-32 -31 -77 -31q-53 0 -88 51q29 -19 43 -24q15 -6 32 -6
q44 0 78 31q33 30 33 70q0 15 -1 20zM738 543l-40 -9q-9 5 -24 15q-16 11 -26 24q-15 19 -16 21q43 -42 106 -51zM319 231q3 -19 3 -32q0 -45 -36 -80q-35 -34 -85 -34q-52 0 -90 45q48 -20 78 -20q109 0 130 121zM576 647l15 -18q-126 -11 -217 -50q-96 -40 -147 -102
q-51 -61 -51 -138q0 -11 3 -35q-22 26 -22 57q0 61 46 122q47 62 119 99q101 54 254 65zM1272 244q18 -45 18 -81q0 -73 -39 -159q-42 -89 -107 -158q-82 -87 -182 -133q-99 -46 -205 -46q-180 0 -256 106q113 -84 251 -84q128 0 252 74q59 36 109 83.5t88 107.5
q74 119 74 246q0 23 -3 44zM1572 1140q17 -40 17 -69q0 -53 -32 -123q-30 -66 -82 -121q-51 -54 -127 -93t-179 -63l-27 14q126 34 205 77q75 41 137 112q41 47 67 109q25 60 25 113q0 19 -4 44zM1199 580q7 -24 7 -35q0 -49 -85 -68l-101 -24q-220 -51 -323 -145
q-105 -94 -105 -242q0 -49 18 -117q-41 59 -41 138q0 69 35 141q35 69 87 111q61 49 152 84q94 37 231 67q83 20 104 35t21 55zM548 775q-1 9 -1 37q0 105 54 200.5t160 177.5q105 83 234 133q126 49 242 49q69 0 127 -18q57 -18 95 -50t59 -78t21 -105q0 -74 -34 -142
q-34 -70 -95 -125q-63 -57 -145 -91q-53 -22 -103 -31q-55 -12 -142 -18t-221 -9l-38 -1q53 -81 182 -81q44 0 71 9l55 17q21 6 41 6q25 0 41 -15t16 -41q0 -28 -20 -43q-20 -14 -72 -25q-131 -25 -260 -77q-137 -53 -212 -149t-75 -220q0 -60 19 -108q18 -49 53 -89
q35 -39 84 -60q47 -22 100 -22q128 0 220 104q48 54 80 128q30 74 30 135q0 43 -15 77q-16 34 -44 53t-63 19q-44 0 -90 -29q-43 -27 -73 -76q-29 -47 -29 -93q0 -29 14 -49q13 -19 35 -19q16 0 26 10t10 25v6h8q16 0 26 -13q11 -14 11 -33q0 -40 -32 -69q-31 -30 -74 -30
q-48 0 -83 42q-36 42 -36 97q0 77 50 154t128 124q79 47 160 47q90 0 142 -55q53 -56 53 -148q0 -90 -40 -177q-40 -88 -111 -157q-68 -68 -160 -110q-89 -40 -183 -40q-104 0 -193 50q-90 50 -140 134q-52 83 -52 183q0 91 47 179q47 86 126 140q95 65 300 114q11 4 34 9
q11 3 22.5 5.5t23.5 5.5q9 2 23 5.5t19.5 5t11.5 3.5l47 14q26 8 26 16q0 5 -7 5q5 0 -17 -2q-106 -24 -180 -24q-183 0 -257 119q-183 -12 -307 -91q-67 -42 -111 -110q-45 -69 -45 -134q0 -47 22 -76q23 -30 56 -30q18 0 31 13q12 12 12 29v11q56 0 56 -48q0 -42 -36 -74
q-36 -33 -81 -33q-63 0 -105 50q-43 49 -43 131q0 108 66 201q65 92 184 157q117 64 271 88z" />
    <glyph glyph-name="F" unicode="F" horiz-adv-x="1547" 
d="M1475 1204l-23 10q55 32 102 32q26 0 42 -6t16 -16q0 -4 -2 -10q-24 9 -49 9q-38 0 -86 -19zM1380 1214q85 -55 175 -55q47 0 78 18q30 17 30 45q0 29 -26 47q-28 17 -74 17q-78 0 -183 -72zM981 754l-15 -26l-19 26h34zM571 651q9 -21 9 -37q0 -37 -25 -62
q-26 -26 -63 -26q-38 0 -67 36q35 -18 58 -18q33 0 62 29q27 29 27 62v9q-1 2 -1 7zM626 -55l-11 21q109 94 172 94q17 0 40 -14q-51 -3 -90 -22q-42 -20 -94 -65zM1266 913l-7 -18h-22q35 111 81 189q86 -29 127 -36q42 -9 84 -9q104 0 168 47q63 47 65 128q10 -21 10 -40
q0 -68 -70 -114q-71 -47 -169 -47q-41 0 -86 8q-42 7 -118 33q-31 -51 -63 -141zM652 913q-56 -1 -100 -54q-47 -59 -47 -119v-20q-18 12 -18 38q0 56 45 111q45 56 89 56q15 0 31 -12zM878 877q29 -64 29 -115q0 -77 -40 -161q-40 -86 -109 -158q-60 -66 -145 -106
q-83 -40 -161 -40q-93 0 -147 68q68 -45 145 -45q107 0 209 69t167 179q64 109 64 224q0 39 -12 85zM1158 1133l-14 -17q-110 40 -197 60q-85 19 -154 19q-191 0 -330 -133q-80 -77 -123 -176q-45 -100 -45 -207q0 -55 15 -123q-36 75 -36 142q0 95 42 194q42 96 113 174
q45 48 101 81q60 35 120 53q63 17 127 17q60 0 120 -10q58 -10 129 -29q66 -19 132 -45zM1452 814l11 -27l-31 -59h-212l-6 -24q-45 -174 -78 -272q-50 -153 -100 -256q-49 -97 -120 -185l-11 21q59 76 107 175q50 102 95 232q16 48 43 140t45 168l7 27h220zM590 0l-19 29
q55 46 107 113q48 64 112 168q130 215 224 456l10 27h-99q17 29 24 60h103q57 148 157 284l15 20l-26 9q-164 56 -223 69q-106 23 -184 23q-256 0 -416 -193q-66 -78 -103 -175q-37 -95 -37 -186q0 -116 59 -196t143 -80q41 0 87 25q47 26 79 65q56 67 92 153q35 87 35 156
q0 61 -31 98t-81 37q-65 0 -120 -73t-55 -161q0 -58 44 -58q13 0 20 7q7 8 11 27q27 -13 27 -40q0 -34 -25 -58q-25 -25 -60 -25q-45 0 -74 38q-30 38 -30 96q0 85 43 164q44 80 112 129q68 50 139 50q55 0 104 -29q48 -31 74 -82q27 -52 27 -116q0 -118 -58 -225
q-57 -107 -154 -176q-97 -68 -199 -68q-127 0 -203 97q-77 97 -77 260q0 179 90 335q88 154 242 246q151 91 328 91q111 0 222 -32q109 -33 266 -112q121 100 257 100q73 0 119 -34q47 -35 47 -88q0 -38 -27 -71q-29 -35 -73 -54q-46 -20 -97 -20q-46 0 -99 12
q-49 9 -139 38q-75 -118 -115 -277h241q-15 -21 -31 -60h-225l-6 -22q-48 -180 -78 -277q-27 -87 -65 -186q-61 -151 -141 -262q-51 58 -93 58q-20 0 -50 -11q-27 -10 -64 -34q-33 -22 -83 -59z" />
    <glyph glyph-name="G" unicode="G" horiz-adv-x="1457" 
d="M1360 1212q-45 6 -64 6q-160 0 -330 -125q-67 -49 -123 -114q-55 -64 -114 -162h-28q98 170 222 273q87 70 176 108q92 39 169 39q48 0 92 -25zM636 768l43 6l210 27q123 18 212 35q79 16 132 34q56 18 93 39q140 80 140 197q0 47 -26 88q-26 38 -72 61q-45 22 -102 22
q-88 0 -181 -40q-97 -41 -179 -109q-86 -70 -156 -163q-71 -96 -114 -197zM316 208q18 -22 18 -43q0 -27 -18 -51q-19 -25 -50 -40q-31 -16 -63 -16q-26 0 -46 9t-46 33q50 -18 82 -18q48 0 87 33q38 32 38 72q0 -3 -2 21zM663 -109q6 -23 6 -33q0 -13 -8 -23
q-9 -10 -19 -10q-8 0 -16 8q28 7 37 58zM1560 1155q34 -50 34 -103q0 -66 -33 -132q-32 -65 -95 -122q-59 -54 -148 -94h-44q94 40 160 96q67 55 105 125q37 67 37 139q0 40 -16 91zM326 561v-23q-41 -25 -60 -41q-22 -19 -39 -42q-51 -69 -51 -132q0 -19 4 -28
q5 -10 18 -27q-7 -4 -13 -4q-12 0 -21 19q-10 17 -10 40q0 74 48 138q45 63 124 100zM1111 356q-31 -78 -86 -136t-128 -89q-75 -32 -152 -32q-156 0 -239 113q63 -48 115 -67q53 -21 116 -21q214 0 374 232zM701 308q-55 18 -81 60q-26 43 -26 108q0 64 32 162
q459 18 567 40l-26 -32q-20 -4 -116 -10q-30 -1 -54 -3t-38 -2.5t-27 -1.5q-1 0 -40 -1t-93 -4q-108 -5 -157 -6q-25 -72 -25 -131q0 -56 20 -99q19 -41 64 -80zM1384 609q7 -17 7 -27q0 -19 -19 -48q-25 -41 -31 -68q-9 -36 -20 -127q-19 -148 -36 -222q-26 -104 -68 -178
q-44 -76 -115 -141q-173 -160 -372 -160q-58 0 -102 18q-42 16 -85 56q94 -52 191 -52q96 0 202 50q105 50 181 132q135 144 164 369l19 154q10 74 24 118q13 44 34 71l18 23q9 12 9 23v5q-1 1 -1 4zM406 719q57 130 125 226q67 93 157 171q272 233 552 233q92 0 160 -31
t105 -87q36 -57 36 -132q0 -91 -56 -177q-55 -86 -151 -144q-58 -34 -110 -51q-51 -16 -143 -25q-82 -8 -256 -16q-145 -7 -229 -13q-19 -66 -30 -117q-10 -49 -10 -96q0 -59 26 -105q26 -45 71 -71q46 -26 105 -26q77 0 150 44q73 45 127 125l81 117q88 127 183 127
q25 0 44 -11q17 -11 17 -26q0 -13 -25 -41q-52 -61 -78 -243q-2 -15 -5 -38t-6 -42q-1 -12 -4 -30.5t-6 -35.5q-16 -112 -59 -200.5t-111 -153.5q-73 -70 -168 -109q-93 -40 -191 -40q-66 0 -123 24q-58 22 -91 63q-34 40 -34 88q0 43 29 72q28 28 68 28q32 0 52 -17
q19 -18 19 -48q0 -19 -8 -37q-8 -17 -19 -17l-8 2q-3 1 -11 1q-13 0 -13 -13q0 -28 33 -46q32 -19 82 -19q63 0 117 27q54 28 110 85q106 109 168 280l51 143q80 223 135 257q9 6 9 9q0 9 -10 9q-15 0 -32 -15q-16 -14 -30 -29q-13 -13 -30 -39q-19 -27 -52 -80
q-173 -269 -379 -269q-100 0 -186 50q-88 51 -136 134q-51 86 -51 184q0 40 12 100q-122 -40 -192 -122q-69 -82 -69 -183q0 -43 21 -72q20 -29 53 -29q19 0 32 12q14 11 14 26q0 7 -4 15h6q52 0 52 -59q0 -41 -31 -69t-81 -28q-69 0 -111 50t-42 132q0 94 47 177
q46 82 133 146q87 63 199 95z" />
    <glyph glyph-name="H" unicode="H" horiz-adv-x="1809" 
d="M664 905q-59 -3 -96 -43t-45 -111q-4 -34 -13 -34q-10 0 -10 31q0 58 42 116q42 57 87 57q22 0 35 -16zM1119 -61l-13 24q104 92 176 92q21 0 43 -13h-11q-101 0 -195 -103zM326 214q9 -19 9 -32q0 -18 -10 -29q-10 -12 -23 -12q-8 0 -19 8q43 13 43 65zM2060 1167v15
q12 -25 12 -42q0 -33 -20 -56t-47 -23q-22 0 -51 21q20 -5 29 -5q35 0 56 25q21 26 21 65zM1257 761l-13 -28h-25q46 106 95 197q81 152 168 222q25 21 46 32q18 9 67 28q18 7 26 18q7 10 7 33q8 -16 8 -29q0 -19 -12 -30q-14 -12 -57 -28q-91 -34 -177 -163
q-53 -78 -133 -252zM581 651q5 -23 5 -34q0 -36 -27 -62q-28 -26 -64 -26q-21 0 -37 8t-33 27q33 -14 55 -14q42 0 70 28t31 73zM1324 1197l-27 -20q-75 1 -171 10l-128 13q-66 6 -130 6q-156 0 -284 -68q-128 -69 -202 -189q-73 -121 -73 -269q0 -61 15 -124q-18 31 -25 62
q-9 32 -9 77q0 96 44 201q44 103 117 173q53 50 118 85q63 35 145 56q77 18 153 18q66 0 140 -7l138 -14q31 -3 76 -5.5t103 -4.5zM894 870q24 -55 24 -99q0 -79 -38 -164q-38 -82 -104 -155q-66 -70 -148 -112t-158 -42q-52 0 -85 16q-33 14 -77 57q83 -53 159 -53
q75 0 154 41q78 42 142 111q65 71 102 158t37 174q0 26 -8 68zM1403 -6l-10 18q78 101 132 225q29 67 65 178q40 123 62 210l42 164q38 146 75 225q35 78 99 146l2 -31q-51 -48 -86 -128q-37 -84 -77 -241q-14 -60 -19 -76q-2 -9 -19 -75q-29 -113 -71 -237
q-40 -117 -75 -190q-48 -98 -120 -188zM1370 580l-10 -21h-189q-77 -195 -187 -336q-114 -145 -244 -217q-134 -74 -280 -74q-78 0 -132 20q-53 20 -99 67q94 -65 224 -65q265 0 475 240q74 85 122 166q52 88 107 220h213zM1080 0l-16 24l19 21q46 52 96 115q42 56 81 117
q39 62 78 138q43 84 84 176l12 25h-306l-10 -23q-60 -139 -120 -236t-135 -175q-87 -90 -197 -139q-112 -51 -221 -51q-79 0 -152 29t-114 76q-42 48 -42 103q0 38 27 68q27 29 65 29q32 0 52 -19q21 -19 21 -49q0 -17 -11 -33q-12 -16 -24 -16l-29 2q-3 0 -6 -5
q-4 -4 -4 -13q0 -33 55 -64q55 -32 111 -32q91 0 179 46q90 47 164 130q58 66 111 148q54 82 122 211l100 187q66 126 127 212q60 85 122 141q86 78 173 105q21 6 21 12q0 9 -11 9q-7 0 -34 -8q-76 -24 -160 -24q-78 0 -185 12q-83 10 -185 19q-50 2 -61 2q-113 0 -218 -34
q-106 -34 -189 -94q-101 -77 -161 -198t-60 -247q0 -112 57 -189q56 -78 136 -78q54 0 109 34q54 33 97 88q41 53 67 123q25 66 25 139q0 67 -30 107q-31 40 -81 40q-44 0 -82 -30q-40 -31 -62 -81q-23 -52 -23 -104q0 -30 15 -48q15 -19 37 -19q21 0 32 26q11 -28 11 -44
q0 -33 -23 -54q-22 -22 -60 -22q-46 0 -75 36q-29 37 -29 96q0 85 43 164q42 79 110 129q67 49 140 49q42 0 81 -17q37 -16 65 -46q26 -29 43 -72q15 -42 15 -93q0 -54 -19 -117q-20 -67 -53 -124q-35 -62 -76 -106q-53 -57 -129 -91q-81 -35 -151 -35q-115 0 -190 105
t-75 268q0 170 89 322q88 151 237 241q149 89 318 89q94 0 192 -22l165 -35q139 -29 203 -29q48 0 131 23q22 7 46 7q21 0 35 -14q13 -13 13 -35q0 -24 -33 -36q-59 -20 -100 -50q-38 -27 -86 -84q-49 -58 -101 -154t-110 -231l-13 -31h305l11 26q38 88 68 151q38 78 69 135
q153 272 312 272q32 0 57 -11q25 -12 38 -33q14 -22 14 -49q0 -33 -19 -52q-19 -21 -46 -21q-25 0 -43 15t-18 36q0 20 13 30q9 6 9 9q0 12 -20 12q-67 0 -133 -95q-43 -58 -74 -146q-24 -65 -55 -189q-38 -152 -74 -275q-30 -102 -56 -172q-75 -195 -149 -291
q-36 55 -92 55q-78 0 -197 -99z" />
    <glyph glyph-name="I" unicode="I" horiz-adv-x="1353" 
d="M330 210q8 -21 8 -33q0 -17 -9 -28q-10 -12 -22 -12q-9 0 -20 8q42 13 43 65zM579 646q6 -19 6 -36q0 -34 -24 -57q-25 -24 -60 -24q-37 0 -70 33q27 -12 51 -12q43 0 70 27q26 26 27 69zM671 902q-26 2 -27 2q-46 0 -84 -47q-38 -49 -41 -108q-1 -30 -12 -30
q-13 0 -13 25q0 39 22 82q21 43 52 71t61 28q24 0 42 -23zM889 877q23 -63 23 -110q0 -83 -40 -166q-40 -85 -107 -153q-68 -70 -148 -109q-82 -42 -161 -42q-100 0 -142 64q70 -43 141 -43q80 0 159 42q78 40 142 110q62 68 101 157q38 90 38 174q0 36 -6 76zM1252 1202
l-13 -20q-60 2 -175 13q-119 11 -168 11q-245 0 -399 -118q-85 -64 -139 -174q-55 -109 -55 -216q0 -123 60 -191q-81 48 -81 191q0 120 58 232t159 184q161 114 408 114q53 0 174 -12q141 -12 171 -14zM1563 1255q5 -23 5 -34q0 -45 -57 -59q-61 -15 -91 -33
q-31 -19 -60 -63q-38 -60 -71 -153q-33 -94 -77 -275q-31 -127 -56 -194t-64 -132q-34 -59 -77 -109.5t-90 -90.5q-101 -86 -218 -132t-243 -46q-89 0 -143 20q-53 19 -87 64q94 -64 231 -64q90 0 180 28q95 28 178 82q86 56 150 126q97 107 151 237q30 69 72 240
q48 195 85 294q37 100 85 151q47 50 120 69q44 11 60 27t17 47zM539 704q10 -24 10 -44q0 -34 -22 -55t-56 -21q-47 0 -75 37q-30 36 -30 94q0 86 43 165q42 80 111 128q68 48 142 48q58 0 104 -28t72 -79q25 -50 25 -117q0 -117 -59 -227t-155 -179t-196 -69q-86 0 -148 45
q-63 43 -96 128q-33 84 -33 195q0 130 51 251q51 122 142 213q89 91 207 142q118 50 249 50q87 0 155 -16l184 -41q110 -25 176 -25q48 0 111 12q33 5 45 5q19 0 33 -11q13 -12 13 -30q0 -44 -74 -61q-49 -9 -82 -32q-31 -22 -68 -73q-45 -65 -80 -157q-36 -96 -74 -246
q-30 -120 -55 -203q-15 -50 -40 -102q-44 -90 -109 -166q-69 -78 -145 -128q-76 -51 -169 -80t-186 -29q-92 0 -164 28q-76 29 -117 76q-42 47 -42 106q0 37 28 64q28 26 65 26q34 0 53 -19t19 -48q0 -22 -12 -36q-13 -15 -33 -15q-25 0 -25 -17q0 -32 53 -64t107 -32
q101 0 203 60q101 60 189 172q67 83 128 206q36 68 108 236q51 120 89 197q30 62 60 105q26 40 67 84q95 101 187 117q29 8 29 16t-9 8q-6 0 -23 -5q-65 -20 -150 -20q-54 0 -85 4l-123 12q-91 8 -150 8q-296 0 -465 -143q-59 -50 -105 -118q-47 -72 -71 -147
q-24 -76 -24 -158q0 -121 56 -197q55 -76 144 -76q94 0 178 100q53 63 84 141q32 78 32 147q0 37 -15 71q-16 34 -42 55q-26 20 -55 20q-41 0 -82 -33q-40 -34 -66 -87q-26 -55 -26 -109q0 -24 14 -41q13 -16 37 -16q26 0 33 28z" />
    <glyph glyph-name="J" unicode="J" horiz-adv-x="1492" 
d="M895 272l-15 -24q-193 -10 -315 -27q-129 -18 -222 -59t-143 -104q-50 -64 -50 -138q0 -27 10 -66q-31 34 -31 82q0 74 58 144q57 69 157 111q98 43 274 62q55 6 92 8q93 6 185 11zM947 313q-172 -7 -280 -16q-88 -7 -156 -21q-121 -19 -220 -70q-96 -49 -149 -120
q-52 -70 -52 -150q0 -84 72 -139q73 -56 178 -56q99 0 205 60q105 58 198 163q65 75 110 154q50 87 94 195zM793 763q9 -16 9 -31q0 -35 -27 -61q-28 -26 -60 -26t-58 27q18 -7 36 -7q43 0 71 27q28 28 29 71zM838 989q-45 -3 -75 -38q-31 -35 -31 -87q0 -6 4 -26
q-23 20 -23 45q0 43 32 84q31 40 65 40q18 0 28 -18zM1285 645l-5 -24l-25 -12q50 242 107 355q83 167 220 218l75 27q36 13 46 49q4 -11 4 -23q0 -37 -56 -55q-82 -26 -125 -53q-40 -25 -87 -86q-49 -66 -81 -147q-30 -77 -73 -249zM1054 967q19 -45 19 -82q0 -77 -39 -164
q-40 -88 -102 -153q-130 -136 -295 -136q-49 0 -85 17q-35 17 -64 56q39 -31 71 -42q33 -11 75 -11q108 0 205 67q98 68 157 176q59 110 59 227q0 30 -1 45zM1337 1194l-26 -20q-112 2 -197 11q-49 5 -62 6t-56 5q-36 3 -63 3q-115 0 -213 -54q-97 -55 -153 -147
q-55 -91 -55 -204q0 -75 35 -150q-31 33 -45 66q-13 32 -13 82q0 90 43 180q44 92 111 147q124 103 289 103q54 0 201 -16q101 -10 204 -12zM1384 504q9 -25 9 -41q0 -35 -24 -67t-67 -57q-46 -27 -104 -43q-39 -116 -94.5 -213t-129.5 -179q-77 -86 -185 -155
q-111 -71 -224 -108q-117 -38 -223 -38q-129 0 -214 77q50 -29 101 -43q46 -13 108 -13q74 0 153 19q86 21 161 56q76 34 151 86q70 48 135 113q160 163 245 423q92 16 145 65q51 46 57 118zM1151 346q-55 -159 -120 -265q-63 -103 -157 -189q-117 -105 -259 -167
q-145 -63 -270 -63q-149 0 -247 86t-98 219q0 102 51 193q51 90 140 146q148 94 415 94q57 0 188 -4q162 -5 184 -5q2 4 19.5 53.5t53.5 151.5q27 74 60 150q28 67 68 145q32 65 65 118q27 45 61 89q47 60 108 98t137 59q30 8 30 17t-12 9q-9 0 -29 -6q-146 -41 -236 -41
q-77 0 -178 12q-129 14 -197 14q-128 0 -239 -63q-110 -62 -175 -170q-65 -109 -65 -233q0 -97 55 -162q56 -66 133 -66q68 0 129 51q61 49 99 133q37 81 37 174q0 52 -25 87q-26 35 -66 35q-54 0 -98 -57q-44 -58 -44 -122q0 -33 16 -55q15 -23 39 -23q20 0 38 27
q8 -27 8 -40q0 -32 -21 -55t-52 -23q-51 0 -81 41q-31 40 -31 108q0 76 36 143q37 69 96 109q61 41 127 41q55 0 94 -27q38 -28 59 -75q21 -49 21 -118q0 -100 -56 -201q-57 -102 -147 -165t-182 -63q-75 0 -137 39q-61 37 -94 108q-33 69 -33 157q0 154 78 290
q37 65 91 121.5t119 96.5q130 82 276 82q57 0 129 -12q63 -10 193 -41q98 -21 201 -21q93 0 156 21q17 6 26 6q16 0 27 -14q9 -13 9 -39q0 -15 -4 -22q-4 -8 -20 -16q-10 -5 -37 -14q-101 -31 -172 -96q-71 -67 -122 -183q-51 -119 -93 -304q-42 -183 -55 -231q51 23 75 50
q25 26 25 57q0 13 -11 29q17 21 40 21q24 0 38 -14q13 -14 13 -39q0 -37 -24 -75q-24 -37 -63 -60q-38 -22 -113 -42z" />
    <glyph glyph-name="K" unicode="K" horiz-adv-x="1631" 
d="M1854 1136q13 -22 13 -44q0 -30 -20 -53q-21 -23 -49 -23q-30 0 -50 29q19 -10 35 -10q31 0 52 23t21 58q0 -2 -2 20zM565 652q10 -19 10 -36q0 -35 -27 -61q-29 -26 -65 -26q-19 0 -36 9q-16 7 -37 30q30 -18 56 -18q84 0 99 102zM652 913q-6 1 -21 1q-43 0 -87 -51
q-43 -50 -43 -102q0 -4 2 -14q1 -2 1 -6q0 -5 -4 -5q-16 0 -16 29q0 57 41 110q40 52 87 52q17 0 40 -14zM627 -58l-12 21q118 100 180 100q18 0 34 -21q-12 3 -20 3q-63 0 -182 -103zM1554 192l13 -20q-51 -90 -104 -134t-112 -44q-24 0 -43 11q-17 10 -42 41
q38 -31 78 -31q55 0 105 43q52 45 105 134zM1453 584q28 -52 28 -94q0 -52 -41 -146l-34 -81q-22 -50 -26 -76q-4 -31 -15 -31t-11 15q0 29 38 116l32 72q41 93 41 160q0 34 -12 65zM1667 1129v-29q-83 -58 -200 -248l-66 -109l-13 -18l-26 1l14 21q8 12 69 116
q114 192 222 266zM1208 1206l-14 -19q-44 1 -172 14q-88 9 -143 9q-264 0 -422 -148q-78 -74 -121 -171q-45 -100 -45 -198q0 -65 27 -151q-48 78 -48 161q0 73 26 151q25 74 72 142q47 67 107 112q78 61 180 92q100 31 223 31q66 0 171 -12q92 -11 159 -13zM876 894
q31 -52 31 -106q0 -114 -68 -229q-66 -114 -175 -187q-108 -72 -217 -72q-94 0 -146 67q70 -43 148 -43q80 0 158 42q78 41 141 111q62 68 100 157q37 86 37 173q0 36 -9 87zM1509 1289q13 -26 13 -44q0 -36 -43 -49l-33 -10q-124 -39 -197 -318q-14 -59 -26 -84
q-10 -22 -30 -36q35 155 73 252q37 98 85 149q46 49 112 69q26 8 36 19q11 11 11 32q0 13 -1 20zM1246 599q-22 -5 -37 -5t-32 5l-8 -28l-27 -98q-49 -166 -100 -272q-52 -111 -131 -212l-11 22q70 90 123 203q54 116 99 271l32 111q1 2 3 7t5 17q9 -6 18 -6q1 0 15 2t18 2
q21 0 33 -19zM1493 285l33 -55q-50 -97 -93 -137q-43 -42 -94 -42q-63 0 -105 48t-42 120q0 44 14 94q15 52 43 109q51 108 51 147q0 35 -24 57q-25 22 -68 25q-31 1 -31 17q0 8 9 14l20 15q45 33 98 144q62 128 97 184q37 58 79 99q112 115 230 115q54 0 88 -27
q34 -28 34 -69q0 -30 -20 -52q-19 -22 -50 -22q-22 0 -40 15q-18 14 -18 34q0 13 13 33q4 7 4 10q0 15 -21 15q-36 0 -83 -37q-43 -34 -86 -85q-45 -53 -90 -125l-73 -123q-29 -49 -77 -98q144 -24 144 -152q0 -48 -13 -91q-11 -38 -52 -128q-31 -69 -42 -107
q-13 -39 -13 -71q0 -47 35 -47q34 0 71 46q38 47 72 127zM597 0l-23 25q107 108 204 269q55 92 76 134q35 68 65 132q37 81 71 165l64 155q65 159 137 249q70 88 174 133q32 15 32 20t-6 5q-4 0 -17 -5q-21 -10 -73 -20q-55 -13 -113 -13q-43 0 -68 4l-109 11q-76 9 -133 9
q-260 0 -431 -135q-102 -82 -157 -197q-56 -118 -56 -243q0 -112 56 -191q55 -79 137 -79q99 0 180 97q56 69 89 150t33 152q0 36 -15 70q-16 33 -42 51q-27 18 -57 18q-41 0 -81 -32q-39 -31 -64 -83q-24 -52 -24 -108q0 -28 13 -44q12 -17 28 -17q23 0 40 29
q13 -25 13 -45q0 -34 -22 -55q-22 -22 -58 -22q-47 0 -77 39q-30 38 -30 99q0 85 43 162q44 78 112 125q69 48 144 48q88 0 144 -62q55 -61 55 -165q0 -119 -59 -229t-154 -178q-97 -68 -199 -68q-125 0 -200 99q-75 98 -75 263q0 94 24 182q24 85 71 165q45 76 113 139
q93 87 202 131q107 43 235 43q76 0 132 -10q72 -13 191 -41q98 -21 156 -21q47 0 114 22q27 9 45 9t31 -11q11 -13 11 -32q0 -35 -40 -47q-98 -27 -159 -115q-35 -49 -65 -131q-30 -79 -70 -231l-57 -219q-39 -161 -94 -287q-53 -121 -128 -222q-16 54 -81 54
q-86 0 -198 -100z" />
    <glyph glyph-name="L" unicode="L" horiz-adv-x="1407" 
d="M1215 1209q-99 -9 -165 -37q-63 -27 -137 -91q-59 -51 -111 -133q-52 -80 -102 -200l-9 -22l-25 -1q32 82 63 143q31 63 63 110q34 48 70 84q72 74 149 113q77 40 152 40q24 0 52 -6zM621 717l-10 -26l23 2l129 8q168 14 252 32q90 18 164 51q95 43 150 118q53 74 53 159
q0 57 -28 100t-81 67q-52 24 -116 24q-170 0 -322 -161q-55 -60 -108 -151.5t-106 -222.5zM1105 173q-19 10 -35 10q-25 0 -47 -11q-20 -11 -28 -29q-5 -11 -9 -11q-11 0 -11 14q0 19 22 37q21 18 45 18q35 0 63 -28zM1011 56q10 -19 10 -30q0 -28 -22 -47q-23 -20 -53 -20
q-36 0 -77 41q35 -21 64 -21q36 0 56 20q21 21 22 57zM144 299q28 -5 39 -5q71 0 82 71q9 -16 9 -28q0 -25 -21 -43q-22 -19 -52 -19q-28 0 -57 24zM370 538l-11 -22q-61 -23 -101 -60q-7 -7 -13 -7q-10 0 -10 9q0 17 46 45q48 28 89 35zM364 -113q-89 69 -145 99
q-53 28 -98 28l-40 -1q-28 0 -45 20q16 -4 20 -4q10 0 25 4q25 4 38 4q56 0 111 -34t134 -116zM622 543q-27 -74 -54 -130q-29 -60 -66 -110q-39 -52 -79 -90q-44 -41 -96 -77l-25 8q62 42 107 83.5t80 90.5q68 93 120 246q24 1 80 1q54 0 74 -1l161 -2q160 0 269 39
q110 39 187 122q57 63 90 141q32 79 32 153q0 28 -6 65q24 -57 24 -101q0 -87 -59 -185t-150 -160q-75 -50 -165 -73t-217 -23q-44 0 -170 3q-28 0 -40 1h-47h-23q-8 -1 -27 -1zM1298 122q29 -53 29 -101q0 -68 -35 -143q-35 -74 -97 -133q-70 -65 -159 -99
q-87 -34 -189 -34q-151 0 -251 89q65 -38 125 -55q54 -16 121 -16q91 0 178 32q84 31 150 90q65 56 103 131q37 73 37 158q0 35 -12 81zM612 607l-31 1q-96 -267 -219 -369q-106 -88 -231 -102q-19 -3 -19 -10q0 -6 12 -6h6q45 3 57 3q96 0 190 -42q96 -44 204 -136
q75 -61 116 -89q43 -29 76 -42q75 -29 143 -29q76 0 140 37q66 37 103 101t37 140q0 75 -42 126t-106 51q-49 0 -84 -32q-36 -33 -36 -77q0 -22 12 -36q11 -14 29 -14q11 0 19 7q4 -12 4 -23q0 -24 -21 -41q-22 -18 -50 -18q-43 0 -74 37q-32 38 -32 87q0 56 30 105
q28 47 80 76q49 28 109 28q64 0 119 -37q56 -37 87 -102q32 -66 32 -141q0 -79 -33 -151q-34 -71 -93 -124q-61 -54 -142 -83q-81 -31 -172 -31q-67 0 -130 20q-60 19 -126 65q-63 44 -141 119q-76 76 -118 113q-37 32 -71 51q-68 37 -128 37q-19 0 -46 -8q-22 -6 -32 -6
q-15 0 -27 15q-13 14 -13 34q0 40 41 49l49 9q97 21 160 65q60 42 101 128q39 84 72 230q-103 -16 -169 -57q-67 -40 -67 -88q0 -13 11 -24t24 -11q5 0 14 3q5 -18 5 -25q0 -26 -21 -44q-20 -19 -50 -19q-35 0 -57 25q-23 26 -23 66q0 97 108 167q68 44 219 81l24 6l6 29
q37 166 89 269q52 101 142 179q92 83 214 131t243 48q99 0 174 -37q77 -38 118 -104q41 -68 41 -154q0 -97 -50 -189q-49 -91 -137 -150q-72 -49 -161 -69q-90 -21 -232 -21q-34 0 -49 1h-78z" />
    <glyph glyph-name="M" unicode="M" horiz-adv-x="2166" 
d="M578 603q6 -24 6 -29q0 -29 -23 -50q-24 -21 -56 -21q-22 0 -36 10q-14 8 -31 33q34 -22 59 -22q68 0 81 79zM930 1223q-8 1 -28 1q-90 0 -205 -47q-115 -48 -191 -118q-84 -75 -134 -186q-49 -110 -49 -226q0 -92 33 -190q-30 46 -42 92q-13 43 -13 105q0 85 29 172
q28 84 83 159q53 74 123 126q78 57 166 89q89 33 163 33q35 0 65 -10zM1754 1114q34 -58 34 -116q0 -27 -4 -47l-30 -32q15 69 15 105q0 38 -15 90zM1251 1067q28 -34 38 -62q10 -27 10 -69v-17l-27 -51q5 42 5 65q0 74 -26 134zM686 870q-4 1 -13 1q-39 0 -77 -44t-47 -103
q-4 -36 -15 -36q-12 0 -12 17q0 26 16 65q15 39 35 66q42 53 82 53q18 0 31 -19zM2088 213l15 -21q-119 -197 -219 -197q-13 0 -28 5q-12 4 -42 26q28 -16 52 -16q106 0 222 203zM908 856q32 -58 32 -109q0 -122 -74 -241q-72 -118 -190 -196q-116 -77 -233 -77
q-57 0 -98 18q-39 16 -70 58q64 -55 169 -55q113 0 225 76t182 197q69 120 69 242q0 36 -12 87zM2157 911q29 -55 29 -118q0 -88 -57 -216q-27 -65 -122 -226q-83 -143 -89 -162q-4 -13 -12 -13q-9 0 -9 8t10 31q11 23 21 42q25 46 71 124q90 150 129 254q39 105 39 192
q0 40 -10 84zM1551 60l-10 -34h-206q-35 0 -51 -10q-19 -11 -32 -39l-14 23q17 27 41 38q23 9 60 9h184l9 29q73 227 135 368q50 120 116 232q64 109 127 186q42 51 52 51q9 0 9 -10q0 -7 -26 -35q-35 -39 -67 -86q-37 -55 -74 -118q-36 -62 -74 -139q-49 -103 -93 -216
q-46 -119 -86 -249zM1126 26h-211q-37 0 -57 -9q-20 -11 -36 -35l-15 17q21 28 41 39q20 9 61 9h195q32 103 71 210q37 102 72 184q69 169 137 308q64 134 125 230q64 103 82 103q7 0 7 -9q0 -5 -23 -37q-43 -57 -97 -155t-116 -230q-46 -97 -88 -201q-45 -113 -80 -211
q-49 -139 -68 -213zM796 38l-15 9l11 31q35 99 73 197q47 120 78 191l86 198q47 109 65 181q20 77 20 142q0 94 -28 157q-28 64 -84 97q-55 33 -136 33q-101 0 -212 -49q-113 -49 -199 -132q-46 -45 -79.5 -93.5t-61.5 -109.5q-52 -117 -52 -233q0 -128 56 -208t145 -80
q112 0 202 129q42 62 69 142q27 81 27 148q0 59 -29 100q-28 40 -72 40q-41 0 -82 -35q-39 -33 -65 -90t-26 -112q0 -27 11 -46q11 -18 26 -18q11 0 26 21q2 -26 2 -24q0 -28 -20 -48q-22 -20 -51 -20q-39 0 -64 34q-26 35 -26 88q0 79 45 158q45 80 117 132q72 51 142 51
q55 0 98 -28t68 -80q24 -52 24 -115q0 -91 -37 -181t-106 -167q-133 -151 -308 -151q-88 0 -155 43q-67 44 -105 120q-37 75 -37 178q0 131 59 260q29 63 69.5 120.5t91.5 107.5q47 47 108.5 88.5t127.5 69.5q132 58 271 58q109 0 195 -49q87 -50 134 -137q48 -88 48 -200
q0 -142 -69 -307l-98 -236l-9 -22l-8 -22q-4 -9 -4 -22q0 -17 17 -17q-1 0 15 2q45 125 134 334q60 142 114 244t105 169q97 130 191 130q50 0 78 -39q29 -40 29 -104q0 -70 -32 -163q-19 -52 -91 -203q-85 -181 -120 -269q-27 -67 -27 -86q0 -7 7 -14q6 -8 13 -8q-1 0 9 2
l10 27q36 86 64.5 151.5t69.5 144.5q74 146 133 227q125 173 225 173q39 0 70 -25q30 -25 49 -71q17 -48 17 -105q0 -145 -121 -356l-75 -130q-87 -151 -87 -198q0 -38 32 -38q54 0 142 175l39 -57q-61 -101 -113 -147t-106 -46q-55 0 -86 43q-33 42 -33 111q0 58 15 113
q12 50 49 126q36 73 93 167q72 116 102 181q29 63 29 108q0 27 -10 43t-28 16q-59 0 -187 -207q-23 -38 -43 -72.5t-57 -106.5q-49 -99 -93 -207q-44 -110 -93 -256l-7 -20h-141q-61 0 -83 -8q-21 -9 -49 -43l-12 9l14 43q49 155 89 257q43 116 91 220q47 105 116 239
q90 177 104 216q11 33 11 58q0 50 -39 50q-33 0 -102 -104q-67 -99 -147 -260q-76 -152 -148 -335q-69 -172 -118 -342h-151q-62 0 -86 -9q-25 -10 -48 -42z" />
    <glyph glyph-name="N" unicode="N" horiz-adv-x="1820" 
d="M930 1223q-8 1 -28 1q-90 0 -205 -47q-115 -48 -191 -118q-84 -75 -134 -186q-49 -110 -49 -226q0 -92 33 -190q-30 46 -42 92q-13 43 -13 105q0 85 29 172q28 84 83 159q53 74 123 126q78 57 166 89q89 33 163 33q35 0 65 -10zM1746 201l15 -21q-119 -197 -219 -197
q-13 0 -28 5q-12 4 -42 26q31 -16 52 -16q106 0 222 203zM1126 26h-211q-37 0 -57 -9q-20 -11 -36 -35l-15 17q21 28 41 39q20 9 61 9h195q37 125 96 277q54 140 122 294q67 149 124 255q45 85 101 163q53 72 70 72q7 0 7 -8q0 -5 -21 -28q-44 -47 -113 -170
q-38 -68 -70.5 -133.5t-68.5 -143.5q-42 -93 -65.5 -149.5t-63.5 -160.5q-59 -159 -96 -289zM578 603q6 -24 6 -29q0 -29 -23 -50q-24 -21 -56 -21q-19 0 -33 9q-13 6 -34 34q34 -22 59 -22q68 0 81 79zM686 870q-4 1 -13 1q-39 0 -77 -44t-47 -103q-4 -36 -15 -36
q-12 0 -12 17q0 26 16 65q15 39 35 66q42 53 82 53q18 0 31 -19zM1815 1053q36 -54 36 -116q0 -106 -58 -256q-14 -35 -32 -69q-5 -10 -15 -29.5t-26 -51t-26 -50.5q-70 -132 -102 -212q-11 -31 -17 -69q-3 -28 -12 -28t-9 26q0 63 80 218l71 135q69 131 98 223
q28 90 28 180q0 45 -16 99zM1251 1067q28 -34 38 -62q10 -27 10 -69v-17l-27 -51q5 42 5 65q0 74 -26 134zM908 856q32 -58 32 -109q0 -122 -74 -241q-72 -118 -190 -196q-116 -77 -233 -77q-57 0 -98 18q-39 16 -70 58q64 -55 169 -55q113 0 225 76t182 197q69 120 69 242
q0 36 -12 87zM796 38l-15 9q27 84 50 145q54 143 112 274l86 198q47 109 65 181q20 77 20 142q0 94 -28 157q-28 64 -84 97q-55 33 -136 33q-101 0 -212 -49q-113 -49 -199 -132q-46 -45 -79.5 -93.5t-61.5 -109.5q-52 -117 -52 -233q0 -128 56 -208t145 -80q112 0 202 129
q42 62 69 142q27 81 27 148q0 59 -29 100q-28 40 -72 40q-41 0 -82 -35q-39 -33 -65 -90t-26 -112q0 -27 11 -46q11 -18 26 -18q11 0 26 21q2 -26 2 -24q0 -28 -20 -48q-22 -20 -51 -20q-39 0 -64 34q-26 35 -26 88q0 79 45 158q45 80 117 132q72 51 142 51q55 0 98 -28
t68 -80q24 -52 24 -115q0 -91 -37 -181t-106 -167q-133 -151 -308 -151q-88 0 -155 43q-67 44 -105 120q-37 75 -37 178q0 131 59 260q29 63 69.5 120.5t91.5 107.5q47 47 108.5 88.5t127.5 69.5q132 58 271 58q109 0 195 -49q87 -50 134 -137q48 -88 48 -200
q0 -142 -69 -307l-98 -236l-9 -22l-8 -22q-4 -9 -4 -22q0 -17 17 -17q-1 0 15 2q22 63 77 199q72 175 110 257q46 99 85 164q40 70 80 125q100 136 206 136q45 0 80 -29q33 -27 53 -83q19 -54 19 -123q0 -127 -70 -292q-31 -75 -107 -217q-57 -108 -81 -174
q-25 -65 -25 -118q0 -23 10 -39q11 -17 24 -17q20 0 64 56q45 57 77 120l35 -61q-49 -90 -106 -141q-56 -50 -105 -50q-58 0 -92 55q-35 56 -35 141q0 187 162 470q83 145 104 199q27 72 27 136q0 90 -57 90q-44 0 -100 -72q-58 -75 -143 -238q-57 -111 -114 -241
q-54 -124 -103 -257q-44 -116 -79 -239h-151q-62 0 -86 -9q-25 -10 -48 -42z" />
    <glyph glyph-name="O" unicode="O" horiz-adv-x="1551" 
d="M1022 466q4 -17 4 -30q0 -39 -25 -63q-25 -25 -66 -25q-38 0 -69 29q37 -14 59 -14q44 0 69 27q25 26 28 76zM1041 850l-33 -4q118 145 222 145q30 0 61 -21q-30 2 -42 2q-54 0 -107 -31q-52 -30 -101 -91zM1335 738l-8 -31q-149 -85 -350 -85q-35 0 -46 1q-1 -5 -1 -20
q1 -4 1.5 -11t0.5 -13q1 -4 1 -7.5v-4.5q0 -9 -9 -9q-18 0 -18 50q0 15 4 32q110 4 189 14q71 9 126 29q52 19 110 55zM1357 1206q-46 9 -80 9q-150 0 -308 -116q-159 -117 -253 -295l-27 -8q58 122 153 223q94 100 205 157q110 57 212 57q52 0 98 -27zM736 633v-18l-97 -9
q-14 -45 -21 -100q-8 -59 -8 -96q0 -108 69 -197q-31 19 -52 48t-30 66q-10 36 -10 85q0 102 37 213zM932 801q148 16 247 47q95 29 190 89q-22 51 -51 74q-28 22 -72 22q-169 0 -314 -232zM624 754l198 31q58 105 139 188q80 80 167 123q86 43 171 43q93 0 155 -61
q4 19 4 34q0 47 -24 84q-23 36 -68 58q-45 20 -102 20q-118 0 -241 -66q-124 -67 -229 -186t-170 -268zM789 678l-197 -14q-44 -132 -44 -234q0 -91 31 -157q32 -69 89 -104q56 -37 134 -37q138 0 272 101q133 100 222 263q86 161 94 334q-87 -75 -180 -106q-36 -13 -68 -19
q-24 -6 -102 -14q-58 -6 -164 -13q-8 -43 -8 -70q0 -99 56 -99q30 0 42 33q33 -25 33 -54q0 -35 -28 -62t-66 -27q-54 0 -92 53t-38 128q0 39 14 98zM309 215q14 -30 14 -50q0 -48 -34 -79q-35 -32 -87 -32q-56 0 -90 49q42 -30 81 -30q50 0 85 32t35 77q0 16 -4 33z
M322 555v-28q-70 -42 -111 -102q-41 -62 -41 -123q0 -9 3 -36q-17 23 -17 58q0 137 166 231zM1549 1155q31 -40 31 -94t-33 -120q38 -62 38 -132q0 -79 -30 -174q-29 -90 -86 -191q-55 -95 -129 -176q-123 -135 -274 -208q-150 -73 -305 -73q-78 0 -129 23q-51 22 -92 76
q46 -40 101 -58q54 -19 128 -19q142 0 286 70q145 70 259 193q110 118 181 271q70 152 70 276q0 64 -33 137q27 59 27 113q0 36 -10 86zM405 709q44 118 122 227q77 106 188 199q254 211 542 211q126 0 199 -61t73 -165q0 -54 -26 -121q26 -75 26 -132q0 -151 -76 -316
q-76 -166 -202 -287q-49 -47 -109 -88q-54 -36 -124 -66q-67 -30 -131 -45t-127 -15q-108 0 -200 59q-91 58 -143 158q-53 101 -53 222q0 53 17 132q-123 -47 -192 -128q-72 -82 -72 -172q0 -43 20 -72t51 -29q51 0 51 55q55 -15 55 -65q0 -41 -34 -68q-34 -28 -81 -28
q-64 0 -108 51q-44 50 -44 128q0 88 48 173q47 85 132 146q88 63 198 97z" />
    <glyph glyph-name="P" unicode="P" horiz-adv-x="1646" 
d="M1328 1030l12 -22q-36 -81 -73 -230q-53 -218 -85 -316l-21 4q27 94 86 330q36 152 81 234zM1111 445q57 -23 90 -23q65 0 117 48q53 47 83 131q30 83 30 184q0 181 -102 328q-44 -80 -67 -136q-22 -55 -48 -156q-66 -262 -103 -376zM875 41q-109 -5 -203 -99l-14 20
q98 95 176 95q21 0 41 -16zM1485 1172l-14 16q16 10 24 10q10 0 10 -10q0 -5 -20 -16zM1668 1229q12 -31 12 -48q0 -25 -18 -42q-19 -17 -41 -17q-27 0 -56 30q24 -12 40 -12q58 0 63 89zM576 589q1 -5 1 -20q0 -29 -20 -49q-19 -19 -49 -19q-32 0 -58 29q27 -8 46 -8
q33 0 49 15q17 14 31 52zM686 867q-102 0 -137 -149q-11 -41 -17 -41q-11 0 -11 15q0 18 12 55q10 37 24 58q20 34 48 56q29 23 52 23q15 0 29 -17zM909 847q30 -67 30 -119q0 -83 -48 -182q-48 -100 -127 -176q-148 -144 -321 -144q-41 0 -71 8q-32 8 -55 26q-25 16 -49 44
q80 -56 168 -56q118 0 230 75q114 75 184 192q70 118 70 239q0 41 -11 93zM1137 1197q-117 15 -191 15q-273 0 -437 -159q-55 -52 -96 -121q-43 -69 -64 -144t-21 -155q0 -108 39 -192q-35 47 -48 88q-13 40 -13 109q0 122 54 242q54 121 145 204q76 69 191 110
q111 40 234 40q108 0 207 -37zM1621 934q27 -53 38 -88q11 -42 11 -88q0 -90 -35 -180q-36 -88 -98 -155q-129 -140 -339 -140q-31 0 -76 5q-30 -79 -47 -113q-23 -50 -51 -92q-27 -42 -66 -94l-15 22q47 56 89 130q38 69 78 170q49 -7 87 -7q167 0 283 98q49 40 88 103
q39 61 60 131q20 71 20 140q0 65 -27 158zM642 -6l-24 30q87 92 147 174q64 90 115 191q50 98 140 304l69 159q44 104 84 167q41 65 106 142q-75 63 -152 88q-80 26 -187 26q-335 0 -519 -220q-75 -90 -117 -201q-43 -111 -43 -221q0 -121 55 -197q54 -76 140 -76
q57 0 111 33q54 32 98 89q42 55 68 130q24 72 24 147t-27 121q-28 46 -74 46q-62 0 -118 -81q-54 -85 -54 -160q0 -57 35 -57q15 0 25 16q8 -18 8 -28q0 -27 -21 -47q-23 -20 -52 -20q-40 0 -64 32q-25 31 -25 81q0 84 44 167q43 81 115 135q71 51 140 51q57 0 103 -29
q44 -28 69 -81q24 -52 24 -118q0 -95 -37 -182q-37 -89 -103 -161q-65 -71 -148 -112q-82 -42 -169 -42q-125 0 -208 95t-83 237q0 148 63 281t177 235t261 159q148 56 309 56q129 0 235 -30q109 -31 184 -88q50 36 94 53q45 18 95 18q40 0 65 -19q24 -19 24 -49
q0 -28 -19 -47t-48 -19q-16 0 -36 12q12 8 12 19q0 15 -15 25q-14 10 -37 10q-38 0 -91 -35q97 -79 150 -185q51 -105 51 -223q0 -126 -55 -229q-57 -106 -149 -163q-95 -59 -213 -59q-53 0 -112 13q-36 -100 -74 -175q-40 -75 -89 -138q-24 59 -80 59q-39 0 -92 -29
q-51 -28 -105 -80z" />
    <glyph glyph-name="Q" unicode="Q" horiz-adv-x="1551" 
d="M1022 466q4 -17 4 -30q0 -39 -25 -63q-25 -25 -66 -25q-38 0 -69 29q37 -14 59 -14q44 0 69 27q25 26 28 76zM1041 850l-33 -4q118 145 222 145q30 0 61 -21q-30 2 -42 2q-54 0 -107 -31q-52 -30 -101 -91zM1335 738l-8 -31q-151 -85 -355 -85q-29 0 -41 1q-2 -22 -2 -23
q0 -4 1 -6v-7q3 -13 3 -20q0 -9 -9 -9q-18 0 -18 50q0 15 4 32l25 1q157 6 240 26q80 20 160 71zM1357 1206q-46 9 -80 9q-150 0 -308 -116q-159 -117 -253 -295l-27 -8q58 122 153 223q94 100 205 157q110 57 212 57q52 0 98 -27zM736 633v-18l-97 -9q-14 -45 -21 -100
q-8 -59 -8 -96q0 -108 69 -197q-31 19 -52 48t-30 66q-10 36 -10 85q0 102 37 213zM933 801q145 16 245 47q97 30 191 89q-22 51 -51 74q-28 22 -72 22q-171 0 -313 -232zM624 754l30 5q10 2 20 3.5t19 2.5q7 1 17 3t13 2l69 10l31 5q56 104 137 187q79 80 168 124
q86 43 171 43q93 0 155 -61q4 19 4 34q0 47 -24 84q-23 36 -68 58q-45 20 -102 20q-118 0 -241 -66q-124 -67 -229 -186t-170 -268zM616 666l-24 -2q-44 -132 -44 -234q0 -91 31 -157q32 -69 89 -104q56 -37 134 -37q138 0 272 101q133 100 222 263q86 161 94 334
q-87 -75 -180 -106q-67 -23 -151 -32q-16 -1 -40 -3t-38 -4q-9 0 -19 -0.5t-15 -1.5q-16 -2 -43 -3l-28 -2q-8 -43 -8 -70q0 -99 56 -99q30 0 42 33q33 -25 33 -54q0 -35 -28 -62t-66 -27q-54 0 -92 53t-38 128q0 39 14 98l-23 -2q-125 -8 -150 -10zM309 215q14 -30 14 -50
q0 -48 -34 -79q-35 -32 -87 -32q-56 0 -90 49q42 -30 81 -30q50 0 85 32t35 77q0 16 -4 33zM322 555v-28q-70 -42 -111 -102q-41 -62 -41 -123q0 -9 3 -36q-17 23 -17 58q0 137 166 231zM1549 1155q30 -40 30 -93q0 -59 -32 -121q38 -62 38 -132q0 -90 -44 -213
q-45 -121 -114 -219q-132 -187 -306 -288q-176 -101 -361 -101q-17 0 -45 2l-45 25q50 -6 90 -6q72 0 145 17q74 17 147 53q81 38 139 82q62 47 123 111q110 118 181 271q70 152 70 276q0 64 -33 137q27 57 27 114q0 35 -10 85zM405 709q44 118 122 227q77 106 188 199
q254 211 542 211q126 0 199 -61t73 -165q0 -54 -26 -121q26 -75 26 -132q0 -150 -76 -315q-76 -166 -201 -288q-100 -97 -235 -156q-132 -58 -257 -58q-109 0 -200 59q-91 58 -143 158q-53 101 -53 222q0 53 17 132q-123 -47 -192 -128q-72 -82 -72 -172q0 -44 20 -73
q19 -28 51 -28q51 0 51 55q55 -15 55 -65q0 -41 -34 -68q-34 -28 -81 -28q-64 0 -108 51q-44 50 -44 128q0 88 48 173q47 85 132 146q88 63 198 97zM1372 -70q-6 7 -6 15q0 17 19 17q13 0 24 -17q-14 2 -13 2q-15 0 -24 -17zM313 -100q2 48 47 48q38 0 69 -27q-29 7 -50 7
q-45 0 -66 -28zM1368 -119q5 -20 5 -24q0 -22 -17 -37q-16 -16 -42 -16q-33 0 -54 33q26 -14 45 -14q57 0 63 58zM1549 -65q26 -41 26 -80q0 -63 -41 -130q-43 -67 -114 -119q-70 -53 -161 -85q-90 -32 -176 -32q-69 0 -125 18t-124 63q66 -32 119 -46q54 -14 113 -14
q95 0 182 31q89 32 157 82q68 52 110 117q42 66 42 133q0 19 -8 62zM282 -50q-23 14 -23 36q0 36 40 58t102 22q195 0 410 -203q70 -65 98 -87q28 -23 69 -47q95 -53 185 -53q75 0 144 32q65 31 107 86q39 54 39 114q0 40 -21 69q-22 28 -55 28q-22 0 -39 -20t-17 -45
q0 -24 22 -33q-9 -47 -56 -47q-37 0 -59 28q-24 27 -24 67q0 55 45 94q44 39 108 39q74 0 123 -51q49 -52 49 -126q0 -57 -30 -118q-29 -60 -86 -112q-141 -129 -359 -129q-68 0 -126 16q-62 17 -119 53q-60 37 -115 89t-132 144q-62 76 -105 103q-46 28 -103 28
q-51 0 -72 -35z" />
    <glyph glyph-name="R" unicode="R" horiz-adv-x="1602" 
d="M1322 1038l8 -36q-56 -139 -74 -246l-25 -10q28 153 91 292zM1184 725l-6 -25q77 8 128 51q40 34 62 84q23 52 23 102q0 92 -67 183q-39 -63 -70 -147q-28 -77 -70 -248zM875 44q-109 -4 -203 -100l-14 21q98 95 176 95q19 0 41 -16zM1484 1178l-20 17l10 2q9 3 14 3
q15 0 15 -9t-19 -13zM1662 1229q12 -24 12 -40q0 -27 -17 -44q-18 -18 -44 -18q-12 0 -20 3q-11 5 -35 19q22 -5 33 -5q32 0 52 19q20 18 20 48q0 13 -1 18zM582 592q6 -24 6 -31q0 -26 -21 -44q-20 -19 -53 -19q-35 0 -63 28q29 -13 52 -13q36 0 58 22q21 21 21 57z
M689 876q-59 -9 -95 -53t-41 -114l-2 -22q0 -16 -11 -16t-11 22q0 49 19 91q18 44 49 72t62 28q12 0 30 -8zM1561 1018q36 -67 36 -125q0 -81 -51 -146q-51 -64 -141 -96l-18 18q91 31 142 99q50 67 50 153q0 43 -18 97zM1547 195l14 -26q-100 -174 -218 -174q-52 0 -96 44
q52 -26 82 -26q58 0 116 47q56 47 102 135zM1468 509q17 -42 17 -66q0 -55 -54 -171l-28 -59l-18 -41q-11 -17 -18 -17q-6 0 -6 8q0 13 17 47q45 96 74 177q19 54 19 89q0 17 -3 33zM956 -9l-10 25q79 104 146 268q31 73 54 146q24 75 41 146q12 3 19 3q19 0 44 -28l-45 6
q-11 -55 -36 -134q-26 -82 -54 -149q-71 -175 -159 -283zM920 833q17 -54 17 -100q0 -85 -41 -176q-41 -89 -113 -166q-70 -75 -156 -120q-85 -45 -169 -45q-58 0 -100 19t-83 63q47 -31 84 -45q39 -14 86 -14q116 0 228 78q110 76 181 200q69 123 69 253q0 16 -3 53z
M1081 1218q-60 3 -91 3q-293 0 -478 -160q-88 -76 -138 -189q-50 -114 -50 -237q0 -93 30 -176q-51 86 -51 198q0 132 64 254q63 122 168 197q86 62 189 96q102 34 205 34q61 0 152 -20zM629 1l-19 22q50 52 99.5 116t99.5 144q58 94 98 172q39 77 93 207l56 136
q56 134 104 217q49 84 113 154q-139 108 -346 108q-180 0 -333 -84q-153 -83 -242 -228q-88 -143 -88 -318q0 -88 24 -151q24 -64 69 -99q46 -35 104 -35q72 0 143 62q69 60 113 160q43 98 43 206q0 66 -25 103t-70 37q-67 0 -121 -73q-55 -73 -55 -163q0 -66 38 -66
q17 0 28 20q6 -13 6 -27q0 -32 -22 -51q-22 -21 -55 -21q-42 0 -67 34q-26 34 -26 89q0 87 46 167q47 81 120 132q74 50 150 50q81 0 132 -62q51 -61 51 -160q0 -67 -24 -139q-25 -74 -67 -141q-44 -70 -99 -119q-121 -112 -257 -112q-134 0 -220 99q-86 98 -86 251
q0 139 63 272q63 134 174 233q114 102 265 157q150 55 316 55q221 0 406 -113q100 67 186 67q43 0 68 -18q25 -19 25 -52q0 -28 -18 -45q-19 -18 -48 -18q-24 0 -46 13q17 8 17 18q0 14 -13 24t-31 10q-41 0 -95 -30q71 -70 105 -134q33 -64 33 -136q0 -75 -41 -139
q-40 -62 -109 -90q-60 -25 -156 -33l-7 -23q34 2 29 2q81 0 132 -42q50 -44 50 -112q0 -64 -68 -211q-38 -85 -43 -99q-9 -22 -9 -43q0 -36 27 -36q63 0 141 166l31 -51q-43 -89 -94 -131q-52 -45 -112 -45q-61 0 -97 40q-37 38 -37 104q0 38 9 66q8 26 45 101q41 79 51 106
q11 30 11 50q0 45 -28 70t-77 25q-1 0 -35 -2q-29 -114 -65 -222q-36 -102 -78 -186q-42 -82 -96 -158q-31 52 -83 52q-40 0 -84 -21q-45 -23 -122 -78z" />
    <glyph glyph-name="S" unicode="S" horiz-adv-x="1215" 
d="M756 417l3 -22l-25 -4q-179 -28 -236 -41q-75 -17 -125 -40q-97 -42 -150 -110q-53 -70 -53 -152q0 -23 6 -61q-26 44 -26 85q0 75 52 142q53 67 141 107q72 35 190 59q75 15 200 34zM786 463l-29 -5l-158 -27q-78 -14 -156 -34q-63 -18 -113 -41q-48 -22 -90 -56
q-129 -102 -129 -229q0 -91 67 -148q65 -58 171 -58q88 0 178 48q89 48 161 134q53 62 83 142t30 163q0 47 -15 111zM1089 971q-9 12 -9 21q0 19 10 32t25 13q6 0 16 -6q-31 -25 -42 -60zM1208 1112q11 -28 11 -39q0 -16 -11 -30q-10 -13 -27 -13q-13 0 -29 13h7q23 0 35 15
q11 16 14 54zM1221 1218q-40 13 -73 13q-73 0 -138 -42q-63 -41 -101 -115q-37 -73 -37 -158q0 -17 1 -24q-12 50 -12 79q0 55 24 106q23 50 62 89q41 39 89 61t103 22q51 0 82 -31zM1404 1174q19 -42 19 -88q0 -70 -39 -138q-40 -67 -103 -109q-64 -42 -130 -42
q-32 0 -58 12t-61 42q58 -31 108 -31q72 0 133 42q61 40 97 111t36 153q0 20 -2 48zM1141 708q9 -30 9 -52q0 -50 -28 -88q-27 -38 -104 -89q25 -60 25 -124q0 -117 -57 -231q-56 -112 -155 -208q-95 -92 -220 -149q-120 -55 -240 -55q-70 0 -122 20q-51 19 -102 67
q65 -37 112 -49q51 -15 108 -15q117 0 234 55q119 56 215 149q97 94 152 208q56 115 56 226q0 55 -20 129q70 36 103 82q35 47 35 105q0 14 -1 19zM763 549l-12 32q-13 36 -39 102q-29 78 -40 126q-11 44 -11 89q0 91 39 176q37 84 104 151q67 65 155 104q90 38 178 38
q109 0 173 -58q63 -58 63 -163q0 -81 -34 -146q-35 -68 -92 -104q-59 -38 -129 -38q-71 0 -114 37q-43 36 -43 97q0 49 23 93q22 43 59 71q35 28 73 28q31 0 48 -17t17 -46q0 -46 -40 -56q-3 29 -26 29q-26 0 -50 -33q-25 -32 -25 -69q0 -25 19 -44t43 -19q42 0 85 34
q41 32 70 87q28 52 28 105q0 62 -38 100q-38 37 -103 37q-66 0 -123 -25q-58 -25 -103 -70q-47 -45 -72 -103q-27 -58 -27 -120q0 -36 6 -62q4 -24 23 -66q17 -40 54 -114q27 -53 55 -120q35 17 55 41q19 22 19 47q0 23 -26 46q18 38 50 38q29 0 47 -20q17 -22 17 -51
q0 -105 -139 -177q13 -65 13 -118q0 -128 -54 -245q-55 -118 -157 -214q-194 -184 -416 -184q-102 0 -185 42q-84 42 -132 117q-49 73 -49 162t50 178q50 90 131 147q70 51 157 74q87 24 247 36q103 8 178 18z" />
    <glyph glyph-name="T" unicode="T" horiz-adv-x="1547" 
d="M1475 1204l-23 10q55 32 102 32q26 0 42 -6t16 -16q0 -4 -2 -10q-24 9 -49 9q-38 0 -86 -19zM1380 1214q85 -55 175 -55q47 0 78 18q30 17 30 45q0 29 -26 47q-28 17 -74 17q-78 0 -183 -72zM571 651q9 -22 9 -38q0 -35 -26 -61q-28 -26 -62 -26q-38 0 -67 36
q35 -18 58 -18q33 0 62 29q27 29 27 62v9q-1 2 -1 7zM626 -55l-11 21q109 94 172 94q17 0 40 -14q-51 -3 -90 -22q-42 -20 -94 -65zM652 913q-56 -1 -100 -54q-47 -59 -47 -119v-20q-18 12 -18 38q0 35 20 75q19 37 52 65q32 27 61 27q13 0 32 -12zM916 -9l-11 21
q84 110 156 285q71 176 135 430l35 138q32 128 87 219q125 -45 215 -45q100 0 164 48t65 127q10 -21 10 -40q0 -68 -70 -114q-71 -47 -169 -47q-41 0 -86 8q-42 7 -118 33q-47 -74 -82 -213l-33 -137q-66 -264 -144 -450q-60 -144 -154 -263zM878 877q29 -64 29 -115
q0 -77 -40 -161q-40 -86 -109 -158q-60 -66 -145 -106q-83 -40 -161 -40q-93 0 -147 68q68 -45 145 -45q107 0 209 69t167 179q64 109 64 224q0 39 -12 85zM1158 1133l-14 -17q-110 40 -197 60q-85 19 -154 19q-191 0 -330 -133q-80 -77 -123 -176q-45 -100 -45 -207
q0 -55 15 -123q-36 75 -36 142q0 95 42 194q42 96 113 174q45 48 101 81q60 35 120 53q63 17 127 17q60 0 120 -10q58 -10 129 -29q66 -19 132 -45zM1300 1130q-37 -56 -61 -115q-22 -49 -34 -94q-6 -20 -41 -150q-49 -192 -93 -324q-43 -132 -90 -228q-47 -99 -101 -173
q-49 58 -95 58q-58 0 -195 -104l-19 29q54 45 104 109q49 62 115 172q80 132 142 265q17 34 82 191q59 145 97 215q38 73 98 156l15 20l-26 9q-164 56 -223 69q-106 23 -184 23q-256 0 -416 -193q-66 -78 -103 -175q-37 -95 -37 -186q0 -116 59 -196t143 -80q41 0 87 25
q47 26 79 65q56 67 92 153q35 87 35 156q0 61 -31 98t-81 37q-65 0 -120 -73t-55 -161q0 -58 44 -58q13 0 20 7q7 8 11 27q27 -13 27 -40q0 -34 -25 -58q-25 -25 -60 -25q-45 0 -74 38q-30 38 -30 96q0 85 43 164q44 80 112 129q68 50 139 50q55 0 104 -29q48 -31 74 -82
q27 -52 27 -116q0 -118 -58 -225q-57 -107 -154 -176q-97 -68 -199 -68q-127 0 -203 97q-77 97 -77 260q0 179 90 335q88 154 242 246q151 91 328 91q111 0 222 -32q109 -33 266 -112q121 100 257 100q73 0 119 -34q47 -35 47 -88q0 -38 -27 -71q-29 -35 -73 -54
q-46 -20 -97 -20q-46 0 -99 12q-49 9 -139 38z" />
    <glyph glyph-name="U" unicode="U" horiz-adv-x="1781" 
d="M688 873q-45 -4 -66 -18q-24 -15 -45 -51q-22 -37 -26 -74l-4 -27q-3 -15 -12 -15q-10 0 -10 13q0 68 42 126q42 59 89 59q16 0 32 -13zM581 595q2 -12 2 -22q0 -27 -21 -47q-22 -20 -49 -20q-35 0 -71 37q29 -18 54 -18q63 0 85 70zM1729 230l16 -21
q-127 -217 -242 -217q-39 0 -65 32q30 -14 52 -14q59 0 114 52q53 49 125 168zM1319 231l-1 -47q-127 -192 -280 -192q-39 0 -65 12q-25 12 -55 43q53 -33 114 -33q154 0 287 217zM1096 1195q-85 19 -156 19q-133 0 -248 -44q-116 -45 -198 -127q-84 -82 -129 -197
q-46 -113 -46 -248q0 -45 11 -97q-13 28 -19 52q-7 23 -8 42q-3 21 -3 47q0 136 65 264q64 125 174 205q77 56 183 91q104 33 202 33q53 0 95 -9q44 -11 77 -31zM918 836q23 -61 23 -99q0 -74 -48 -175q-51 -103 -122 -180q-63 -69 -150 -109q-88 -42 -172 -42
q-106 0 -185 85q51 -33 96 -49q44 -15 92 -15q91 0 185 55q93 53 160 143q37 49 68 110q27 53 43 113q15 56 15 106q0 22 -5 57zM1919 1175l19 -23q-37 -112 -62 -173q-64 -166 -141 -327l-104 -221q-61 -127 -95 -244q-6 -21 -16 -21t-10 13q0 8 8 38q41 125 93 236l78 166
q154 330 230 556zM1361 1068q34 -64 34 -138q0 -79 -40 -181q-41 -107 -106 -198l-102 -141q-66 -90 -88 -135t-26 -100q-12 26 -12 43q0 30 24 76q23 45 78 121l81 111q172 232 172 423q0 44 -15 119zM1666 332l40 -69q-58 -92 -93 -134q-37 -44 -67 -63q-31 -19 -65 -19
q-51 0 -85 40q-34 38 -34 99q0 69 51 198q8 20 48 117q32 77 70 159l58 128q76 167 76 187q0 21 -20 21q-5 0 -7 -1l-255 -561q-58 -128 -119 -217q-57 -84 -120 -125q-62 -41 -129 -41q-78 0 -129 59q-52 58 -52 148q0 113 76 246q46 83 151 213q83 105 118 170
q43 85 43 158q0 69 -36 123q-36 52 -104 81q-66 28 -159 28q-123 0 -242 -46q-121 -46 -216 -131q-51 -45 -85 -91t-63 -110q-58 -138 -58 -261q0 -76 26 -139q25 -62 71 -99q45 -36 101 -36q75 0 145 61q72 61 115 159q44 99 44 198q0 66 -28 106q-28 39 -76 39
q-42 0 -82 -34q-41 -35 -66 -88q-26 -57 -26 -110q0 -27 12 -47q12 -19 29 -19q13 0 21 20q9 -22 9 -31q0 -27 -20 -45q-19 -19 -51 -19q-41 0 -67 36q-26 37 -26 92q0 82 45 160t118 127t147 49q51 0 94 -27q42 -27 66 -73q23 -48 23 -109q0 -59 -17 -125q-17 -62 -50 -126
q-31 -61 -74 -113q-59 -71 -137 -110q-79 -39 -163 -39q-137 0 -221 94q-84 95 -84 250q0 143 63 273q64 132 174 229q113 99 257 154t306 55q92 0 168 -26q74 -25 126 -75q51 -48 80 -120q27 -70 27 -162q0 -101 -39 -199q-41 -99 -130 -222l-94 -130q-95 -131 -95 -207
q0 -32 18 -55q18 -22 47 -22q102 0 243 272q64 129 165 347q12 26 20.5 44t20.5 45q23 53 54 123q14 32 37.5 85.5t33 76t12.5 29.5l15 36h122q43 0 64 7t50 30l13 -18l-12 -29q-55 -140 -109 -270q-76 -181 -144 -330l-62 -135q-52 -117 -74 -182q-23 -69 -23 -99
q0 -42 28 -42t73 56q46 59 94 153z" />
    <glyph glyph-name="V" unicode="V" horiz-adv-x="1734" 
d="M621 912q-58 -3 -93 -47q-36 -44 -44 -124q-1 -15 -10 -15q-10 0 -10 24q0 61 43 119q42 57 85 57q15 0 29 -14zM1635 1017q13 -7 26 -7q15 0 25 7q-9 -27 -20 -27q-13 0 -31 27zM540 656q8 -19 8 -36q0 -35 -27 -61q-26 -25 -64 -25q-43 0 -68 40q29 -22 60 -22
q37 0 65 28q27 27 27 66q0 7 -1 10zM1296 1198l-33 -25q-95 6 -171 14l-126 15q-53 7 -120 7q-147 0 -272 -57t-200 -159q-55 -75 -81.5 -170.5t-28.5 -218.5q-11 50 -11 92q0 150 78 273q39 61 92.5 110t119.5 83q136 71 296 71q74 0 158 -9q20 -2 32 -3q7 0 23.5 -2.5
t25.5 -4.5q19 -2 29 -3q12 -2 25 -3q90 -11 136 -11q18 0 28 1zM855 871q24 -57 24 -104q0 -48 -16 -100q-16 -54 -48 -108q-31 -55 -69 -96q-70 -79 -151 -119q-82 -42 -170 -42q-54 0 -87 16q-36 15 -62 50q62 -49 143 -49q78 0 159 42q80 41 144 111q65 71 102 155
q38 87 38 172q0 37 -7 72zM1821 1090q18 -45 18 -87q0 -141 -128 -415q-69 -149 -142 -259q-74 -112 -153 -188q-81 -78 -160 -116q-82 -39 -165 -39q-84 0 -135 56q67 -35 133 -35q136 0 278 123q141 123 262 346q56 104 97 203q43 104 72 206q26 93 26 157q0 24 -3 48z
M1588 1266q7 -21 7 -34q0 -15 -8 -23q-8 -10 -33 -23q-113 -61 -220 -222q-37 -56 -68 -115.5t-55 -115t-53 -140.5q-69 -208 -80 -406q-9 51 -9 91q0 68 21 162q21 95 61 203t90 205q132 254 284 347l29 18q32 19 34 53zM506 703q11 -24 11 -37q0 -32 -23 -55
q-24 -24 -56 -24q-44 0 -74 36q-31 35 -31 91q0 88 42 169t112 130q71 48 148 48q84 0 140 -65q55 -64 55 -167q0 -85 -35 -172q-34 -85 -94 -151t-136 -105q-76 -40 -157 -40q-114 0 -192 99q-79 97 -79 242q0 91 26 187q25 90 73 174q47 82 111 140q196 181 443 181
q93 0 295 -44q175 -40 251 -40q71 0 141 21q31 10 52 10q18 0 28 -13q11 -14 11 -31q0 -26 -21 -37l-38 -20q-106 -57 -220 -228q-115 -175 -188 -382q-74 -211 -74 -369q0 -62 22 -97q21 -36 57 -36q51 0 118 43q68 44 135 120q54 60 108 145q57 89 102 181q45 95 81 195
q58 159 58 231q0 24 -13 24q-4 0 -8 -2l-17 -9q-9 -4 -17 -4q-21 0 -36 22q-16 20 -16 51q0 39 28 68q27 29 65 29q28 0 51 -17q22 -16 34 -48q12 -31 12 -73q0 -60 -23 -152q-22 -89 -63 -190q-39 -96 -90 -197q-47 -92 -109 -183q-213 -307 -425 -307q-109 0 -167 67
q-59 68 -59 187q0 120 38 251q39 131 109 253q68 120 175 238q68 75 145 131q77 58 139 82q21 9 21 15q0 8 -8 8q-4 0 -16 -5q-35 -16 -91 -26q-61 -11 -108 -11q-51 0 -226 22q-115 15 -198 15q-131 0 -253 -48t-204 -133q-79 -82 -121 -181q-44 -103 -44 -208
q0 -118 54 -195q54 -76 137 -76q68 0 139 59q70 58 117 151q45 92 45 179q0 62 -31 103q-32 41 -79 41q-62 0 -118 -69q-56 -71 -56 -151q0 -28 14 -47q14 -18 34 -18q21 0 37 24z" />
    <glyph glyph-name="W" unicode="W" horiz-adv-x="2145" 
d="M624 909q-16 3 -22 3q-39 0 -74 -44q-34 -44 -43 -112l-2 -16q-1 -15 -9 -15q-10 0 -10 17q0 66 41 127q41 59 87 59q20 0 32 -19zM2047 1017q13 -7 30 -7q1 0 4.5 1t7.5 1q-4 -22 -15 -22q-9 0 -27 27zM545 641q6 -22 6 -32q0 -35 -25 -59t-62 -24q-21 0 -36 9
q-15 8 -33 33q29 -20 57 -20q39 0 65 26q25 25 28 67zM1331 332l2 -58q-46 -136 -116 -210q-69 -73 -152 -73q-52 0 -94 45q38 -24 77 -24q176 0 283 320zM2220 1137q31 -61 31 -117q0 -86 -40 -209q-39 -121 -118 -284q-93 -191 -175 -307t-162 -175t-157 -59
q-54 0 -113 49q60 -27 108 -27q94 0 189 91q96 91 208 287q76 134 128 255q53 125 84 231q30 107 30 174q0 43 -13 91zM844 901q35 -79 35 -140q0 -81 -38 -162q-39 -79 -105 -147q-69 -69 -149 -107q-81 -40 -162 -40q-90 0 -144 61q65 -41 135 -41q80 0 160 40
q80 39 145 107q66 69 103 152q38 85 38 168q0 48 -18 109zM1595 1271q11 -20 11 -32q0 -24 -29 -41q-185 -115 -325 -399q-74 -152 -114 -292q-40 -141 -40 -253q0 -17 1 -21q3 -22 3 -29q0 -11 -8 -11q-18 0 -18 75q0 212 134 501q149 318 347 445q31 19 34 25q4 7 4 32z
M1885 1168q15 -25 15 -36q0 -14 -36 -58q-97 -120 -182 -375q-87 -256 -87 -419q0 -31 10 -70q6 -16 6 -24q0 -10 -7 -10q-11 0 -22 33q-10 31 -10 78q0 96 31 230q33 140 86 277q77 206 177 321q20 25 20 38q0 11 -1 15zM1326 1201l-38 -21q-56 -2 -48 -2q-54 0 -131 10
q-181 21 -253 21q-169 0 -302 -67q-134 -67 -208 -188q-74 -122 -74 -275q0 -43 9 -103q-28 63 -28 130q0 109 49 211q51 106 133 178q157 139 433 139q62 0 122 -7l150 -18q71 -9 131 -9q39 0 55 1zM508 700q8 -26 8 -38q0 -35 -22 -57q-23 -23 -58 -23q-45 0 -75 37
q-30 38 -30 93q0 69 24 132q24 61 68 113q44 50 99 78t115 28q54 0 98 -29q43 -30 67 -84t24 -127q0 -116 -59 -223q-60 -106 -156 -171q-97 -65 -202 -65q-118 0 -195 98t-77 249q0 182 87 336q44 78 103.5 140t134.5 107q149 91 323 91q90 0 251 -37q114 -24 190.5 -35
t125.5 -11q59 0 113 19q39 13 55 13q23 0 38 -16t15 -38q0 -17 -19 -27l-41 -24q-82 -46 -169 -159q-87 -112 -157 -257q-34 -72 -59.5 -139.5t-50.5 -156.5q-41 -153 -41 -273q0 -98 44 -98q31 0 58 40q48 71 102 214l60 161q70 188 130 306q62 122 128 209q56 73 119 115
q62 39 119 39q30 0 49 -13t19 -31q0 -11 -17 -28q-71 -71 -144 -230q-75 -163 -122 -342q-48 -181 -48 -305q0 -69 22 -109q21 -41 57 -41q66 0 143 98q79 102 150 229q71 130 123 262q88 224 88 302q0 39 -17 39l-6 -2l-13 -9q-8 -5 -19 -5q-22 0 -36 20t-14 50q0 43 26 75
q26 30 64 30q44 0 69 -36q26 -37 26 -98q0 -80 -41 -223q-42 -144 -103 -274q-55 -119 -134 -245q-79 -124 -141 -192q-98 -101 -192 -101q-91 0 -151 69q-61 68 -61 176q0 99 44 237q43 135 129 301q60 113 110.5 184.5t94.5 109.5q19 16 19 25q0 11 -11 11q-24 0 -77 -49
q-89 -79 -192 -280q-31 -61 -71 -158q-37 -89 -90 -232q-50 -135 -77 -198q-25 -55 -51 -96q-63 -97 -161 -97q-69 0 -108 55q-31 43 -47 102q-17 62 -17 125q0 121 44 253q45 136 125 259q84 130 188 231t228 170q26 14 26 21q0 5 -6 5t-12 -3q-106 -34 -182 -34
q-59 0 -112 6l-136 16q-73 10 -156 10q-170 0 -298 -48q-127 -49 -213 -144q-69 -79 -110 -180q-40 -99 -40 -198q0 -118 54 -192q54 -75 140 -75q50 0 105 35t98 93q45 60 70 130q25 69 25 138q0 56 -34 96q-34 39 -84 39q-63 0 -112 -67q-51 -67 -51 -150q0 -32 15 -52
q14 -21 34 -21q22 0 34 26z" />
    <glyph glyph-name="X" unicode="X" horiz-adv-x="1809" 
d="M1332 1032q21 -29 38 -73l-14 -54l-3 25q-7 65 -21 102zM255 196q7 -22 7 -33q0 -19 -10 -33q-10 -15 -23 -15q-10 0 -22 16q10 -2 9 -2q32 0 39 67zM581 615q1 -6 1.5 -11t0.5 -7q0 -33 -19 -52t-51 -19q-31 0 -65 29q25 -11 47 -11q35 0 54 16q20 17 32 55zM704 880
h-16q-30 0 -61 -25q-33 -27 -53 -62q-20 -36 -22 -74q0 -18 -11 -18t-11 16q0 39 30 91q23 41 51 65q29 23 56 23q21 0 37 -16zM1740 266l14 -22l-13 -24q-133 -252 -297 -252q-83 0 -142 69q35 -28 66 -39q32 -12 66 -12q54 0 109 33q54 32 101 89q48 57 96 158zM2098 1285
q8 -26 8 -39q0 -36 -25 -64t-59 -28q-32 0 -61 29q22 -13 39 -13q40 0 69 35t29 80zM1890 1271l-1 -26q-190 -76 -321 -297q-87 -144 -128 -323q-43 -181 -43 -325q0 -86 27 -154q-30 24 -40 54q-11 33 -11 88q0 169 38 330q37 156 110 294q68 132 166 230q94 94 203 129z
M1097 505v-48q-37 -75 -89.5 -145t-115.5 -131q-126 -126 -274 -199q-146 -73 -279 -73q-66 0 -112 20t-84 64q91 -61 193 -61q133 0 282 77q150 77 277 209q129 132 202 287zM954 1232q-52 5 -81 5q-142 0 -269 -85q-65 -44 -115.5 -99t-89.5 -126q-78 -141 -78 -295
q0 -26 3 -49q1 -21 8 -46q8 -30 19 -58q-49 74 -49 174q0 112 46 220q47 110 125 197t176 138t195 51q55 0 110 -27zM930 830q16 -47 16 -81q0 -85 -51 -184q-53 -101 -134 -175q-152 -137 -313 -137q-66 0 -110 21t-86 71q59 -43 95 -55q41 -15 96 -15q110 0 216 66
q107 66 180 181q49 74 70 148q21 72 21 160zM1677 371l41 -70q-70 -145 -138 -208q-67 -64 -156 -64q-131 0 -212 146q-36 64 -57 161q-22 94 -22 185q0 49 9 110q8 64 30 175q2 10 2 12q0 10 -17 15l-5 -23q-37 -168 -87 -283q-50 -111 -137 -220q-125 -154 -288 -245
q-163 -93 -310 -93q-105 0 -183 60q-79 58 -79 139q0 43 27 74q27 32 66 32q30 0 49 -18q19 -19 19 -49q0 -19 -10 -32q-10 -15 -25 -15l-26 1q-5 0 -9 -7q-3 -4 -3 -10q0 -38 58 -72q58 -35 122 -35q110 0 246 75q134 74 244 195q86 95 148 211q66 120 101 246
q35 128 35 238q0 80 -34 147q-35 68 -96 107q-62 38 -135 38q-107 0 -210 -55q-104 -56 -188 -150q-83 -94 -132 -211q-48 -117 -48 -238q0 -110 51 -184q51 -75 127 -75q78 0 154 63q76 62 124 162q48 99 48 202q0 36 -13 65q-13 28 -37 47q-23 17 -52 17q-40 0 -81 -36
q-44 -39 -68 -92q-27 -55 -27 -110q0 -24 12 -41q11 -17 24 -17t25 20q3 -16 3 -23q0 -30 -19 -48q-19 -19 -50 -19q-40 0 -64 33q-25 32 -25 86q0 60 27 121q25 58 71 109q41 47 98 77q53 28 110 28q55 0 99 -26q43 -25 67 -72q24 -46 24 -110q0 -116 -68 -235
q-67 -117 -174 -194t-210 -77q-84 0 -155 45q-69 44 -110 124q-41 79 -41 172q0 88 33 182q31 93 91 184q57 86 134 154q230 204 483 204q120 0 224 -62q102 -63 163 -169t61 -233q0 -104 -26 -210q-7 -29 -7 -37q0 -13 19 -16q28 151 92 287q61 130 152 236q88 102 193 160
q104 58 207 58q53 0 84 -24q30 -24 30 -68q0 -38 -24 -64t-59 -26q-26 0 -43 17q-18 17 -18 39q0 21 17 29q14 8 14 14q0 14 -25 14q-30 0 -78 -18q-52 -21 -92 -50q-43 -29 -90 -74t-84 -93q-86 -108 -138 -224q-52 -118 -82 -266q-33 -154 -33 -283q0 -215 112 -215
q37 0 69 26q33 27 75 92q48 77 86 155z" />
    <glyph glyph-name="Y" unicode="Y" horiz-adv-x="1829" 
d="M1101 1193q-72 24 -145 24q-135 0 -249 -43q-117 -44 -202 -123q-87 -81 -134 -191q-47 -112 -47 -235q0 -93 34 -179q-56 79 -56 194q0 164 83 301q42 69 99 123t129 93q143 79 315 79q60 0 97 -10q39 -11 76 -33zM695 867h-10q-54 0 -89 -44q-36 -43 -48 -124
q-3 -21 -11 -21q-10 0 -10 17q0 68 42 128q42 59 90 59q20 0 36 -15zM756 -125q20 -34 20 -53q0 -15 -8 -26q-9 -12 -19 -12q-7 0 -17 8q29 11 29 48q0 13 -5 35zM580 588q3 -15 3 -27q0 -28 -19 -46t-49 -18q-38 0 -66 31q27 -10 48 -10q33 0 52 16q19 14 31 54zM1413 423
l15 29q-15 -46 -35 -94q-21 -46 -48 -90q-25 -41 -65 -90q-143 -179 -260 -179q-47 0 -96 37q51 -20 76 -20q62 0 132 47t143 141q74 95 138 219zM908 838q31 -61 31 -110q0 -48 -20 -111q-19 -61 -57 -123q-37 -61 -82 -109q-150 -159 -327 -159q-59 0 -98 18
q-40 18 -81 65q47 -32 86 -45q40 -14 91 -14q84 0 169 45q84 43 152 117q67 74 107 163q40 90 40 181q0 24 -11 82zM1362 1068q34 -72 34 -148q0 -50 -15 -112q-14 -58 -41 -118q-43 -97 -147 -231q-64 -83 -89 -120q-57 -88 -57 -136q0 -15 -10 -15q-12 0 -12 21
q0 31 25 82q24 51 63 102l88 120q88 116 132 227q43 108 43 221q0 45 -14 107zM1989 1121q4 -17 4 -29q0 -25 -24 -34q-34 -13 -53 -32q-17 -16 -44 -60q-63 -105 -116 -365q-46 -219 -81 -318q-51 -145 -133 -264.5t-191 -211.5q-116 -95 -257 -150q-144 -56 -274 -56
q-100 0 -158 52q66 -31 142 -31q111 0 223 36q110 36 217 105q106 70 188 159q108 117 170 249q62 134 108 339l38 176q38 165 88 264q51 101 106 123l20 9q26 9 27 39zM551 648q5 -22 5 -30q0 -29 -20 -47q-19 -18 -50 -18q-38 0 -65 32t-27 77q0 63 26 129q25 64 70 115
q44 50 98 79q56 29 111 29q85 0 137 -60q52 -59 52 -157q0 -95 -37 -185q-37 -89 -103 -165q-66 -74 -149 -116q-82 -43 -166 -43q-82 0 -150 45q-68 46 -107 123t-39 171q0 69 17 142q16 68 54 142q35 70 83 132q46 57 106 110q111 94 251 144q141 50 293 50q121 0 212 -45
t139 -130t48 -200q0 -136 -77 -287q-29 -59 -139 -210q-143 -194 -143 -275q0 -21 14 -35q14 -15 32 -15q60 0 151 121q42 57 66 92q29 43 62 101q32 58 66 127q53 108 80 165q56 121 94 192q141 257 309 257q46 0 75 -17q28 -18 28 -46q0 -12 -5 -19t-23 -13
q-57 -22 -116 -120q-61 -106 -117 -358l-34 -155q-42 -191 -125 -344q-82 -152 -201 -255q-58 -50 -124 -91q-70 -43 -137 -70q-70 -28 -137 -42q-68 -14 -133 -14q-105 0 -172 50q-66 49 -66 132q0 39 26 68q25 28 64 28q33 0 55 -21q22 -22 22 -52q0 -16 -8 -29
q-7 -13 -19 -15l-13 -1q-7 0 -13 -9q-4 -4 -4 -11q0 -24 39 -43q40 -20 84 -20q77 0 156 33q81 33 158 96q79 64 142 144q77 100 149 263q41 90 102 261q77 210 110 283q36 82 88 160q43 64 82 99q38 35 92 58q-22 5 -32 5q-65 0 -151 -102q-37 -43 -78 -117
q-39 -69 -102 -202q-105 -223 -150 -303q-101 -176 -197 -269t-177 -93q-70 0 -112 55q-42 56 -42 149q0 86 40 175q42 93 131 210l100 132q62 80 87 141q25 60 25 122q0 110 -77 173q-77 62 -212 62q-64 0 -127 -12q-60 -11 -125 -35q-61 -24 -116 -58q-57 -36 -101 -75
q-94 -85 -148 -208q-55 -123 -55 -253q0 -122 55 -195q56 -75 145 -75q74 0 144 61q69 60 114 159q44 99 44 198q0 66 -26 104q-27 36 -76 36q-44 0 -85 -33q-41 -35 -63 -89q-24 -55 -24 -115q0 -59 33 -59q14 0 29 24z" />
    <glyph glyph-name="Z" unicode="Z" horiz-adv-x="1387" 
d="M990 285l-9 -30l-31 -11q-115 -39 -283 -86q-158 -45 -222 -80q-70 -39 -102 -89q-33 -51 -33 -124v-20q-19 26 -19 55q0 44 24 88q23 44 64 76q50 41 133 72q58 21 171 53q150 42 277 86zM1048 347q-158 -61 -410 -131q-103 -28 -172 -55q-55 -22 -101 -56
q-50 -35 -79 -89q-28 -53 -28 -112q0 -83 62 -137q61 -55 158 -55q75 0 154 35q76 34 148 98q66 59 127 151q92 143 141 351zM595 889q-32 -10 -46 -34q-9 -16 -16 -16q-11 0 -11 14q0 18 17 33t34 15q12 0 22 -12zM452 732q24 -11 39 -11q60 0 60 68q13 -22 13 -36
q0 -20 -16 -35q-16 -16 -40 -16q-26 0 -56 30zM992 515q-35 -11 -51 -25q-18 -18 -28 -48l-8 -24q-12 -32 -47 -32q-28 0 -54 36q25 -19 44 -19q17 0 31 11t15 26l4 21q4 22 25 43q20 18 42 18q12 0 27 -7zM778 886q21 -46 21 -85q0 -60 -33 -129q-33 -70 -90 -127
q-115 -114 -262 -114q-47 0 -74 13q-28 12 -57 45q59 -36 117 -36q70 0 142 32q69 31 124 88q55 55 85 126t30 146q0 14 -3 41zM1483 1204q23 -46 23 -81q0 -51 -22 -102q-23 -54 -64 -102q-43 -51 -95 -85q-46 -31 -120 -70.5t-162 -78.5l-57 -1l42 20q172 82 236 120
q66 40 106 80q120 120 120 248q0 20 -7 52zM1300 1062l-25 -24q-40 -8 -79 -8q-38 0 -88 8q-48 8 -98 22l-113 30q-120 34 -196 34q-100 0 -191 -52q-92 -53 -145 -140q-54 -88 -54 -188q0 -39 17 -112q-40 52 -40 122q0 78 34 149q33 72 91 127q57 56 129 87q71 31 150 31
q92 0 232 -41q124 -36 176 -46q54 -10 103 -10q42 0 97 11zM1337 655q15 -34 15 -60q0 -94 -86 -160q27 -76 27 -130q0 -113 -68 -247q-70 -136 -181 -241q-60 -58 -125.5 -102.5t-143.5 -78.5q-151 -66 -289 -66q-79 0 -132 22q-55 23 -101 72q59 -38 111 -54
q49 -16 115 -16q144 0 285 64q144 65 259 174t182 242q66 132 66 268q0 54 -18 108q39 35 63 82q23 48 23 93q0 -2 -2 30zM1231 482q11 -69 11 -102q0 -133 -65 -269q-28 -60 -73.5 -124t-100.5 -117q-110 -107 -246 -170q-137 -64 -275 -64q-156 0 -250 79q-95 78 -95 207
q0 103 51 191q50 87 138 137q69 39 169 60q41 9 183 28q147 19 226 41t152 61q-19 124 -82 124q-43 0 -79 -36q-25 -22 -25 -41q0 -8 8 -19q-23 -26 -51 -26q-32 0 -52 27q-21 26 -21 71q0 91 88 192q53 62 127 109q76 48 201 101q85 37 128 67q44 30 72 73q19 30 24 68
q-91 -59 -177 -59q-50 0 -100 10q-65 13 -161 41q-103 29 -147 37q-60 11 -101 11q-118 0 -224 -59q-106 -61 -167 -160q-63 -100 -63 -214q0 -85 37 -132q37 -49 101 -49q63 0 119 43q57 43 92 112q35 70 35 145q0 33 -15 49q-15 17 -43 17q-34 0 -64 -31t-30 -68
q0 -9 8 -20t17 -11q4 0 14 6q5 -13 5 -21q0 -21 -14 -35q-14 -13 -39 -13q-31 0 -51 23t-20 58q0 36 17 73q16 35 46 65q26 26 65 44q35 16 73 16q66 0 106 -46q41 -47 41 -121q0 -67 -29 -136q-28 -66 -79 -120q-51 -52 -115 -82q-63 -31 -134 -31q-50 0 -89 19
q-42 20 -72 56q-33 38 -49 84q-18 48 -18 103q0 107 54 215q53 107 143 193t201 135q110 49 226 49q132 0 259 -72l107 -60q35 -18 71 -29q41 -12 71 -12q71 0 74 42q-15 -4 -22 -4q-14 0 -25 12q-11 13 -11 28q0 23 16 39t39 16q38 0 62 -34q23 -35 23 -88
q0 -225 -277 -360l-123 -61q-130 -65 -182 -111q-54 -48 -54 -98q0 -11 5 -34q34 66 87 100q53 35 117 35q102 0 171 -91q28 40 28 71q0 47 -47 47q11 63 56 63q32 0 53 -27q20 -29 20 -71q0 -80 -80 -165z" />
    <glyph glyph-name="bracketleft" unicode="[" horiz-adv-x="778" 
d="M118 -126l-26 23h348l16 55l18 -16l-16 -62h-340zM853 1358l-504 -1292l-24 -1l512 1315h170l17 61l21 -12l-22 -71h-170zM661 1491h339l-22 -72h-168l-550 -1412h167l-20 -71h-352z" />
    <glyph glyph-name="backslash" unicode="\" horiz-adv-x="880" 
d="M518 1382l164 -1468h-154l-14 24h140l-161 1456zM612 -23h-143l-165 1473h143z" />
    <glyph glyph-name="bracketright" unicode="]" horiz-adv-x="778" 
d="M636 1373l-7 -22h-52l-11 22h70zM328 -103l599 1537l16 -23l-599 -1537h-316l-15 23h315zM302 -64h-340l21 71h169l550 1412h-167l20 72h352z" />
    <glyph glyph-name="asciicircum" unicode="^" horiz-adv-x="855" 
d="M789 184l16 -19q-67 -91 -114 -129q-49 -38 -97 -38q-27 0 -44 10q-18 10 -38 34q41 -25 73 -25q62 0 126 66q30 30 78 101zM383 763q27 -51 27 -96q0 -141 -164 -379q-62 -90 -70 -137q-2 -11 -8 -11q-11 0 -11 18q0 21 18 55q15 31 75 124q76 115 112 200q33 81 33 151
q0 35 -12 75zM128 643l-14 -23l-11 21q26 47 63 103q25 37 31 37q7 0 7 -8q0 -6 -11 -25q-49 -79 -65 -105zM410 211v-49q-62 -90 -114 -128q-52 -39 -107 -39q-54 0 -86 45q35 -25 71 -25q121 0 236 196zM871 853l12 -33q-26 -71 -59 -145q-34 -81 -126 -279
q-73 -155 -86 -226q-3 -19 -12 -19q-11 0 -11 18q0 56 76 215l73 153l10 23l30 69q38 84 60 138q22 52 33 86zM537 804l19 49h131q55 0 86 11q30 11 54 38l15 -10q-51 -152 -133 -329l-75 -162q-10 -22 -32.5 -73.5t-35.5 -85.5q-18 -48 -18 -78q0 -22 12 -36q11 -15 27 -15
q20 0 39 15q20 14 43 46q29 41 68 103l31 -53q-59 -96 -102 -134q-43 -39 -93 -39q-52 0 -90 45q-39 44 -39 103q0 26 8 60q8 35 23 71q24 56 53 117l57 120q39 81 39 102q0 13 -20 18q-38 -92 -92 -206q-54 -111 -99 -189q-55 -91 -96 -144q-40 -52 -78 -75
q-37 -24 -80 -24q-56 0 -94 47t-38 118q0 102 74 233l72 129q71 130 71 210q0 50 -31 50q-39 0 -136 -157l-30 52q50 83 101 125q50 42 102 42q35 0 60 -21t39 -59q13 -38 13 -90q0 -83 -30 -157q-31 -76 -117 -211q-58 -90 -78 -134q-20 -43 -20 -71q0 -20 14 -37
q13 -16 33 -16q49 0 117 83q66 83 156 261q53 102 98 207q39 95 39 125q0 24 -25 25q-9 0 -12 1z" />
    <glyph glyph-name="underscore" unicode="_" horiz-adv-x="1024" 
d="M1024 -431h-1024v158h1024v-158z" />
    <glyph glyph-name="grave" unicode="`" horiz-adv-x="644" 
d="M461 1020l28 49l15 -23l-31 -54l-219 89q-44 19 -73 63q18 -18 44 -29zM228 1285l238 -176l-22 -38l-230 90q-77 32 -77 89q0 25 13 38t34 13q25 0 44 -16z" />
    <glyph glyph-name="a" unicode="a" horiz-adv-x="882" 
d="M698 787l-11 -18q-33 10 -60 10q-84 0 -161 -54q-77 -55 -140 -156q-28 -47 -59 -120q-28 -69 -45 -132q-17 -66 -17 -106q0 -17 4 -26q5 -15 5 -17q0 -3 -3 -6t-6 -3q-22 0 -22 56q0 49 19 118q20 70 51 143q31 72 68 126q64 93 143 145t160 52q31 0 74 -12zM551 644
l12 26h29q6 -1 18 -1q53 0 77 3q25 2 50 12q-31 19 -31 41q0 28 36 35q17 5 17 16q0 24 -40 43q-42 20 -89 20q-96 0 -185 -56q-89 -58 -155 -159q-60 -94 -102 -214q-43 -120 -43 -196q0 -91 61 -91q32 0 63 27q32 27 69 84q47 73 103.5 182t109.5 228zM794 186l12 -23
q-77 -97 -120 -130q-47 -35 -89 -35q-39 0 -72 40q34 -25 63 -25q78 0 206 173zM417 182l1 -38q-49 -71 -105 -109t-115 -38q-21 0 -38 5q-16 5 -27 13q-12 8 -27 27q41 -27 85 -27q118 0 226 167zM882 725q7 -20 7 -31q0 -28 -24 -54q-23 -25 -63 -34q-23 -44 -69 -139
l-57 -121q-26 -53 -50 -116q-21 -54 -22 -69q0 -17 -7 -17q-11 0 -11 20q0 47 89 230l51 106q30 63 62 125q79 15 94 100zM737 278l29 -54q-71 -102 -110 -136q-44 -38 -87 -38q-47 0 -80 42t-33 99q0 40 20 100q19 57 72 163q36 71 36 80q0 12 -21 16l-9 -20
q-49 -110 -93 -194.5t-74 -129.5q-107 -155 -210 -155q-72 0 -117 63q-46 61 -46 160q0 123 47 237q46 110 132 199q84 87 193 135q110 48 229 48q101 0 165 -42q65 -42 65 -107q0 -32 -20 -57q-21 -25 -48 -25q-8 0 -11 1l-12 -23q-41 -80 -91 -183q-37 -75 -74 -160
q-45 -103 -45 -139q0 -20 13 -33q14 -15 28 -15q26 0 61 38q31 34 91 130z" />
    <glyph glyph-name="b" unicode="b" horiz-adv-x="857" 
d="M271 176l-10 -22l-46 -9l-17 20q15 5 38 7q3 0 4 1h4q8 14 8 15l53 118q46 103 118 235q62 116 117 185q54 71 78 71q10 0 10 -8q0 -6 -21 -23q-31 -22 -66 -74q-36 -51 -87 -141q-100 -180 -183 -375zM223 206q-57 -2 -84 -10q3 -83 112 -83q135 0 247 162q49 71 90 158
q36 77 65 166q25 78 25 131q0 46 -16 74t-44 28q-38 0 -91 -60q-55 -63 -121 -180q-47 -84 -95 -185q-55 -114 -88 -201zM351 1178h-34l-14 21q3 1 12 1q27 0 36 -22zM72 115l7 -22q-25 -24 -41 -48q-17 -24 -33 -64l-14 19q14 36 30 60q16 23 51 55zM626 1286l14 -29
q-17 -67 -55 -175q-39 -105 -85 -203l-38 -42l15 35q60 136 95.5 236t53.5 178zM816 738q27 -66 27 -125q0 -113 -46 -221q-47 -113 -124 -200q-79 -89 -177 -142t-196 -53q-53 0 -87 14q-33 13 -62 49q34 -23 65 -32q30 -10 74 -10q128 0 253 91q126 90 204 235
q78 146 78 292q0 44 -9 102zM303 1235l-22 1l33 53h165q50 2 68 9q19 8 38 34l15 -4q-58 -199 -120 -354q-38 -96 -73 -169q-4 -8 -42 -88q-8 -18 -15.5 -33l-12.5 -25q-9 -21 -18.5 -41t-12.5 -26q-20 -40 -35 -73q-31 -70 -46 -97q-7 -15 -7 -27q0 -15 16 -15q2 0 12 2
l10 21q50 113 99.5 204t96.5 153q52 71 97 104q47 35 91 35q69 0 112 -61q42 -61 42 -159q0 -131 -49 -251q-49 -123 -137 -212q-160 -163 -330 -163q-53 0 -86 13q-35 12 -60 38q-23 24 -40 71q-81 -40 -127 -136l-26 9q29 95 68 187q29 68 64 145.5t99 212.5l92 190
q57 115 93 221q37 108 37 159q0 69 -89 72z" />
    <glyph glyph-name="c" unicode="c" horiz-adv-x="681" 
d="M743 779q6 -22 6 -37q0 -37 -27 -64t-63 -27q-20 0 -48 14h18q49 0 80 31q31 29 34 83zM593 198l14 -21q-170 -185 -332 -185q-86 0 -151 65q44 -26 73 -35q27 -10 68 -10q166 0 328 186zM543 798l-13 -24q-50 -16 -100 -58q-47 -40 -91 -105q-46 -72 -84 -174
q-38 -105 -38 -168q0 -50 28 -109q-28 17 -38 41q-12 26 -12 64q0 89 50 212q50 122 120 204q86 98 178 117zM544 274l28 -47q-57 -60 -107 -98q-52 -40 -98 -56q-49 -17 -102 -17q-72 0 -131 33q-57 32 -89 93q-31 58 -31 137q0 106 46 208q45 102 124 187t175 134
q97 50 195 50q46 0 83 -14q35 -14 58 -41q21 -27 21 -58q0 -33 -27 -59q-26 -25 -63 -25q-24 0 -43 17q-19 16 -19 39q0 30 30 46q10 6 10 12q0 24 -40 24q-59 0 -130 -47q-73 -49 -128 -126q-63 -85 -107 -202q-43 -114 -43 -200q0 -68 37 -108q36 -41 96 -41
q114 0 255 159z" />
    <glyph glyph-name="d" unicode="d" horiz-adv-x="884" 
d="M588 803l-12 -27q-63 -23 -107 -55q-46 -32 -88 -83q-40 -50 -75 -116q-43 -84 -67 -171q-27 -91 -27 -155q0 6 2 -34q-21 21 -21 65q0 78 37 180q36 104 92 190q59 89 121 138q62 48 145 68zM645 820l13 26q-22 3 -32 3q-64 0 -136 -36q-72 -37 -127 -97
q-84 -90 -147 -240q-64 -149 -64 -256q0 -99 55 -99q75 0 184 199q29 49 91 173q108 210 163 327zM933 716l-21 -36l-14 22l21 36zM732 1179h-36l-15 26h9q30 0 42 -26zM423 192v-44q-103 -151 -212 -151q-62 0 -109 48q52 -28 94 -28q64 0 118 42t109 133zM790 183l12 -25
q-106 -160 -197 -160q-42 0 -80 38q35 -18 66 -18q51 0 98 38q43 35 101 127zM1032 1292l16 -26l-9 -27q-78 -249 -145 -407l-16 19q35 84 83 224q61 185 71 217zM824 726l21 -16l-189 -425q0 -1 -1 -3.5t-4 -9.5t-5 -13l-18 -42q-13 -34 -13 -33q-10 -28 -19 -28t-9 12
q0 15 27 82q2 4 10 22q2 5 4.5 11t2.5 8q7 13 7 15q1 3 2 5.5t1 4.5zM658 1237l30 52h157q55 0 86 12q29 10 56 40l15 -4q-64 -232 -165 -481l-10 -25q37 -21 70 -59l-22 -38q-25 35 -66 54l-15 -34q-59 -136 -70 -159l-72 -160q-56 -124 -81 -191q-25 -65 -25 -93
q0 -37 34 -37q27 0 68 41q39 39 84 118l32 -50q-39 -59 -74 -99q-36 -39 -62 -54q-29 -17 -59 -17q-49 0 -80 37t-31 99q0 32 12 72q10 37 41 107q32 72 72 152l68 140q39 78 69 145l10 21l-26 8l-12 -26q-48 -103 -94 -196.5t-80 -159.5q-79 -155 -109 -206
q-42 -69 -77 -109q-73 -84 -149 -84q-77 0 -123 64q-46 62 -46 166q0 116 59 242q59 123 159 219q82 76 176 115q95 40 193 40q40 0 77 -10q95 198 95 269q0 40 -27 59q-28 19 -88 20z" />
    <glyph glyph-name="e" unicode="e" horiz-adv-x="684" 
d="M334 593l-45 -30q85 123 134 175q56 59 84 59q10 0 10 -9q0 -7 -4 -10t-20 -10q-38 -18 -142 -152zM197 439q59 70 135 109l67 34q68 36 110 92q43 56 43 111q0 20 -12 35q-14 14 -33 14q-64 0 -181 -151q-98 -128 -129 -244zM590 194l14 -19q-155 -179 -327 -179
q-43 0 -76 12q-34 12 -70 42q66 -32 136 -32q171 0 323 176zM686 769q12 -28 12 -50q0 -105 -91 -187q-64 -59 -190 -98q-107 -33 -149 -78q-47 -49 -47 -114q0 -27 11 -63q-19 22 -27 38q-7 14 -7 36q0 77 67 134q35 29 74 45q7 3 88 31q137 46 197 115q58 68 62 191z
M543 273l28 -48q-89 -92 -158 -130q-74 -41 -152 -41q-108 0 -177 75q-70 74 -70 190q0 99 47 205t120 187q73 82 168 133q94 50 181 50q59 0 90 -34q32 -35 32 -95q0 -50 -19 -95q-20 -47 -57 -83q-34 -34 -63 -48q-33 -16 -135 -50q-100 -33 -159 -95q-58 -61 -58 -138
q0 -59 37 -100q38 -42 89 -42q60 0 128 43q72 45 128 116z" />
    <glyph glyph-name="f" unicode="f" horiz-adv-x="507" 
d="M167 765l-8 -20h-30l-12 20h50zM-396 -138v22q10 -33 10 -53q0 -24 -14 -24q-7 0 -14 7q18 12 18 48zM1038 1246q8 -21 8 -37q0 -35 -28 -62t-68 -27q-30 0 -50 29q24 -11 42 -11q25 0 48 14t36 35q13 22 13 46q0 9 -1 13zM829 1271l-14 -21q-54 0 -104 -27t-95 -80
q-95 -111 -142 -251h-25q48 123 105 208q55 84 121 128q64 43 134 43h20zM578 810l15 -20l-16 -45h-158l-11 -34l-47 -140l-54 -165q-45 -133 -69 -196q-30 -75 -66 -145q-64 -126 -150 -221q-89 -97 -186 -149q-98 -54 -188 -54q-91 0 -144 59q73 -37 136 -37
q147 0 303 135q75 65 131 145q54 76 106 192q52 117 107 285l54 163l52 155l8 27h161zM222 804h-129l15 49h62q36 0 56 14t39 57q44 101 87 163q41 60 106 119q84 78 184 121q99 41 198 41q71 0 118 -32q46 -31 46 -82q0 -34 -23 -55q-22 -22 -61 -22q-27 0 -47 15
q-20 14 -20 35q0 28 29 40q13 7 13 13q0 14 -21 24t-53 10q-154 0 -275 -160q-81 -106 -152 -301h157l-19 -49h-161l-7 -21l-60 -184q-57 -172 -106 -306q-41 -113 -78 -185q-41 -80 -82 -139q-95 -135 -191 -198q-97 -64 -210 -64q-98 0 -157 43q-60 43 -60 114q0 42 24 71
q22 28 60 28q32 0 57 -23q23 -25 23 -54q0 -18 -9 -30t-21 -12q-5 0 -12 4q-2 1 -6 1q-9 0 -9 -12q0 -30 32 -50q31 -21 75 -21q143 0 268 167q61 81 107 189q44 104 101 299q47 161 79.5 271.5t32.5 111.5z" />
    <glyph glyph-name="g" unicode="g" horiz-adv-x="811" 
d="M556 794l-19 -34q-59 -21 -116 -81q-57 -59 -103 -144q-45 -82 -73 -179q-27 -94 -27 -180v-22q-21 23 -21 64q0 88 45 206q43 116 108 206q50 68 95 104t111 60zM638 842q-86 0 -154 -33q-69 -35 -130 -108q-48 -55 -95 -148q-46 -90 -76 -185q-28 -91 -28 -157
q0 -89 57 -89q46 0 96 65q36 47 123 252q91 212 122 272q34 66 85 131zM116 43q44 -27 86 -27q84 0 160 93l-23 -60q-70 -54 -134 -54q-51 0 -89 48zM881 746l-27 -33l-9 18l29 36zM862 837l-15 12q22 19 29 38q10 -10 10 -17q0 -16 -24 -33zM-1 -107q14 -25 14 -39
q0 -16 -6 -26t-16 -10q-14 0 -16 17q28 0 28 32q0 11 -4 26zM768 753l20 -14q-31 -52 -54 -129q-21 -68 -61 -244q-39 -172 -66 -264q-61 -194 -186 -300q-44 -39 -110 -73q-64 -33 -129 -51q-66 -18 -128 -18q-110 0 -162 67q41 -24 76 -35q36 -11 76 -11q84 0 171 30
q86 30 158 84q72 53 125 129q29 40 53 93q20 44 44 129q17 56 57 225l30 132q42 174 86 250zM849 802l-34 -34q-29 25 -64 40q-54 -96 -95 -250l-35 -142l-39 -161q-27 -114 -50 -174q-25 -69 -57 -117q-30 -47 -79 -93q-73 -71 -168 -111q-93 -40 -186 -40q-91 0 -159 47
q-67 46 -67 109q0 40 28 71q28 30 64 30q31 0 52 -22q20 -23 20 -54q0 -18 -9 -28q-9 -11 -24 -11q-2 0 -3 1h-5q-2 1 -6 1q-11 0 -11 -15q0 -27 36 -49q35 -23 79 -23q132 0 264 159q53 64 83 125q32 65 72 180q65 193 142 373q51 119 117 209l-27 7q-26 -32 -52 -72
q-41 -70 -85 -172l-74 -179q-80 -194 -144 -275q-64 -79 -138 -79q-75 0 -125 68q-49 67 -49 171q0 117 59 244q59 128 149 210q81 72 178 110q99 38 204 38q27 0 65 -8q53 63 113 63q27 0 47 -11t20 -25q0 -11 -15 -19q-27 -15 -58 -43q30 -17 66 -49z" />
    <glyph glyph-name="h" unicode="h" horiz-adv-x="850" 
d="M349 1171h-32l-16 26h5q31 0 43 -26zM628 1280l13 -28q-61 -208 -141 -387l-38 -36q52 117 86.5 210.5t69.5 207.5zM762 182l17 -26q-55 -83 -105 -124q-49 -40 -105 -40q-39 0 -78 40q41 -21 70 -21q99 0 201 171zM789 769q20 -49 20 -91q0 -58 -26 -124
q-15 -40 -107 -210q-53 -98 -73 -175q-4 -19 -14 -19t-10 14q0 16 13 52q19 54 84 178q72 136 91 182q30 72 30 131q0 20 -8 62zM234 15h-169q-28 0 -46 -8t-28 -30l-11 21q19 27 34 34q14 6 52 6l149 1q42 131 98 259q48 111 118 243q47 86 100 160q53 75 69 75q4 0 7 -3
t3 -6q0 -4 -4 -8q-43 -43 -93 -122q-48 -76 -108 -194q-54 -106 -101 -225q-46 -117 -70 -203zM-42 38h-13q31 98 75 204q32 73 53 124t24 58q15 31 31.5 69t50.5 115q68 151 103 231q58 132 84 209q25 69 25 110q0 43 -24 59q-25 15 -92 15l34 57h118q48 -2 49 -2
q50 0 73 10q23 11 36 32l12 -7q-30 -105 -52 -173q-31 -92 -58 -163t-65 -159q-29 -66 -76 -166l-69 -145l-65 -136q-51 -106 -51 -123q0 -19 18 -19q7 0 10 1q42 99 87 195q42 90 92 180q87 154 148 215q62 62 131 62q53 0 88 -38q33 -37 33 -100q0 -103 -95 -282l-55 -104
q-79 -146 -79 -210q0 -43 30 -43q48 0 144 151l28 -47q-62 -97 -106 -136q-40 -37 -88 -37q-57 0 -95 48q-37 47 -37 122q0 112 110 299l70 117q50 86 50 134q0 25 -10 39q-11 14 -27 14q-35 0 -96 -76q-65 -80 -133 -207q-49 -94 -103 -221q-52 -120 -92 -236h-130
q-38 0 -53 -7q-17 -7 -43 -33z" />
    <glyph glyph-name="i" unicode="i" horiz-adv-x="452" 
d="M160 740l-14 22q4 -1 14 -1q27 -1 27 -13q0 -10 -12 -10q-1 0 -15 2zM380 188l11 -22q-53 -83 -108 -127q-56 -44 -105 -44q-40 0 -67 34q29 -16 58 -16q103 0 211 175zM545 1149q9 -31 9 -51q0 -34 -17 -68q-18 -34 -46 -55t-58 -21q-36 0 -63 38q35 -20 55 -20
q48 0 84 53t36 124zM330 1082q0 53 41 102q41 48 84 48q26 0 43 -20q16 -19 16 -51q0 -58 -37 -107q-38 -50 -81 -50q-29 0 -47 23q-19 22 -19 55zM468 854l12 -26l-12 -30q-45 -117 -82 -199q-47 -102 -101 -212q-57 -115 -72 -162q-11 -34 -14 -52q-3 -13 -10 -13
q-11 0 -11 19q0 45 85 216q77 153 120 249q39 87 85 210zM121 801l25 52h146q43 0 63 4q21 4 38 15q16 10 34 31l14 -8q-38 -99 -92 -226q-41 -94 -107 -229q-76 -156 -91 -201q-14 -50 -14 -80q0 -42 33 -42q56 0 154 158l31 -55q-57 -88 -104 -128q-46 -37 -95 -37
q-58 0 -93 48q-36 47 -36 124q0 68 25 140q24 75 85 196l51 101q30 60 30 90q0 25 -14 36q-14 8 -60 10z" />
    <glyph glyph-name="j" unicode="j" horiz-adv-x="452" 
d="M544 1134v16q10 -30 10 -52q0 -53 -37 -99t-83 -46q-35 0 -63 37q37 -19 55 -19q44 0 81 52q37 50 37 111zM330 1082q0 53 41 102q41 48 83 48q15 0 30 -9q16 -12 22 -26q8 -18 8 -37q0 -58 -37 -107q-38 -50 -80 -50q-29 0 -48 22t-19 57zM182 734h-32l-12 28
q24 -2 34 -7q10 -7 10 -21zM-343 -115q13 -20 13 -38q0 -17 -7 -24q-8 -9 -17 -9q-10 0 -18 17q30 3 30 40q0 10 -1 14zM479 857l12 -26l-14 -33l-67 -155q-36 -82 -93 -223q-54 -135 -98 -253q-57 -153 -96 -222q-41 -71 -107 -133q-75 -73 -161 -114q-84 -40 -166 -40
q-89 0 -147 61q65 -40 136 -40q82 0 170 44q90 45 164 122q61 61 98 130q38 72 101 241q80 210 129 326q55 132 125 284zM116 796l26 57h170q59 2 84 12q26 11 48 42l15 -16l-17 -36q-36 -76 -97 -218q-65 -150 -97 -231q-58 -146 -85 -218q-51 -140 -91 -205
q-41 -68 -104 -127q-74 -71 -146 -105q-75 -35 -144 -35q-60 0 -108 21q-47 19 -76 56q-28 34 -28 78q0 43 27 72q26 29 65 29q33 0 53 -19q21 -20 21 -49q0 -45 -36 -49q-18 -3 -18 -20q0 -29 25 -45q26 -17 68 -17q99 0 174 77q39 41 64 87q21 41 54 133q46 128 71 193
q56 144 92 230q61 146 80 188q18 42 18 60q0 54 -108 55z" />
    <glyph glyph-name="k" unicode="k" horiz-adv-x="837" 
d="M760 186l13 -24q-111 -162 -206 -162q-19 0 -37 8q-16 7 -50 31q51 -23 76 -23q90 0 204 170zM628 1281l13 -28q-29 -100 -67 -204q-42 -114 -81 -196l-36 -36q61 136 104 258q44 121 67 206zM718 697q25 -4 38 -4q38 0 63 30q24 30 24 76q8 -27 8 -40q0 -32 -23 -58
t-53 -26q-26 0 -57 22zM640 772v-24q-38 -10 -76 -45h-25q49 55 101 69zM657 550q26 -43 26 -88q0 -53 -48 -161q-41 -93 -45 -127q-1 -16 -10 -16q-12 0 -12 17q0 15 18 64q4 12 41 103q37 84 37 141q0 24 -7 67zM225 15h-158q-38 0 -53 -6q-16 -7 -25 -27l-17 16
q14 25 29 33q18 8 50 8h159l5 18q34 112 73 201q41 95 94 190q27 48 53 80q25 31 38 31q8 0 8 -9q0 -7 -19 -27q-28 -28 -77 -118q-50 -92 -91 -195q-45 -109 -69 -195zM349 1172h-32l-16 26h5q31 0 43 -26zM-42 39h-13q31 98 75 204q32 73 53 124t24 58q15 31 31.5 69
t50.5 115q68 151 103 231q57 131 84 209q25 69 25 110q0 43 -24 59q-25 15 -92 15l34 56h118q11 -1 46 -1q49 0 74 9t38 33l12 -8q-27 -94 -51 -170q-29 -87 -58 -163q-28 -74 -66 -161q-29 -66 -76 -166l-69 -145l-65 -136q-51 -106 -51 -123q0 -20 18 -20l8 2l17 36
q93 211 157 325q47 86 92 145q40 52 86 88q84 66 160 66q50 0 85 -26q33 -27 33 -67q0 -33 -26 -57q-25 -24 -61 -24q-24 0 -38 12q-15 12 -15 29q0 10 10 20q8 8 8 13q0 16 -29 16q-35 0 -73 -22t-82 -69q-39 -42 -77 -101q61 43 99 43q48 0 76 -37t28 -98q0 -42 -13 -88
q-13 -47 -51 -140q-47 -118 -47 -147q0 -17 12 -31q11 -14 29 -14q26 0 51 30q28 31 88 128l29 -50l-21 -30q-47 -69 -88 -104q-40 -32 -83 -32q-58 0 -96 41q-37 40 -37 105q0 41 10 77q11 41 45 127q25 63 31 78q12 30 17 42l5 12q10 24 10 42q0 13 -8 21t-22 8
q-81 0 -194 -230q-37 -77 -61.5 -138t-58.5 -161h-130q-36 0 -54 -7q-19 -7 -42 -32z" />
    <glyph glyph-name="l" unicode="l" horiz-adv-x="460" 
d="M330 1174h-28l-18 24q14 2 13 2q24 0 33 -26zM381 192l12 -25q-70 -91 -123 -131q-55 -41 -105 -41q-34 0 -70 33q35 -15 62 -15q98 0 224 179zM621 1286l16 -23l-9 -31q-49 -172 -105 -316q-16 -41 -62 -145q-39 -88 -84 -183l-69 -143q-69 -145 -90 -201
q-14 -36 -18 -64q-4 -19 -13 -19q-10 0 -10 13q0 25 31 102q36 90 80 180l72 148q46 94 107 236q54 128 89 231q39 112 65 215zM325 272l32 -46q-70 -100 -115 -138q-46 -40 -95 -40q-57 0 -92 48q-35 49 -35 126q0 55 12 107q11 53 39 117q27 65 80 169q74 145 111 224
t56 129q54 137 54 200q0 40 -24 53t-92 15l36 53h165q53 0 76 10q24 9 43 37l12 -10l-7 -28q-46 -176 -96 -310q-51 -138 -123 -285l-76 -156q-83 -170 -118 -258q-33 -84 -33 -128q0 -47 33 -47q52 0 157 158z" />
    <glyph glyph-name="m" unicode="m" horiz-adv-x="1190" 
d="M150 734l-13 22q3 -1 11 -1q27 -3 27 -13q0 -9 -12 -9q-10 0 -13 1zM586 15h-158q-33 0 -44 -4q-14 -5 -28 -23l-9 19q26 32 76 32h147l9 25q58 174 134 341q76 165 143 263q37 56 73 99q9 12 16 12t7 -9q0 -7 -10 -17q-43 -49 -95 -136q-52 -84 -102 -194
q-102 -220 -159 -408zM1133 762q16 -48 16 -76q0 -96 -106 -290q-55 -101 -70 -133q-14 -28 -23 -62l-5 -22q-3 -14 -11 -14q-10 0 -10 15q0 44 76 180q74 132 104 215t30 152q0 24 -1 35zM1106 181l17 -17q-106 -169 -203 -169q-49 0 -83 46q37 -31 70 -31q88 0 199 171z
M233 15h-160q-30 0 -45 -5q-12 -4 -29 -24l-10 21q17 20 33 26q17 6 46 6h148q48 159 130 338q45 99 80.5 163.5t77.5 127.5q78 115 94 115q8 0 8 -7q0 -6 -15 -23q-44 -48 -93 -131q-51 -84 -105 -197q-57 -117 -95 -217q-44 -111 -65 -193zM109 797l30 56h160q41 0 63 9
q23 9 51 37h13l-9 -25q-59 -150 -138 -329l-82 -189q-43 -95 -43 -109t17 -14q5 0 8 1h9l9 22l42 102q77 180 143 293q71 123 133 180q62 58 119 58q42 0 66 -27q23 -29 23 -78q0 -82 -68 -223l-65 -134q-74 -154 -74 -180q0 -14 17 -14q3 0 4 1h5l58 134q224 525 388 525
q50 0 84 -39q34 -38 34 -96q0 -111 -126 -345q-34 -61 -57 -109q-19 -37 -31 -69q-13 -42 -13 -70q0 -52 34 -52q26 0 66 48q43 50 70 114l35 -55q-53 -93 -96 -131q-43 -40 -93 -40q-58 0 -96 50t-38 126q0 105 90 262l61 107q82 142 82 191q0 21 -8 35q-9 13 -24 13
q-30 0 -80 -56q-50 -58 -104 -152q-36 -64 -71 -138q-41 -83 -83 -185q-44 -108 -79 -224h-111q-46 0 -64 -6q-19 -7 -38 -31h-19q42 140 93 258q35 82 79 167q20 38 80 149q76 136 76 183q0 14 -8 25q-9 9 -21 9q-33 0 -88 -67q-53 -65 -118 -182q-52 -95 -85 -167
q-39 -86 -75 -175q-36 -91 -58 -163h-125q-66 0 -94 -46l-17 9l9 23q101 274 177 439q56 121 67 155q14 42 14 74q0 36 -18 49q-18 12 -67 14l-7.5 1t-17.5 1z" />
    <glyph glyph-name="n" unicode="n" horiz-adv-x="860" 
d="M155 735l-14 21h9q1 -1 5 -1q27 -1 27 -12q0 -10 -12 -10q-1 0 -15 2zM803 762q16 -41 16 -73q0 -58 -25 -124q-24 -64 -82 -168q-79 -141 -91 -189l-7 -29q-3 -13 -11 -13t-8 12q0 13 9 44q14 44 65 138q49 86 80 155q32 71 45 120q12 50 12 95q0 17 -3 32zM771 181
l16 -17q-106 -169 -204 -169q-25 0 -45 11t-33 31q35 -27 67 -27q45 0 98 46q56 48 101 125zM243 38l-7 -23h-163q-30 0 -45 -5q-12 -4 -29 -24l-9 18q11 20 28 28q15 7 50 7h152q61 207 170 427q113 227 190 300l10 9q6 6 10 6q3 0 6 -3h0.5t0.5 -1v-2q0 -5 -15 -23
q-41 -45 -91 -125q-47 -76 -99 -182q-49 -99 -91 -207q-38 -96 -68 -200zM-32 40l-16 3q35 111 83 227q14 36 68 158q8 15 14 30t18 41q6 15 14 32t15 33q41 88 49 115q11 35 11 60q0 34 -19 46t-73 12h-16l26 56h141q59 0 89 11q27 10 47 42l10 -12l-7 -19
q-39 -107 -117 -280q-39 -85 -72 -165l-50 -119l-18 -41q-4 -8 -4 -18q0 -16 18 -16q4 0 5 1h6q43 100 72 167q71 155 121 245q44 79 94 138q90 106 178 106q54 0 87 -38q33 -37 33 -100q0 -58 -21 -123q-21 -68 -117 -241q-90 -160 -90 -239q0 -17 10 -28q11 -12 27 -12
q59 0 134 157l34 -49q-54 -90 -98 -129q-46 -40 -98 -40q-55 0 -90 47t-35 119q0 122 120 321l64 104q54 89 54 142q0 55 -43 55q-44 0 -110 -81q-67 -80 -145 -235q-33 -65 -65.5 -138.5t-64 -157t-52.5 -149.5h-137q-55 0 -84 -38z" />
    <glyph glyph-name="o" unicode="o" horiz-adv-x="787" 
d="M535 791q-78 -26 -150 -119q-77 -97 -122 -221q-47 -129 -47 -238q0 -29 11 -56h-6q-26 0 -26 61q0 73 29 180q30 108 71 182q45 83 112 153q65 66 104 66q8 0 24 -8zM155 206q0 -95 72 -95q38 0 90 43q53 44 99 111q50 72 85 154q38 87 60 174q22 85 22 153q0 44 -18 69
t-50 25q-45 0 -104 -52q-59 -51 -113 -135q-67 -104 -104 -223q-39 -121 -39 -224zM749 713q24 -48 24 -95q0 -107 -51 -223q-45 -106 -125 -197q-178 -199 -360 -199q-41 0 -65 10q-25 10 -55 39q57 -30 109 -30q94 2 190 59q98 58 173 151q77 94 122 209q45 119 45 210
q0 30 -7 66zM14 291q0 99 45 207q43 107 119 198q73 89 161 144q88 53 170 53q62 0 111 -28q49 -29 74 -80q26 -54 26 -123q0 -119 -57 -244q-57 -124 -153 -216q-67 -67 -144 -105q-76 -39 -140 -39q-94 0 -153 65t-59 168z" />
    <glyph glyph-name="p" unicode="p" horiz-adv-x="866" 
d="M334 141q-17 11 -23 23q-7 10 -7 28q0 34 21 104q19 67 54 151q33 81 72 153q68 124 128 175q16 16 25 16q11 0 11 -12q0 -8 -14 -16q-29 -16 -73 -78q-44 -63 -89 -155q-52 -108 -85 -215q-28 -85 -28 -126q0 -18 8 -48zM664 749q0 43 -12 65t-34 22q-42 0 -107 -74
q-63 -72 -120 -187q-28 -54 -61 -138q-35 -89 -49 -145q-17 -66 -17 -102q0 -37 19 -60q20 -24 47 -24q38 0 89 53q52 54 105 146q60 105 101 232q39 125 39 212zM159 735l-13 26h9q27 0 27 -18v-8h-23zM197 -280l-24 -60h-229q-52 0 -75 -14l-13 19q18 10 36 15q16 4 58 4
h210l26 63zM186 102l10 -35l-10 -24q-67 -156 -83 -217q-7 13 -7 29q0 13 8 39t39 104l34 82zM826 735q26 -60 26 -112q0 -100 -44 -214q-43 -111 -117 -206q-72 -93 -160 -150q-87 -57 -167 -57q-25 0 -46 8q-19 7 -41 26q42 -19 73 -19q82 0 170 58q90 60 158 152
q71 95 114 210q42 116 42 227q0 34 -8 77zM-164 -302l-13 11l9 27q14 38 22 59t22 58q8 20 15.5 41t28.5 74q27 71 37 95q13 34 61 148t85 202l75 171q47 109 47 156q0 32 -19 45t-60 13l-25 1l25 54h156q43 0 64 10q22 10 50 43l15 -10q-19 -54 -67 -172q-14 -34 -30.5 -73
t-38.5 -91.5t-46 -109.5q-18 -40 -18 -54q0 -15 22 -16l10 26q30 75 64 153q20 45 45 90q30 53 53 88q52 75 110 115q59 41 117 41q67 0 108 -53q40 -52 40 -145q0 -116 -39 -230q-38 -114 -108 -209q-72 -96 -154 -149q-85 -55 -169 -55q-56 0 -88 36q-32 35 -32 101
q0 34 14 87h-18l-117 -305q-36 -95 -36 -127q0 -31 22 -44t81 -16l-22 -60h-195q-77 0 -103 -26z" />
    <glyph glyph-name="q" unicode="q" horiz-adv-x="853" 
d="M695 798l-19 -15q-31 12 -58 12q-75 0 -155 -59q-79 -58 -139 -162q-47 -80 -82 -191t-35 -176q0 -23 10 -43q-30 0 -30 46q0 53 19 125q20 77 50 146q31 73 67 131q63 98 139 150t155 52q39 0 78 -16zM542 650l14 32h104q41 0 69 14q-28 22 -28 43q0 29 22 33l15 4
q14 5 14 18q0 23 -43 42q-43 18 -91 18q-95 0 -181 -61q-88 -61 -157 -177q-57 -94 -94 -207q-37 -111 -37 -187q0 -99 60 -99q53 0 113 95q42 67 105 188q60 115 115 244zM114 39q35 -24 70 -24q91 0 163 87l-19 -49q-70 -57 -136 -57q-29 0 -45 10q-16 9 -33 33zM599 -275
l-29 -65h-208q-44 0 -75 -16l-14 20q38 20 78 20h204l27 65zM867 745q6 -25 6 -42q0 -58 -60 -75l-14 -33q-81 -194 -124 -308l-57 -147q-66 -174 -84 -224q-14 -40 -25 -91q-15 12 -15 25t6 31l21 64q3 5 10.5 27.5t18.5 52.5q6 14 21 53l71 184q62 160 146 360l11 24
q43 9 59 46q8 14 9 53zM254 -303l-14 11q31 93 76 210q22 56 40 102.5t33.5 83t32.5 76.5t35 84l69 162l32 72q3 8 14 32q6 12 6 18q0 7 -17 15q-12 -22 -12 -25l-56 -114q-78 -160 -122 -230q-50 -80 -92 -110q-43 -31 -97 -31q-76 0 -122 67q-46 65 -46 175q0 115 55 237
q56 123 149 216q54 51 114 86q59 34 130 55q66 19 131 19q107 0 177 -43t70 -108q0 -33 -18 -53q-19 -21 -50 -22q-45 -103 -90 -216l-75 -186q-29 -68 -110 -285q-23 -61 -33 -97q-9 -33 -9 -56q0 -19 8 -30t30 -15q23 -5 64 -5l-28 -68h-167q-67 0 -108 -27z" />
    <glyph glyph-name="r" unicode="r" horiz-adv-x="652" 
d="M178 741h-28l-7 19q5 0 7 1h5q17 0 23 -20zM724 823q9 -27 9 -43q0 -43 -30 -78q-32 -35 -68 -35q-13 0 -34 8q38 3 66 21q27 16 43 44q15 27 15 63q0 14 -1 20zM242 48l-11 -33h-171q-27 0 -37 -7q-11 -8 -18 -32l-12 21q11 27 24 34q13 8 47 8h152l8 22q37 112 84 226
q44 106 90 200q82 159 139 224l10 -17q-46 -56 -102 -161q-57 -108 -107 -227q-52 -121 -96 -258zM-35 36l-13 6q19 57 48 132q39 104 93 230l62 147q65 156 65 182q0 64 -83 64q-19 0 -27 -1l26 57h144q102 0 129 52l15 -13q-26 -82 -69 -182q-86 -201 -145 -328
q-21 -49 -28 -64q-3 -7 -9 -19t-14 -30q-8 -21 -8 -24q0 -13 15 -13l16 2l9 21q39 91 110 238q194 399 341 399q24 0 39 -17q15 -18 15 -45q0 -44 -30 -79t-69 -35q-12 0 -22 10q-11 9 -11 20q0 5 2 11q1 4 1.5 6.5t0.5 3.5q0 12 -15 12q-35 0 -125 -155
q-53 -94 -111 -222.5t-122 -299.5l-9 -24h-122q-26 0 -43 -3t-28 -11t-28 -28z" />
    <glyph glyph-name="s" unicode="s" horiz-adv-x="596" 
d="M169 233v13q9 -22 9 -40q0 -24 -10 -37q-11 -14 -28 -14q-14 0 -25 14q31 3 43 18q11 14 11 46zM619 795q11 -36 11 -58q0 -35 -22 -58q-22 -24 -55 -24q-32 0 -61 33q32 -18 49 -18q34 0 58 27q23 26 23 63q0 14 -3 35zM428 803l-13 -20q-15 3 -21 3q-62 0 -75 -67
q-6 14 -6 24q0 25 25 44t60 19q17 0 30 -3zM482 404q31 -58 31 -113q0 -75 -47 -146q-48 -70 -124 -112t-161 -42q-40 0 -64 10q-28 11 -57 38q55 -28 113 -28q87 0 160 42q74 41 119 111q44 71 44 151q0 41 -14 89zM-34 223q0 42 30 75q29 32 70 32q33 0 55 -21t22 -54
q0 -21 -12 -35q-12 -15 -32 -18l-16 -3q-19 -1 -19 -24t29 -43q28 -19 66 -19q45 0 83 25q39 25 61 66q23 43 23 86q0 45 -24 93q-5 12 -41 63q-5 8 -10 15.5t-11 14.5q-3 5 -20 27q-67 89 -67 165q0 69 36 124t99 88q62 33 135 33q50 0 91 -16q43 -18 64 -44q23 -29 23 -63
q0 -32 -26 -55t-63 -23q-29 0 -46 15q-18 14 -18 36q0 26 22 39q17 11 17 19q0 14 -18 21q-21 8 -50 8q-62 0 -106 -32q-45 -33 -45 -78q0 -15 8 -34q8 -18 24 -42q17 -25 54 -72q65 -79 90 -135q24 -55 24 -117q0 -76 -42 -142q-42 -67 -111 -106q-70 -39 -150 -39
q-85 0 -142 48t-57 122z" />
    <glyph glyph-name="t" unicode="t" horiz-adv-x="522" 
d="M208 760l-9 -23h-15l-10 23h34zM570 1054l13 -23l-61 -144h-24zM601 808l17 -16l-28 -56h-135q-56 -109 -83 -165q-36 -77 -75 -158q-11 -22 -37 -83q-20 -47 -30 -76q-10 -31 -15 -54l-5 -27q-3 -18 -14 -18q-12 0 -12 17q0 29 29 107q17 48 104 229q43 94 124 252h135z
M390 189l14 -25q-115 -169 -221 -169q-38 0 -64 36q29 -17 54 -17q52 0 104 43q54 43 113 132zM330 271l32 -50q-57 -92 -101 -129q-46 -39 -99 -39q-57 0 -92 47q-36 47 -36 121q0 51 12 105q12 52 38 115q20 50 95 198q41 80 77 159h-111l17 55h21q76 0 115 39
q38 39 72 153h19h6h6q46 0 67 10q23 11 44 42h32l-106 -244h139l-26 -55h-138l-170 -350q-56 -117 -76 -181q-22 -65 -22 -106q0 -51 32 -51q57 0 153 161z" />
    <glyph glyph-name="u" unicode="u" horiz-adv-x="872" 
d="M155 734l-15 28q32 -2 32 -19q0 -9 -17 -9zM423 204v-45q-107 -164 -201 -164q-47 0 -85 53q37 -31 75 -31q54 0 104 44q49 43 107 143zM802 196l16 -23q-55 -88 -108 -132t-103 -44q-32 0 -70 36q31 -19 56 -19q50 0 100 44q52 45 109 138zM882 850l18 -21
q-47 -133 -136 -323l-77 -165q-37 -75 -59 -151l-8 -27q-5 -11 -11 -11q-7 0 -7 10q0 47 72 207l76 164q36 78 73 166q39 96 59 151zM452 849l16 -29q-69 -167 -136 -305l-67 -141q-65 -132 -67 -225q-14 23 -14 47q0 66 63 196l55 116q72 149 101 217q33 77 49 124z
M411 905l13 -11q-39 -111 -68 -176q-39 -89 -89 -195q-15 -32 -28.5 -60t-17.5 -36q-51 -106 -66 -150q-15 -45 -15 -85q0 -83 63 -83q32 0 63 29q31 31 71 97q47 77 100 182q59 120 97 210q55 129 55 157q0 15 -6 19q-9 5 -33 8l17 42h164q41 0 67 13q26 12 45 37l14 -9
q-33 -93 -73 -189q-62 -145 -145 -321q-77 -165 -77 -221q0 -23 12 -37q12 -15 29 -15q25 0 53 33q26 28 76 118l11 19l32 -52q-58 -96 -100 -135q-44 -41 -90 -41q-54 0 -89 45q-36 44 -36 107q0 59 25 124q26 66 120 264l23 48q9 18 9 26q0 11 -23 25l-10 -26
q-104 -248 -219 -446q-94 -163 -188 -163q-66 0 -111 64q-45 65 -45 157q0 56 13 109q14 54 45 120q35 73 82 152q33 56 33 84q0 56 -72 56q-7 0 -27 -3l24 57h150q55 0 80 12q23 10 42 40z" />
    <glyph glyph-name="v" unicode="v" horiz-adv-x="755" 
d="M155 743l-13 26q30 -9 30 -20q0 -8 -7 -8q-4 0 -10 2zM566 717q14 -11 24 -11h14q11 0 11 -11q0 -12 -12 -12q-15 0 -37 34zM455 853l14 -26q-25 -66 -49 -118q-53 -121 -90 -196l-70 -144q-68 -144 -68 -202v-16q-14 25 -14 45q0 57 87 235l59 123q38 78 95 205
q30 78 36 94zM740 786q22 -45 22 -86q0 -55 -25 -137q-24 -80 -71 -175q-45 -91 -93 -156q-80 -107 -170 -169q-91 -63 -172 -63q-26 0 -41 7q-16 6 -48 27q44 -14 74 -14q104 0 221 99q116 96 199 257q53 100 81 190t28 156q0 22 -5 64zM117 804l18 49h147q48 0 78 11
q28 10 58 42l13 -10q-28 -81 -49 -132q-21 -49 -99 -209q-93 -190 -116 -251q-28 -69 -28 -115q0 -35 22 -57q21 -23 55 -23q64 0 149 70t151 178q56 91 93 193q37 101 37 165q0 51 -25 51q-5 0 -13 -5q-20 -11 -34 -11q-20 0 -34 17t-14 40q0 34 30 59q31 26 70 26
q43 0 66 -35t23 -101q0 -65 -24 -151q-25 -90 -70 -178q-48 -94 -97 -159q-73 -96 -159 -154q-85 -57 -156 -57q-51 0 -89 29q-39 30 -58 81q-21 53 -21 124q0 83 28 158q29 79 100 195q43 68 43 100q0 30 -22 43q-23 14 -73 17z" />
    <glyph glyph-name="w" unicode="w" horiz-adv-x="1096" 
d="M174 745h-28l-6 18q10 2 12 2q16 0 22 -20zM838 852l12 -22q-4 -10 -53 -125q-20 -47 -44 -103q-15 -33 -39 -87q-43 -98 -70 -156q-38 -85 -51 -127q-14 -44 -15 -86q-10 20 -10 42q0 34 18 85q15 43 62 148q36 78 103 231q51 117 87 200zM1081 780q22 -44 22 -85
q0 -90 -55 -225q-56 -139 -132 -241q-176 -230 -314 -230q-30 0 -50 11q-19 10 -45 41q43 -34 85 -34q102 0 246 151q98 104 175 273q75 168 75 284q0 28 -7 55zM399 211v-50q-34 -75 -80 -118t-93 -43q-40 0 -83 37q41 -22 64 -22q56 0 103 47q46 47 89 149zM915 720
q11 -9 31 -9q9 0 9 -9t-10 -9q-12 0 -30 27zM455 858l15 -27q-89 -199 -137 -307q-52 -118 -81 -180q-40 -89 -50 -116q-11 -33 -11 -59v-9q-11 19 -11 35q0 39 56 166q166 371 219 497zM109 800l23 53h164q48 0 75 11q24 10 47 39l11 -8q-19 -49 -58.5 -143.5t-76 -174
t-71.5 -152.5q-55 -119 -68 -154q-15 -43 -15 -77q0 -38 17 -61t45 -23q25 0 50 23q24 24 52 79q23 46 79 178q64 150 121 301q23 58 23 84q0 15 -9 21t-38 9l24 48h162q50 0 81 11q27 10 51 40l13 -7q-24 -59 -49 -118q-19 -44 -37 -85.5t-54 -125.5q-61 -141 -87 -205
q-30 -70 -36 -88q-20 -54 -20 -89q0 -33 17 -53t44 -20q56 0 129 66q70 61 140 175q38 62 69 132q31 74 47 129q16 57 16 102q0 20 -7 33t-18 13q-3 0 -14 -6q-13 -10 -30 -10q-22 0 -36 17q-15 17 -15 41q0 34 28 59q26 25 66 25q44 0 69 -36q25 -35 25 -97q0 -68 -25 -153
q-24 -82 -70 -178q-42 -89 -96 -161q-69 -93 -150 -150q-80 -58 -142 -58q-58 0 -97 50q-40 49 -40 124q0 59 27 140q22 64 60 151l48 112q9 23 9 34q0 14 -25 24q-79 -201 -113.5 -285.5t-66.5 -154.5q-46 -105 -90 -150q-43 -45 -96 -45q-62 0 -106 68t-44 166
q0 121 83 269l60 108q26 47 26 79q0 55 -78 55q-16 0 -23 -1z" />
    <glyph glyph-name="x" unicode="x" horiz-adv-x="804" 
d="M762 709q24 -12 39 -12q77 0 83 103q9 -25 9 -41q0 -32 -23 -55q-22 -22 -53 -22q-26 0 -55 27zM167 598l-15 27q31 70 60 115q28 43 43 43q11 0 11 -10q0 -5 -13 -18q-48 -46 -86 -157zM698 188l14 -22q-114 -166 -214 -166q-37 0 -77 35q33 -15 62 -15q104 0 215 168z
M286 222l2 -34q-50 -88 -109 -138q-59 -52 -113 -52q-34 0 -66 32q38 -15 57 -15q54 0 116 56q60 54 113 151zM692 762l5 -23q-50 -41 -95 -125q-45 -86 -72 -184q-27 -99 -27 -185q0 -24 5 -54q3 -10 3 -18q0 -12 -10 -12q-21 0 -21 85q0 77 24 168q23 94 60 172
q56 119 128 176zM126 661l-33 49q59 105 105 147q47 41 104 41q66 0 110 -59q43 -59 43 -155q0 -39 -7 -68l-13 -62v-3q-1 -1 -1 -4q0 -11 12 -22q22 71 57 140q34 65 81 118q45 53 93 81q47 29 92 29q35 0 60 -22t25 -58t-24 -63t-55 -27q-19 0 -33 12t-14 31q0 24 19 37
q15 11 15 18q0 14 -16 14q-28 0 -70 -36q-41 -35 -83 -93q-67 -96 -108 -224q-40 -126 -40 -241q0 -124 52 -124q59 0 144 151l28 -46q-60 -94 -100 -128q-43 -37 -92 -37q-67 0 -110 61q-45 60 -45 148q0 31 14 124q2 18 2 15q0 7 -11 15q-5 -12 -5 -13q-2 -4 -3 -6.5
l-1 -2.5l-28 -70q-49 -124 -118 -201q-67 -75 -130 -75q-37 0 -59 22q-24 23 -24 54q0 30 19 50q18 21 44 21q17 0 30 -10t13 -26q0 -7 -1 -10t-1 -9q0 -11 11 -11q22 0 59 42q39 42 67 95q57 105 94 233q38 132 38 211q0 52 -16 83t-44 31q-66 0 -146 -167z" />
    <glyph glyph-name="y" unicode="y" horiz-adv-x="795" 
d="M360 118l-32 -65q-55 -52 -109 -52q-51 0 -86 44q31 -26 73 -26q78 0 154 99zM3 -110q14 -23 14 -40q0 -34 -23 -34q-10 0 -15 14q27 4 27 35q0 10 -3 25zM-110 -279q71 -44 153 -44q107 0 212 49q106 49 185 131q55 56 95.5 131.5t62.5 165.5q17 68 45 213
q47 227 82 320q36 94 87 130q24 19 29 31q8 -14 8 -21q0 -12 -30 -36q-40 -31 -72 -108q-20 -54 -43 -149q-18 -74 -37 -169q-37 -195 -60 -264q-62 -193 -190 -297q-83 -72 -176 -109q-94 -39 -186 -39q-59 0 -96 15q-37 13 -69 50zM155 734l-15 24q35 -2 35 -15
q0 -5 -11 -7q1 0 -9 -2zM452 848l17 -24l-13 -30q-65 -156 -124 -279l-68 -141q-68 -144 -80 -215q-6 26 -6 39q0 50 69 194l61 127q60 125 103 225q29 72 41 104zM113 798l22 55h154q51 0 78 11q24 11 45 39l11 -10q-27 -81 -63 -164q-42 -99 -110 -242q-69 -142 -90 -198
q-22 -54 -22 -95q0 -39 17 -62t43 -23q52 0 101 75q25 38 51 91q9 17 72 164q73 172 121 267q50 102 107 162q55 58 104 58q28 0 44 -12t16 -31q0 -13 -6 -19q-6 -7 -31 -25q-50 -40 -94 -159q-26 -74 -58 -208q-21 -85 -50 -217q-23 -110 -43 -165q-20 -56 -53 -111
q-74 -119 -193 -189q-121 -71 -246 -71q-97 0 -164 46t-67 111q0 41 27 70q27 28 66 28q31 0 53 -20q20 -22 20 -53q0 -42 -36 -43q-19 -1 -19 -16q0 -26 34 -45q35 -20 77 -20q77 0 159 58q82 59 150 163t113 241l47 144q42 122 75.5 203.5t72.5 149.5q35 64 90 125
q-7 4 -13 4q-19 0 -56 -49q-43 -56 -90 -151q-41 -83 -112 -258q-55 -135 -98 -209q-41 -72 -83 -106q-42 -33 -94 -33q-61 0 -106 65t-45 156q0 137 78 272l68 115q25 43 25 75q0 54 -81 55q-3 1 -18 1z" />
    <glyph glyph-name="z" unicode="z" horiz-adv-x="725" 
d="M180 572l-12 14q14 51 43 74q31 23 81 23q23 0 76 -5q88 -8 110 -8q34 0 76 17q-22 -36 -79 -36q-28 0 -61 3q-69 7 -113 7q-52 0 -76 -18q-25 -18 -45 -71zM206 109q6 -22 6 -32q0 -32 -22 -53t-54 -21q-38 0 -74 36q33 -18 59 -18q76 0 85 88zM618 192l12 -20
q-115 -174 -226 -174q-28 0 -48 12q-20 10 -40 38q38 -30 81 -30q107 0 221 174zM728 790q18 -43 18 -74q0 -55 -31 -110q-32 -58 -87 -107q-38 -35 -92 -59t-123 -34l-70 -11q-42 -6 -73 -19h-50q31 19 59 26t116 21q100 17 159 49q59 31 109 96q68 89 68 182q0 12 -3 40z
M141 627l-34 33q25 53 69 127q25 40 28 49q6 17 7 39q43 17 78 17q65 0 165 -60q58 -34 87 -34q32 0 55 26q-16 16 -16 32q0 18 13 30q13 11 32 11q33 0 56 -32q22 -31 22 -81q0 -128 -103 -228q-39 -39 -88 -60q-52 -22 -139 -38q-100 -16 -154 -36q-54 -19 -96 -55
q-77 -63 -77 -146q0 -30 15 -53q13 -22 36 -22q10 0 23 8q-36 26 -36 65q0 51 39 85q40 35 94 35q46 0 77 -24q31 -27 56 -83q41 -89 84 -89q27 0 57 31q31 34 74 103l30 -52l-13 -20q-55 -82 -99 -117q-44 -34 -100 -34q-44 0 -75 22t-59 71q-25 48 -40 65q-16 14 -39 14
q-18 0 -30 -12t-12 -28q0 -26 20 -26q8 0 15 10q16 -22 16 -44q0 -29 -19 -48t-49 -19q-53 0 -89 45t-36 109q0 77 38 155q37 75 101 127q62 48 150 69q18 5 145 23q65 9 104 25q39 15 70 43q52 46 52 98q0 21 -17 44q-25 -48 -62 -64q-37 -18 -119 -18q-43 0 -55 1
q-85 4 -93 4q-56 0 -94 -21q-38 -23 -65 -72z" />
    <glyph glyph-name="braceleft" unicode="{" horiz-adv-x="787" 
d="M535 794q-78 -27 -151 -120q-74 -92 -121 -220q-47 -129 -47 -238q0 -29 11 -56h-3q-1 -1 -3 -1q-26 0 -26 62q0 72 29 179q30 107 71 183q45 83 112 153q65 66 104 66q6 0 24 -8zM155 209q0 -96 72 -96q37 0 89 42q49 40 100 113q49 71 86 155q37 86 60 173
q21 86 21 152q0 45 -18 70t-50 25q-43 0 -102 -51q-60 -51 -115 -136q-67 -104 -104 -223q-39 -121 -39 -224zM749 716q24 -51 24 -96q0 -116 -54 -233q-28 -69 -75 -132q-49 -66 -112 -120q-72 -62 -143 -95q-70 -33 -152 -43l-26 19q106 7 208 68q100 58 171 143
q71 84 105 166q60 131 60 257q0 32 -6 66zM14 294q0 98 44 206q43 106 118 197q74 90 162 144q89 54 171 54q98 0 154 -62q56 -64 56 -169q0 -79 -25 -160q-25 -82 -73 -161q-47 -77 -111 -139q-71 -68 -145 -104q-76 -39 -139 -39q-94 0 -153 65t-59 168zM532 -45
q12 -5 18 -5q15 0 27 13q-11 -26 -22 -26q-9 0 -23 18zM-42 -77l-18 21q22 14 36 14q19 0 39 -12q18 -11 55 -45l11 -11q-64 46 -96 46q-11 0 -27 -13zM207 -189q36 -42 75 -58q42 -17 104 -17q59 0 119 21q60 22 104 58q46 38 71 84q26 47 26 93v19q8 -34 8 -49
q0 -61 -47 -120t-124 -94q-76 -36 -156 -36q-136 0 -180 99zM-81 -23l-6 40q53 35 98 35q81 0 198 -87q88 -65 141 -88q51 -23 110 -23q35 0 72 17q35 16 57 45q21 28 21 58q0 12 -5 22q-6 9 -13 9q-6 0 -14 -6l-14 -12q-8 -8 -20 -8q-18 0 -33 17t-15 37q0 31 28 56
q26 25 60 25q40 0 65 -30q25 -31 25 -73q0 -59 -41 -115q-42 -57 -110 -90q-68 -34 -141 -34q-63 0 -119 29q-57 29 -138 103q-51 48 -87 74q-33 21 -57 21q-27 0 -62 -22z" />
    <glyph glyph-name="bar" unicode="|" horiz-adv-x="574" 
d="M543 785q11 -35 11 -58q0 -68 -29 -141q-27 -68 -115 -221q-47 -78 -65 -129q-15 -41 -16 -57q-1 -19 -11 -19q-9 0 -9 13q0 24 13 59q13 36 32 76q19 39 56 104q84 150 107 220q27 77 27 123q0 21 -1 30zM88 377l-11 26q33 51 67 129q40 101 63 166l9 25q64 4 137 44
q-10 -24 -31 -37q-20 -12 -91 -32l-9 -25q-74 -201 -134 -296zM487 182l15 -21q-103 -163 -205 -163q-27 0 -43 10q-19 11 -41 36q37 -25 74 -25q51 0 97 37q45 37 103 126zM436 261l30 -49q-62 -90 -104 -124q-44 -35 -90 -35q-58 0 -93 48q-36 47 -36 124q0 47 10 83
q12 41 37 95q40 83 95 165l73 111q48 72 48 101q0 13 -8 23q-7 9 -20 9q-7 0 -67 -23q-43 -17 -64 -21q-25 -5 -60 -5q-58 -186 -132 -322l-35 48q76 145 118 289q-45 41 -45 85q0 32 18 53q17 20 47 20q26 0 42 -18q16 -19 16 -45q0 -17 -12 -55q32 0 59 9q26 7 80 35
q59 30 93 30q36 0 60 -27q23 -29 23 -73q0 -52 -21 -109q-21 -58 -85 -176q-38 -74 -53.5 -103.5t-31.5 -59.5q-34 -69 -49 -113q-13 -39 -13 -72q0 -43 26 -43q24 0 63 39q36 36 81 106z" />
    <glyph glyph-name="braceright" unicode="}" horiz-adv-x="771" 
d="M387 767q25 -56 25 -94q0 -94 -112 -287l-56 -96q-55 -96 -74 -146q-9 11 -9 19q0 26 68 145l25.5 42.5t17.5 30.5q9 15 17.5 30t16.5 31q6 10 12.5 23l13.5 27q65 127 65 206q0 30 -10 69zM130 643l-13 -23l-11 21q31 56 62 103q27 41 35 41q4 0 5 -4q2 -2 2 -4
q0 -7 -6 -15q-21 -31 -38 -61zM578 720q19 -14 37 -17q13 -1 13 -11q0 -11 -10 -11q-14 0 -29 23q0 1 -4.5 7.5t-6.5 8.5zM102 41q57 -30 105 -30q68 0 141 35q71 35 138 99q66 64 125 157q44 70 77 150q35 82 54 157q18 77 18 131q0 13 -3 47q21 -51 21 -94q0 -80 -48 -205
q-49 -128 -118 -226q-59 -84 -127 -148q-63 -59 -132 -91t-132 -32q-36 0 -59 10q-27 11 -60 40zM82 679l-31 50q96 169 202 169q51 0 82 -45q31 -44 31 -119q0 -64 -27 -135q-28 -69 -111 -214l-66 -114q-38 -68 -38 -102q0 -32 24 -52q23 -20 56 -20q52 0 113 35
q59 34 118 99q58 64 106 148q52 91 87 187q35 97 35 141q0 23 -7 38q-7 16 -18 16q-4 0 -12 -5q-13 -9 -28 -9q-22 0 -40 18t-18 42q0 35 28 60q26 25 67 25q27 0 50 -14q21 -13 34 -38q11 -27 11 -61q0 -124 -68 -289q-35 -84 -76 -151.5t-88 -120.5q-76 -84 -155 -127
q-80 -44 -152 -44q-75 0 -121 49t-46 129q0 72 47 177q18 38 102 178q36 60 57 112q18 50 18 95q0 23 -8 37q-7 13 -21 13q-23 0 -59 -43q-38 -44 -78 -115z" />
    <glyph glyph-name="asciitilde" unicode="~" horiz-adv-x="1127" 
d="M546 31q42 -8 68 -8q97 0 206 94q36 32 69 69.5t63.5 82.5t57.5 96q51 96 82 197q29 99 29 167q0 14 -2 40q15 -49 15 -86q0 -78 -44 -196q-43 -116 -113 -221q-77 -117 -171 -188q-94 -72 -172 -72q-41 0 -88 25zM380 763q27 -48 27 -100q0 -64 -36 -144
q-37 -81 -132 -230q-37 -59 -47 -81q-13 -25 -19 -68q-10 17 -10 32q0 22 18 59q9 17 66 107q66 104 105 187q40 81 40 161q0 37 -12 77zM125 643l-13 -23l-12 21q28 48 63 103q25 37 32 37q6 0 6 -7q0 -10 -10 -26l-31 -47q0 -1 -10 -17l-9 -15t-16 -26zM418 224l-7 -49
q-107 -176 -221 -176q-25 0 -41 8q-14 7 -46 35q41 -26 74 -26q57 0 116 50q56 47 125 158zM866 853l13 -32q-29 -80 -56 -147q-66 -159 -124 -278l-55 -111q-34 -69 -53 -134q-5 15 -5 22q0 42 80 207q89 188 138 308q24 59 62 165zM943 722q16 -13 33 -13q7 0 14 4
q-3 -18 -16 -18q-14 0 -31 27zM824 902l12 -7q-35 -111 -76 -212q-43 -103 -117 -258q-68 -144 -81 -178q-15 -36 -15 -71q0 -30 19 -49q18 -21 45 -21q39 0 91 37q54 37 105 97q53 61 99 142q51 91 86 186q36 96 36 142q0 23 -7 38q-7 16 -19 16q-4 0 -12 -5q-13 -9 -28 -9
q-23 0 -40 18q-17 19 -17 41q0 35 28 60t65 25q44 0 70 -35t26 -90q0 -40 -15 -108q-17 -71 -42 -139q-28 -74 -60 -133q-53 -99 -117 -173q-63 -75 -133 -117q-67 -42 -128 -42q-63 0 -103 46t-40 119q0 79 58 202l69 143q37 75 37 98q0 16 -19 20l-9 -20
q-43 -106 -98.5 -216.5t-118.5 -214.5q-111 -181 -215 -181q-61 0 -98 52q-38 53 -38 134q0 99 69 213l75 124q32 51 54 112q20 60 20 97q0 25 -8 39t-24 14q-36 0 -124 -139l-12 -20l-30 52q59 90 105 128q47 38 94 38q54 0 85 -48q31 -47 31 -126q0 -51 -12 -96
q-13 -46 -45 -108q-29 -57 -91 -158q-63 -104 -75 -133q-14 -36 -14 -57q0 -31 15 -49q13 -19 39 -19q30 0 73 42q44 42 87 114q46 76 104 194q57 117 96 212q36 89 36 113q0 17 -8 22q-8 4 -43 4l20 49h143q59 0 86 10q29 11 54 39z" />
    <glyph glyph-name="nonbreakingspace" unicode="&#xa0;" horiz-adv-x="410" 
 />
    <glyph glyph-name="exclamdown" unicode="&#xa1;" horiz-adv-x="507" 
d="M560 1146q14 -34 14 -62q0 -52 -30 -93q-32 -41 -72 -41q-30 0 -52 31q28 -16 46 -16q40 0 69 44q28 43 28 105q0 10 -3 32zM477 1216q27 0 45 -21q17 -23 17 -55q0 -54 -31 -95q-31 -42 -71 -42q-62 0 -62 71q0 33 15 66q13 32 39 55q24 21 48 21zM33 26q19 -13 41 -13
q31 0 57 25q27 25 41 55q25 50 47 116q22 65 41 139l32 122q32 122 66 219q9 28 35 86q-26 -86 -38 -141q-25 -112 -45 -189q-10 -42 -18.5 -72.5t-12.5 -43.5q-44 -174 -87 -253q-44 -80 -110 -80q-26 0 -49 30zM378 945l32 -20q-47 -113 -75 -196q-57 -176 -97 -327
q-24 -93 -33 -123q-29 -113 -68 -178q-37 -63 -78 -63q-25 0 -42 27q-17 28 -17 65q0 45 19 96q20 53 63 132l77 138q46 83 122 239q53 111 86 186z" />
    <glyph glyph-name="cent" unicode="&#xa2;" horiz-adv-x="737" 
d="M421 783q-133 -250 -148 -440q-9 23 -9 56q0 87 53 213q52 124 104 171zM592 773q-26 -56 -54 -127q-22 -55 -54 -145q-23 -66 -59 -187l-25 -3q68 212 105 312q38 101 79 185q41 -40 82 -40q59 0 86 67q0 -41 -27 -67q-26 -25 -57 -25q-47 0 -76 30zM532 906
q-69 -25 -140 -112q-73 -90 -115 -193q-44 -108 -44 -194q0 -50 13 -77q12 -29 29 -41q12 -8 16 -11t12 -8q98 364 229 636zM586 408l27 -46q-143 -155 -279 -155q-64 -168 -149 -168q-51 0 -51 43q0 12 11 26q11 12 26 12q30 0 30 -27q0 -9 -3 -17q26 23 49 59q27 42 37 76
q-92 20 -136 86q-46 67 -46 167q0 115 72 233q70 117 179 196q108 77 207 81q48 67 87 104q40 38 88 38q25 0 39 -13q14 -14 14 -33q0 -14 -12 -26t-32 -12q-28 0 -28 26q0 11 6 15q-37 -6 -100 -97q50 -4 87 -32q36 -27 36 -72q0 -27 -26 -50q-25 -24 -53 -24q-26 0 -43 15
q-17 14 -17 33q0 31 29 45q8 6 8 12q0 21 -47 21q-38 -67 -69.5 -141.5t-68.5 -180.5q-71 -207 -106 -341q64 0 131 49q69 49 103 98zM371 151q-38 -69 -75 -107q-39 -40 -81 -40q-21 0 -44 12q10 -2 23 -2q49 0 86 39q35 36 77 116q146 18 276 168l12 -19
q-140 -152 -274 -167zM808 1052v6q11 -22 11 -33q0 -17 -11 -28t-28 -11q-20 0 -32 19q13 -7 20 -7q17 0 29 16q11 16 11 38zM710 1029l9 -13q-14 -10 -29 -28l-15 7q15 21 35 34z" />
    <glyph glyph-name="sterling" unicode="&#xa3;" horiz-adv-x="1105" 
d="M276 533l-5 -20h-28l-14 20h47zM163 6q-47 16 -66 16q-11 0 -28 -5l-26 -8q-17 -5 -27 -5t-18 6q-4 3 -19 20q19 -8 33 -8q13 0 32 9q21 9 39 9q37 0 80 -34zM1074 1030q3 -19 3 -34q0 -38 -22 -61q-22 -25 -56 -25q-36 0 -57 41q23 -17 48 -17q78 0 84 96zM1001 -104
q4 -20 4 -34q0 -50 -44 -97q-45 -47 -119 -74q-74 -28 -159 -28q-187 0 -292 145q134 -124 298 -124q71 0 149 29q75 28 117 73q26 29 35 50q8 21 11 60zM869 1061l-10 -23q-108 -33 -167 -109q-62 -77 -129 -265h-22q44 134 88 214q45 80 102 124q55 42 138 59zM758 586
l15 -24l-23 -50h-236q-40 -128 -108 -223q-67 -94 -157 -151l-36 7q98 54 167 146q67 90 119 243h236zM489 627h244l-22 -51h-237q-70 -208 -163 -308q-53 -58 -118 -91q-69 -37 -128 -41q-24 -1 -24 -11q0 -4 6 -4q1 0 2 1h3q37 5 66 5q142 0 299 -126l106 -83
q136 -107 254 -107q50 0 88 19q38 20 38 46q0 22 -31 22q-28 1 -28 30q0 25 19 41q20 17 44 17q30 0 49 -22t19 -56q0 -70 -86 -124q-86 -55 -200 -55q-167 0 -342 163l-101 94q-43 42 -90 66q-46 24 -87 24q-21 0 -59 -15q-14 -6 -25 -6q-15 0 -27 17q-13 16 -13 37
q0 45 43 52l48 8q117 21 187 121q71 101 99 286h-121l17 51h112q39 209 150 342q49 58 113 101q66 44 141 69q74 25 144 25q71 0 120 -34t49 -86q0 -33 -21 -56q-23 -23 -55 -23q-30 0 -49 19q-20 18 -20 45q0 28 25 38q13 4 13 13q0 22 -52 22q-74 0 -150 -49t-125 -128
q-71 -119 -124 -298z" />
    <glyph glyph-name="currency" unicode="&#xa4;" 
d="M97 1287v-1274h624v1274h-624zM734 0h-650v1300h650v-1300z" />
    <glyph glyph-name="yen" unicode="&#xa5;" horiz-adv-x="1027" 
d="M388 476l-4 -19h-84l-9 19h97zM840 515l15 -18l-12 -40h-218l5 19h199zM261 1074h-52l-19 7q17 5 29 5q20 0 42 -12zM345 343l-7 -18h-123l-9 18h139zM185 -56l-9 18q93 78 145 78q15 0 32 -11q-41 -3 -73 -18q-34 -16 -80 -55zM209 1023q5 -18 5 -28q0 -24 -18 -41
q-19 -18 -43 -18q-27 0 -41 23q15 -9 27 -9q66 0 70 73zM569 856q17 -23 33 -61l-12 -45l-3 20q-7 54 -18 86zM1211 1068q7 -20 7 -33q0 -30 -21 -53q-21 -24 -49 -24q-26 0 -51 25q20 -12 32 -12q34 0 58 28q24 29 24 69zM598 343h144l12 37l15 -16l-13 -39h-144
q-32 -105 -75 -194.5t-93 -153.5l-10 18q50 75 85 148q32 67 79 200zM1037 1056l-1 -21q-116 -48 -206 -159q-91 -112 -145 -271h-21q59 174 156 292q98 119 217 159zM155 -10l-15 24q75 71 145 170q65 93 103 192h-202l15 51h203q13 49 17 82h-148l17 52h137q2 102 2 86
q0 211 -45 326q-25 68 -72 108q-49 41 -100 41q-27 0 -44 -11q-18 -12 -18 -31q0 -10 15 -13q22 -4 22 -30q0 -23 -16 -39q-17 -17 -41 -17q-25 0 -43 20q-19 19 -19 44q0 50 55 87q55 38 121 38q92 0 163 -55q72 -56 113 -157q41 -102 41 -225q0 -85 -19 -154
q-6 -27 -6 -31q0 -11 17 -13q33 171 116 315q83 142 195 224t229 82q44 0 70 -20q25 -21 25 -57q0 -30 -20 -53t-49 -23q-20 0 -36 14q-16 13 -16 33q0 17 14 25q12 5 12 11q0 12 -21 12q-33 0 -84 -23q-47 -23 -98 -63q-193 -162 -274 -451h204l-15 -52h-203l-24 -82h155
l-15 -51h-155q-68 -209 -165 -347q-40 48 -80 48q-50 0 -163 -87z" />
    <glyph glyph-name="section" unicode="&#xa7;" horiz-adv-x="698" 
d="M173 572l-13 15q21 55 48 76q28 20 77 20q21 0 76 -5q88 -8 110 -8q39 0 96 23q-15 -20 -40 -32q-23 -10 -60 -10q-25 0 -60 3q-90 8 -113 8q-52 0 -77 -19t-44 -71zM198 109q6 -22 6 -32q0 -32 -22 -53t-54 -21q-36 0 -74 36q33 -18 59 -18q36 0 55 21q19 19 30 67z
M1084 -221q10 -23 10 -43q0 -65 -70 -116t-161 -51q-69 0 -126 28q-58 27 -114 86q122 -93 233 -93q62 0 117 27q54 25 86 71q23 34 25 91zM721 790q18 -40 18 -74q0 -51 -32 -110t-86 -107q-79 -73 -215 -93l-69 -11q-42 -6 -73 -19h-51q31 19 59 26q29 8 117 21
q101 17 158 49q60 32 109 96q68 89 68 182q0 12 -3 40zM251 160l-17 1h-25h-18l-21 29q47 -4 81 -30zM135 627l-35 33q38 75 69 127q25 40 28 49q6 17 7 39q45 17 78 17q65 0 165 -60q58 -34 87 -34q32 0 55 26q-16 16 -16 32q0 18 13 30q13 11 32 11q33 0 56 -32
q22 -31 22 -81q0 -128 -103 -228q-39 -39 -88 -60q-52 -22 -138 -38q-101 -17 -155 -36t-96 -55q-77 -63 -77 -146q0 -30 15 -53q13 -22 36 -22q10 0 23 8q-36 26 -36 64q0 50 38 83q38 32 94 32q83 0 156 -60q76 -62 148 -187l77 -131q151 -259 303 -259q37 0 64 15
q26 15 26 36q0 15 -11 15h-4q-1 0 -3 -0.5t-3 -1.5h-3q-14 0 -25 12q-11 11 -11 27q0 24 20 42q20 17 48 17q30 0 49 -19q18 -20 18 -51q0 -44 -28 -79t-76 -57q-45 -22 -103 -22q-121 0 -240 106q-65 56 -118 135q-20 31 -46 76q-2 6 -15 28q-15 23 -27 46
q-62 107 -115 156t-112 49q-26 0 -41 -12q-16 -13 -16 -31q0 -8 7 -15q6 -8 14 -8q7 0 14 10q16 -22 16 -44q0 -29 -19 -48q-20 -20 -51 -20q-52 0 -87 45q-35 46 -35 111q0 75 39 154t99 127q58 46 150 70q59 11 145 22q65 9 104 25q39 15 70 43q52 46 52 98q0 21 -17 44
q-23 -47 -61 -64q-37 -18 -119 -18q-44 0 -56 1q-85 4 -93 4q-56 0 -94 -21q-37 -22 -64 -72z" />
    <glyph glyph-name="dieresis" unicode="&#xa8;" horiz-adv-x="785" 
d="M628 1240q21 -33 21 -66q0 -58 -36 -102t-83 -44q-31 0 -57 29q22 -13 41 -13q46 0 84 47q36 47 36 105q0 19 -6 44zM422 1166q0 56 39 102q37 46 81 46q29 0 48 -24q19 -23 19 -59q0 -60 -34 -104q-34 -46 -80 -46q-33 0 -53 23t-20 62zM342 1240q21 -31 21 -66
q0 -57 -35 -101q-36 -45 -83 -45q-32 0 -58 29q25 -13 41 -13q47 0 85 47q36 47 36 105q0 17 -7 44zM137 1166q0 55 38 102q37 46 81 46q29 0 48 -24q19 -23 19 -59q0 -60 -34 -104q-34 -46 -79 -46q-33 0 -53 23t-20 62z" />
    <glyph glyph-name="copyright" unicode="&#xa9;" horiz-adv-x="1232" 
d="M468 895h-21q46 124 121 207q74 80 141 80q29 0 29 -15q0 -7 -15 -12q-12 5 -19 5q-29 0 -69 -26q-39 -26 -73 -69q-50 -66 -94 -170zM390 858h151q45 0 67 15q21 13 40 53q44 100 111 197q18 29 18 44q0 23 -19 38q-20 14 -52 14q-88 0 -174 -99q-86 -100 -142 -262z
M195 768h-76l14 -23h52zM-25 -39l-10 16q86 64 111 64q13 0 14 -15h-4q-19 0 -90 -51q-2 -1 -7 -4t-14 -10zM-14 -135v22q11 -41 11 -53q0 -24 -15 -24q-5 0 -13 8q17 11 17 47zM1054 1021h-25l-15 23l14 2q20 0 26 -25zM1152 191l9 -23q-118 -177 -218 -177q-39 0 -72 37
q34 -19 61 -19q51 0 104 44q54 44 116 138zM400 768h149l-8 -23h-124l-6 -22l-31 -127q-9 -34 -33 -135q-58 -243 -96 -330q-34 -81 -85 -147l-11 19q57 81 90 168q33 90 77 278q4 18 26 108q3 11 12 48t14 59q10 41 17 68zM1362 1127l-10 -31q-48 -154 -108 -293
q-24 -58 -63.5 -142.5t-102.5 -209.5q-51 -103 -63 -129q-15 -33 -29 -71q-16 -40 -20 -68q-4 -21 -13 -21q-10 0 -10 14q0 13 13 55q21 62 113 250q114 228 159 336q62 149 109 299l8 26q70 30 70 89q0 11 -1 15q9 -16 9 -34q0 -60 -61 -85zM1211 1274l-14 -21
q-54 0 -104 -27t-95 -80q-97 -114 -141 -251h-26q48 123 105 208q55 84 121 128q64 43 134 43h20zM961 813l14 -20l-17 -48h-158l-10 -31l-47 -140l-54 -165q-44 -129 -70 -197q-29 -75 -64 -144q-63 -125 -151 -220q-88 -96 -187 -150q-98 -53 -187 -53q-92 0 -144 58
q73 -37 136 -37q147 0 303 135q76 67 133 148q56 80 106 193q47 105 106 281l53 163l52 155l2.5 5t0.5 3q1 1 1.5 3t0.5 4q2 5 3 12h161zM1315 1181l-7 -23q-36 -112 -77 -223q-33 -91 -74 -182t-99 -203q-82 -163 -118 -249q-37 -87 -37 -136t34 -49q28 0 70 45
q41 43 84 116l32 -47q-58 -97 -105 -137q-48 -42 -98 -42q-58 0 -95 46q-37 44 -37 121q0 99 51 226q15 38 86 174q60 114 98 196q74 157 74 206q0 33 -25 49t-82 19l27 48l169 -2q52 0 74 9q24 10 40 37q-29 2 -46 16q-19 13 -19 34q0 28 29 40q13 7 13 13q0 14 -21 24
t-53 10q-152 0 -274 -159q-43 -57 -71 -112q-32 -63 -71 -162l-10 -26h156l-18 -51h-162l-6 -21l-61 -184q-49 -151 -83 -246t-61 -160q-54 -127 -122 -224q-63 -90 -127 -148q-65 -59 -131 -86q-66 -28 -142 -28q-96 0 -157 44q-61 43 -61 113q0 42 24 71q22 28 60 28
q31 0 57 -23q24 -24 24 -54q0 -17 -9 -29q-10 -13 -22 -13q-5 0 -12 4q-1 1 -6 1q-9 0 -9 -12q0 -30 32 -50q31 -21 76 -21q142 0 267 167q38 51 72 115q32 60 64 146q33 93 73 227l55 187q10 37 30 104q3 9 8 25t6 22l2.5 10t1.5 5q1 2 1.5 4t0.5 3l3 12l3 11h-229l-8 -27
q-14 -50 -45 -172l-38 -151q-45 -181 -77 -270q-31 -85 -78 -153q-13 45 -50 45q-48 0 -136 -74l-8 22q53 70 116 223q20 47 66 170t69 192l56 160l13 35h-163l23 51h19h9h24q74 0 100 13q26 14 51 60q94 177 194 262t216 85q73 0 135 -47q176 140 359 140q71 0 118 -32
q46 -31 46 -81q0 -63 -71 -77z" />
    <glyph glyph-name="ordfeminine" unicode="&#xaa;" 
d="M97 1287v-1274h624v1274h-624zM734 0h-650v1300h650v-1300z" />
    <glyph glyph-name="guillemotleft" unicode="&#xab;" horiz-adv-x="912" 
d="M722 148l12 -22q-63 -88 -116 -88q-26 0 -58 32q25 -14 43 -14q29 0 57 20t62 72zM822 747l15 -26q-45 -72 -116 -143q-69 -69 -145 -117q1 -3 11 -29l36 -97l31 -88q1 -1 7 -18q-4 -4 -9 -4q-9 0 -13 7q-7 7 -17 34q-2 6 -7.5 21t-8.5 22q-30 90 -61 163q79 45 148 114
t129 161zM691 200l8 -14q-63 -95 -110 -95q-33 0 -62 36q-28 35 -60 117q-54 145 -74 189q-11 22 -11 30q0 19 31 32q61 28 122 79q63 52 117 118q57 69 101 148l48 -55q-71 -104 -136.5 -171.5t-135.5 -110.5q-29 -17 -29 -24q0 -4 6 -16q22 -37 52 -129q35 -103 56 -130
q22 -28 43 -28q18 0 34 24zM402 148l11 -22q-61 -88 -116 -88q-28 0 -57 32q25 -14 42 -14q29 0 58 20q28 20 62 72zM501 747l15 -26q-45 -72 -115 -142q-71 -71 -145 -118q8 -17 8 -19q2 -12 2 -10l37 -97l31 -88l7 -18q-7 -4 -10 -4q-9 0 -13 7q-7 7 -17 34q-2 6 -7.5 21
t-8.5 22q-33 95 -60 163q154 87 276 275zM370 200l9 -14q-65 -95 -111 -95q-34 0 -61 34q-29 35 -60 119q-58 155 -75 189q-11 22 -11 30q0 18 32 32q63 30 122 79q60 50 117 119q52 65 100 147l48 -55q-138 -202 -272 -282q-28 -16 -28 -24q0 -7 6 -16q17 -30 52 -129
q34 -103 55 -130q22 -28 44 -28q17 0 33 24z" />
    <glyph glyph-name="logicalnot" unicode="&#xac;" horiz-adv-x="795" 
d="M-3 -110q12 -23 12 -41q0 -28 -20 -28q-8 0 -13 11q23 8 23 37q0 -9 -2 21zM144 628l-14 17q27 58 54 98q24 37 36 37q4 0 7 -5q2 -2 2 -4q0 -3 -5 -8q-40 -45 -80 -135zM129 33q33 -21 59 -21q77 0 149 72l-22 -46q-32 -22 -45 -29q-14 -8 -32 -13q-13 -4 -35 -4
q-23 0 -39 8t-35 33zM406 782q32 -59 32 -114q0 -56 -30 -125q-31 -71 -105 -188q-9 -15 -15 -24.5t-20 -31.5q-8 -12 -15.5 -24.5t-16.5 -26.5q-31 -49 -34 -74l-3 -17q-1 -16 -12 -16t-11 16q0 39 71 151q84 130 127 211q46 91 46 174q0 38 -14 89zM-111 -275
q70 -48 153 -48q63 0 138 24q72 23 145 68q67 42 120 100q46 50 78 106t58 130q23 71 46 176l34 165q28 139 81 265q31 75 67 105l12 10q15 14 15 33q9 -12 9 -22q0 -16 -20 -38q-37 -40 -59 -91q-30 -69 -49 -137q-19 -61 -43 -179q-34 -165 -50 -229q-26 -90 -58 -157
q-36 -72 -79 -125q-46 -57 -103 -100q-78 -57 -168 -91q-90 -33 -167 -33q-57 0 -92 16q-37 16 -68 52zM104 685l-33 51q103 172 199 172q52 0 87 -47q33 -46 33 -118q0 -132 -121 -326l-62 -101q-67 -106 -67 -149q0 -26 15 -43q14 -17 33 -17q54 0 103 67q52 71 118 226
l78 182q36 85 76.5 155t86.5 125q54 64 108 64q26 0 43 -13q18 -13 18 -32q0 -13 -25 -28q-30 -19 -49 -50q-19 -29 -49 -101q-22 -60 -34 -100t-30 -106q-20 -79 -29 -122q-6 -27 -23 -101q-36 -156 -75 -239q-41 -85 -112 -156q-46 -46 -107 -84q-63 -39 -120 -56
q-58 -19 -122 -19q-97 0 -167 49t-70 115q0 40 27 67t66 27q32 0 55 -20q22 -19 22 -51q0 -16 -10 -29q-10 -15 -23 -16l-16 -1q-3 0 -8 -5q-5 -7 -5 -10q0 -24 39 -46q37 -22 81 -22q80 0 164 63q84 62 145 167q59 98 108 229q25 63 75 208q60 170 103 257q53 103 99 146
q16 13 16 19q0 7 -10 7q-25 0 -67 -59q-51 -69 -116 -213q-46 -100 -117 -269q-68 -163 -131 -223q-59 -55 -126 -55q-62 0 -96 43q-36 42 -36 116q0 65 22 128q24 68 77 159q83 144 104 205q21 60 21 90q0 21 -10 34q-11 14 -24 14q-22 0 -58 -43q-38 -46 -74 -115z" />
    <glyph glyph-name="registered" unicode="&#xae;" horiz-adv-x="889" 
d="M468 890h-21q46 125 121 208q74 80 141 80q29 0 29 -15q0 -8 -15 -13q-12 5 -19 5q-29 0 -69 -26q-39 -26 -73 -69q-50 -66 -94 -170zM390 853h151q44 0 67 14q22 13 39 55q48 103 112 197q18 26 18 44q0 22 -19 37q-20 14 -52 14q-88 0 -174 -99q-86 -100 -142 -262z
M195 764l-10 -23h-52l-14 23h76zM1211 1269l-14 -20q-110 -3 -199 -108q-96 -113 -141 -250h-26q48 123 105 208q56 83 121 127q64 43 134 43h20zM-25 -44l-10 17q86 63 111 63q13 0 14 -15q-1 1 -4 1q-19 0 -90 -51q-4 -2 -8 -6q-8 -6 -13 -9zM400 764h147l-6 -23h-124
l-6 -22l-31 -127q-9 -35 -33 -136q-35 -146 -53 -204q-24 -79 -43 -126q-36 -83 -85 -146l-11 18q58 82 89 168q32 86 78 279q68 281 69 283zM-14 -140v22q11 -39 11 -53q0 -24 -15 -24q-5 0 -13 8q17 11 17 47zM1421 1232v13q7 -18 7 -38q0 -35 -28 -62t-67 -27
q-31 0 -51 29q27 -11 42 -11q25 0 48 14t36 35q13 22 13 47zM961 809l14 -20l-17 -48h-158l-10 -31l-47 -140l-54 -165q-41 -126 -70 -198q-33 -84 -64 -144q-63 -125 -151 -220q-88 -96 -187 -150q-98 -53 -187 -53q-90 0 -144 58q73 -37 136 -37q149 0 303 136
q59 51 101 104q44 55 83 126q43 79 83 175q41 104 78 217l53 162l52 156l4 12q1 4 2.5 8t1.5 7h161zM777 853h156l-18 -50h-162l-6 -21l-61 -184q-55 -173 -101 -297q-42 -111 -81 -191q-38 -78 -84 -143q-63 -90 -126 -147q-62 -57 -132 -86q-66 -28 -142 -28
q-98 0 -157 43q-61 43 -61 113q0 43 24 72q22 28 60 28q31 0 57 -23q24 -24 24 -55q0 -16 -9 -29t-22 -13q-3 0 -12 4l-6 2q-9 0 -9 -13q0 -29 32 -49q31 -21 76 -21q143 0 267 166q38 51 72 115q32 60 64 146q33 93 73 227l55 187q6 27 30 104q3 9 8 25t6 22l2.5 10t1.5 5
q1 2 1.5 4t0.5 3l3 12l3 12h-229l-8 -28q-13 -49 -45 -171l-38 -151q-45 -179 -77 -270q-32 -88 -78 -154q-13 46 -50 46q-47 0 -136 -75l-9 22q33 44 56 89q20 38 61 135q20 48 64 165.5t71 195.5l56 160l13 36h-163l23 50h52q68 0 98 14q27 13 53 60q93 175 194 261
q100 85 216 85q76 0 135 -47q175 140 359 140q71 0 118 -32q46 -31 46 -81q0 -34 -23 -55q-22 -22 -61 -22q-28 0 -48 14q-19 13 -19 36q0 28 29 40q13 4 13 12q0 14 -20 25q-19 9 -54 9q-152 0 -274 -159q-39 -51 -73 -117q-34 -64 -69 -156z" />
    <glyph glyph-name="macron" unicode="&#xaf;" 
d="M97 1287v-1274h624v1274h-624zM734 0h-650v1300h650v-1300z" />
    <glyph glyph-name="degree" unicode="&#xb0;" 
d="M97 1287v-1274h624v1274h-624zM734 0h-650v1300h650v-1300z" />
    <glyph glyph-name="plusminus" unicode="&#xb1;" horiz-adv-x="752" 
d="M515 775q-58 -14 -103 -65q-49 -56 -100 -157q-49 -99 -75 -193q-26 -95 -26 -162q0 -13 3 -46q-12 20 -15 36q-4 15 -4 40q0 50 18 120q16 68 47 144q30 74 68 136q43 73 88 116q46 44 78 44q12 0 21 -13zM569 707q0 55 -19 89t-51 34q-42 0 -98 -48q-57 -49 -107 -129
q-38 -57 -73 -139q-32 -76 -52 -154q-19 -75 -19 -131q0 -58 20 -90q20 -33 53 -33q104 0 216 190q55 90 93 211q37 117 37 200zM392 1253l-63 -2l-22 11q20 7 37 7q22 0 48 -16zM329 1192q6 -19 6 -34q0 -28 -20 -48q-21 -21 -49 -21q-26 0 -50 27q17 -10 32 -10
q78 0 81 86zM746 1052q41 -96 41 -190t-24 -199q-23 -102 -68 -213q-43 -104 -101 -196q-78 -122 -175 -192t-191 -70q-37 0 -65 14q-26 13 -51 46q32 -22 57 -30q24 -9 56 -9q101 0 204 85q104 84 186 234q46 82 81 179q33 93 52 189q17 96 17 181q0 86 -19 171zM583 812
l1 39q0 136 -31 238q-32 105 -87 163q-57 59 -127 59q-35 0 -57 -13q-23 -14 -23 -35q0 -11 15 -17q30 -9 30 -35q0 -27 -21 -47q-22 -21 -49 -21t-50 23q-22 22 -22 53q0 39 30 73q31 36 79 56q51 20 104 20q75 0 141 -32q65 -33 113 -93q48 -62 75 -142q26 -84 26 -180
q0 -200 -78 -404q-78 -206 -199 -337q-121 -132 -239 -132q-95 0 -147 70q-53 71 -53 194q0 68 19 137q20 72 58 141q36 66 91 129q154 175 295 175q41 0 65 -18q25 -20 41 -64z" />
    <glyph glyph-name="acute" unicode="&#xb4;" horiz-adv-x="640" 
d="M187 1017l-12 18l235 92q43 18 61 38q20 23 20 56q0 6 -3 24q16 -31 16 -49q0 -58 -97 -95zM158 1071l-21 38l238 176q19 16 44 16q21 0 34 -13t13 -38q0 -57 -77 -89z" />
    <glyph glyph-name="mu" unicode="&#xb5;" horiz-adv-x="460" 
d="M1024 1230v14q10 -23 10 -44q0 -36 -24 -62q-25 -27 -60 -27q-27 0 -59 29q26 -12 44 -12q38 0 64 29q25 28 25 73zM385 189l15 -25q-118 -172 -211 -172q-21 0 -34 7q-15 8 -39 31q30 -18 53 -18q96 0 216 177zM814 1250h-16q-43 0 -101 -40t-106 -103
q-66 -88 -138 -227q-43 -84 -74.5 -154t-72.5 -172q-47 -114 -77 -216q-32 -105 -34 -148q-1 -27 -12 -27q-13 0 -13 23q0 28 17 94q17 67 48 158q51 143 107 270q56 126 115 234q63 115 109 174q54 70 119 115q63 42 115 42q-6 0 28 -2l-5 -7q-1 -2 -4 -5l-3 -6q0 -1 -2 -3
zM323 280l36 -55q-59 -93 -108 -136q-48 -42 -97 -42q-56 0 -91 51q-36 50 -36 130q0 73 21 164q22 94 70 225q86 232 177 382q50 84 114 153q66 70 132 116q71 49 140 73q73 26 142 26q74 0 123 -34t49 -86q0 -36 -22 -58q-23 -23 -59 -23q-28 0 -48 17q-21 17 -21 39
q0 19 13 29l20 17q4 4 4 10q0 14 -16 23q-18 8 -44 8q-124 0 -231 -107q-107 -108 -225 -349q-37 -78 -66 -145q-17 -38 -55 -130q-33 -80 -50 -132q-30 -88 -45 -158q-16 -68 -16 -114q0 -23 11 -40t27 -17q55 0 151 163z" />
    <glyph glyph-name="paragraph" unicode="&#xb6;" horiz-adv-x="1974" 
d="M1357 15h-168q-33 0 -47 -7q-16 -7 -28 -30l-11 21q19 25 34 33q14 6 53 6l149 1q31 95 61.5 173.5t75.5 173t78 155.5q51 95 102 165t68 70q9 0 9 -9q0 -3 -4 -7q-62 -63 -131 -184q-42 -75 -71 -133t-67 -145q-65 -149 -103 -283zM1886 182l17 -26q-55 -84 -105 -124
q-49 -39 -105 -39q-42 0 -79 40q40 -22 71 -22q99 0 201 171zM544 634v15q8 -21 8 -37q0 -37 -25 -62q-26 -26 -62 -26q-37 0 -67 37q35 -18 57 -18q36 0 63 28q26 28 26 63zM624 912q-58 -3 -99 -54q-48 -58 -48 -120q0 -14 1 -19q-9 6 -14 15q-4 7 -4 23q0 36 21 75
q19 38 52 65q32 26 60 26q14 0 31 -11zM889 -10l-11 21q86 110 156 285q32 78 67.5 191.5t66.5 238.5l35 137q35 133 88 219q80 -28 154 -41l-12 -21q-38 5 -63 11q-19 5 -69 21q-46 -75 -81 -212l-34 -138q-28 -116 -68 -242q-42 -126 -76 -208q-62 -151 -153 -262z
M1642 1279q6 -25 6 -40q0 -24 -16 -40q-17 -17 -42 -17q-18 0 -37 17q14 -3 21 -3q29 0 49 23q19 22 19 60zM1706 1134l14 -22q-42 -127 -96 -246l-38 -36q55 124 107 269zM1428 1208l-18 9q37 24 75 32l3 -18q-29 -8 -60 -23zM598 -57l-10 22q112 94 172 94q16 0 39 -14
q-48 -3 -85 -21q-40 -19 -98 -66zM851 876q29 -66 29 -116q0 -76 -40 -160q-40 -86 -109 -158q-60 -66 -145 -106q-83 -40 -161 -40q-96 0 -147 68q33 -24 69 -35q35 -11 75 -11q107 0 209 69q103 68 167 180q65 113 65 224q0 33 -12 85zM1913 769q20 -48 20 -90
q0 -56 -27 -124q-18 -46 -107 -211q-36 -67 -48 -98q-17 -43 -25 -77q-4 -18 -13 -18q-11 0 -11 14q0 11 14 51q19 55 84 178q67 126 91 182q30 72 30 132q0 19 -8 61zM1130 1131l-14 -16q-220 78 -350 78q-194 0 -330 -133q-81 -76 -124 -176q-44 -102 -44 -207
q0 -50 14 -122q-19 42 -27 73q-8 30 -8 68q0 94 42 194q41 97 113 175q45 48 101 81q60 35 120 53q63 17 127 17q170 0 380 -85zM1260 1250l8 -4q137 117 253 117q43 0 69 -20q25 -19 25 -53q0 -23 -20 -45q-19 -21 -45 -21q-10 0 -18 6q-7 4 -7 13q0 3 3 10q1 3 1 11
q0 12 -9 21q-11 8 -26 8q-70 0 -163 -81q66 -38 111 -53q42 -14 86 -14q91 0 143 49l11 -20q-82 -244 -212 -512l-70 -146l-64 -135q-52 -107 -52 -124q0 -19 18 -19q8 0 10 1q85 202 180 376q56 102 102 162q44 59 87 88q42 27 89 27q53 0 88 -38q33 -37 33 -100
q0 -109 -94 -282l-56 -105q-79 -148 -79 -210q0 -42 30 -42q24 0 63 41q38 40 82 109l28 -47q-65 -99 -106 -135q-43 -38 -89 -38q-56 0 -94 48q-37 47 -37 122q0 114 110 299l69 118q51 86 51 133q0 25 -10 39q-11 14 -28 14q-35 0 -100 -81q-67 -85 -128 -202
q-48 -91 -103 -221q-60 -140 -92 -236h-130q-38 0 -53 -7q-17 -7 -43 -33h-13q16 53 30 91q14 35 45 114q72 174 158 365l74 162q75 168 94 222q16 42 16 60q0 24 -58 36q-48 11 -131 34l-25 7q-33 -53 -60 -115q-34 -82 -76 -244q-70 -280 -135 -444q-30 -76 -66 -145.5
t-83 -136.5q-49 58 -95 58q-58 0 -194 -103l-19 28q58 52 107 115q47 61 112 167q83 139 142 264q30 65 81 191q40 97 69 161q26 55 55 103q26 43 72 107l15 20l-26 9q-169 58 -224 70q-39 10 -93 16t-91 6q-258 0 -415 -193q-69 -83 -104 -175q-37 -93 -37 -186
q0 -75 27 -138q25 -61 73 -100q47 -38 103 -38q90 0 165 90q57 68 92 154q35 87 35 155q0 62 -30 99q-31 37 -81 37q-66 0 -120 -73q-55 -73 -55 -161q0 -58 44 -58q23 0 30 33q28 -12 28 -40q0 -34 -25 -58q-25 -25 -60 -25q-45 0 -74 39q-30 38 -30 96q0 85 43 164
q44 80 111 129q68 50 140 50q56 0 103 -29q46 -28 75 -82q27 -54 27 -116q0 -117 -59 -227q-57 -108 -154 -175q-94 -67 -198 -67q-127 0 -203 97q-77 97 -77 259q0 135 52 258q50 121 143 217q48 48 100.5 84t111.5 61q117 52 251 52q78 0 146 -13q74 -14 143 -41
q70 -27 168 -80z" />
    <glyph glyph-name="periodcentered" unicode="&#xb7;" horiz-adv-x="366" 
d="M126 588q0 55 39 106t82 51q29 0 47 -20q17 -22 17 -51q0 -57 -40 -106q-41 -50 -86 -50q-59 0 -59 70zM336 656v13q7 -27 7 -48q0 -58 -37 -104q-38 -47 -84 -47q-30 0 -54 31q25 -14 42 -14q52 0 89 51q37 49 37 118z" />
    <glyph glyph-name="periodcentered" unicode="&#x2219;" horiz-adv-x="366" 
d="M126 588q0 55 39 106t82 51q29 0 47 -20q17 -22 17 -51q0 -57 -40 -106q-41 -50 -86 -50q-59 0 -59 70zM336 656v13q7 -27 7 -48q0 -58 -37 -104q-38 -47 -84 -47q-30 0 -54 31q25 -14 42 -14q52 0 89 51q37 49 37 118z" />
    <glyph glyph-name="cedilla" unicode="&#xb8;" 
d="M97 1287v-1274h624v1274h-624zM734 0h-650v1300h650v-1300z" />
    <glyph glyph-name="ordmasculine" unicode="&#xba;" 
d="M97 1287v-1274h624v1274h-624zM734 0h-650v1300h650v-1300z" />
    <glyph glyph-name="guillemotright" unicode="&#xbb;" horiz-adv-x="912" 
d="M791 447l13 -22q-39 -64 -81 -117q-45 -54 -94 -99q-52 -46 -111 -87q-49 -34 -143 -86l-11 24q288 139 427 387zM343 94l-24 63q192 83 344 278q-22 17 -33 35q-11 17 -29 64q-52 139 -86 177q-20 23 -40 23q-11 0 -21 -16l-6 25q11 10 54 53q33 33 55 33q53 0 135 -210
q37 -94 57 -112l10 -8q6 -6 6 -12q0 -18 -51 -86q-53 -70 -105 -122q-25 -27 -71 -63q-43 -34 -93 -66q-43 -27 -102 -56zM472 447l13 -22q-39 -64 -81 -117q-45 -54 -94 -99q-52 -46 -111 -87q-49 -34 -143 -86l-11 24q288 139 427 387zM24 94l-24 63q192 83 344 278
q-22 17 -33 35q-11 17 -29 64q-52 139 -86 177q-20 23 -40 23q-11 0 -21 -16l-6 25q11 10 54 53q33 33 55 33q53 0 135 -210q37 -94 57 -112l10 -8q6 -6 6 -12q0 -18 -51 -86q-53 -70 -105 -122q-49 -49 -123 -101q-69 -49 -143 -84z" />
    <glyph glyph-name="questiondown" unicode="&#xbf;" horiz-adv-x="760" 
d="M547 143q2 -34 2 -28q0 -46 -39 -81q-40 -34 -94 -34q-29 0 -53 8q-25 8 -64 30q59 -18 94 -18q63 0 104 32q39 32 50 91zM566 846q40 -55 40 -111q0 -64 -44 -126q-46 -62 -145 -138q-52 -39 -88 -68q-24 -20 -39 -38q-53 -62 -53 -121q0 -9 3 -27q-12 23 -12 45
q0 54 32 100q33 45 119 111q78 60 122 105q45 47 66 90q20 45 20 93q0 39 -21 85zM624 1146q14 -36 14 -62q0 -53 -30 -94q-32 -41 -72 -41q-29 0 -52 32q28 -16 46 -16q40 0 69 44q28 43 28 105q0 8 -3 32zM541 1216q27 0 45 -22t18 -54q0 -54 -31 -95q-31 -42 -71 -42
q-63 0 -63 71q0 52 33 97q32 45 69 45zM408 911l21 40q59 -2 91 -41q33 -40 33 -106q0 -73 -42 -138q-44 -67 -139 -139q-109 -82 -131 -112q-44 -59 -44 -127t44 -118t103 -50q48 0 48 25q0 9 -16 25q-17 17 -17 35q0 28 21 47q20 19 52 19q41 0 66 -27q26 -28 26 -66
q0 -53 -43 -89t-109 -36q-75 0 -140 41q-64 40 -102 112q-39 71 -39 152q0 200 188 310l95 54q47 29 72 60q24 32 24 69q0 29 -16 45q-16 15 -46 15z" />
    <glyph glyph-name="Agrave" unicode="&#xc0;" horiz-adv-x="1792" 
d="M1236 767h-23q58 117 126 214q68 95 138 162q70 65 145 106q74 41 153 51l-24 -25q-114 -29 -229 -124q-140 -117 -273 -361zM888 606l-15 -21l-24 -1q-354 -23 -502 -96q-77 -38 -124 -98q-47 -59 -47 -118q0 -43 34 -110q-31 32 -42 59q-12 29 -12 60q0 88 87 164
q86 76 231 112q79 19 185 33q99 11 229 16zM1149 727q12 -1 39 -1q123 0 300 19l9 23q97 238 197 383q77 110 191 174q-28 21 -65 21q-65 0 -139 -28q-73 -27 -147 -79q-71 -49 -134 -118q-49 -54 -115 -156q-39 -61 -74.5 -124.5t-61.5 -113.5zM965 648l-28 -1
q-118 -4 -231 -15q-104 -10 -193 -28q-78 -16 -140 -41q-127 -50 -189 -121q-64 -71 -64 -162q0 -59 27 -106q27 -48 77 -74t113 -26q79 0 154 34q74 33 153 104q78 72 155 177q83 113 166 259zM1107 -61l-13 22l13 10q106 77 154 77q22 0 42 -14q-12 2 -21 2q-27 0 -64 -20
q-34 -18 -111 -77zM2007 1278q0 -25 -5 -33q-6 -8 -26 -8q-49 0 -102 -69q-60 -81 -104 -201l-26 -7q56 146 112 221q57 76 109 76h18q14 0 24 21zM1873 849v19q10 -24 10 -44q0 -110 -200 -172q-19 -78 -51 -182q-32 -103 -69 -191q-72 -180 -169 -294l-12 23
q86 95 160 277q75 187 125 385q95 23 150 72q56 50 56 107zM1419 628l-10 -18q-95 -14 -233 -18l-25 -1l-10 -21q-64 -137 -127.5 -235.5t-132.5 -170.5q-66 -69 -151 -123q-80 -50 -176 -80q-93 -29 -178 -29q-146 0 -215 82q58 -32 108 -47q45 -13 105 -13q135 0 271 65
q137 65 237 179q54 63 89 114q35 49 79 129q47 83 80 154l9 20h33q131 0 247 13zM1071 0l-16 20q90 92 141 159q55 75 106 166q96 172 155 326l-29 -3q-101 -11 -201 -13l-87 -2l-26 -1l-8 -18q-64 -143 -125 -239q-60 -96 -134 -176q-211 -226 -481 -226q-95 0 -172 42
q-78 42 -122 116q-45 74 -45 163q0 94 53 185q51 88 142 145q74 47 179 68q108 20 257 20q-16 0 130 -2l185 -3l39 -1l19 31q89 146 174 255q83 106 185 202q95 89 210 138q117 50 224 50q69 0 109 -22q41 -23 41 -60q0 -17 -6 -22q-7 -5 -30 -7q-34 -2 -76 -44
q-44 -44 -84 -112q-39 -69 -72 -165q-32 -90 -56 -196q116 44 116 102q0 22 -19 34q21 26 46 26t40 -16q14 -17 14 -44q0 -56 -56 -101q-53 -45 -158 -74q-47 -188 -112 -360q-67 -181 -162 -297q-38 50 -92 50q-69 0 -196 -94zM1915 1470l28 49l15 -23l-31 -54l-219 89
q-44 19 -73 63q18 -18 44 -29zM1682 1735l238 -176l-22 -38l-230 90q-77 32 -77 89q0 25 13 38t34 13q25 0 44 -16z" />
    <glyph glyph-name="Aacute" unicode="&#xc1;" horiz-adv-x="1792" 
d="M1236 767h-23q58 117 126 214q68 95 138 162q70 65 145 106q74 41 153 51l-24 -25q-114 -29 -229 -124q-140 -117 -273 -361zM888 606l-15 -21l-24 -1q-354 -23 -502 -96q-77 -38 -124 -98q-47 -59 -47 -118q0 -43 34 -110q-31 32 -42 59q-12 29 -12 60q0 88 87 164
q86 76 231 112q79 19 185 33q99 11 229 16zM1149 727q12 -1 39 -1q123 0 300 19l9 23q97 238 197 383q77 110 191 174q-28 21 -65 21q-65 0 -139 -28q-73 -27 -147 -79q-71 -49 -134 -118q-49 -54 -115 -156q-39 -61 -74.5 -124.5t-61.5 -113.5zM965 648l-28 -1
q-118 -4 -231 -15q-104 -10 -193 -28q-78 -16 -140 -41q-127 -50 -189 -121q-64 -71 -64 -162q0 -59 27 -106q27 -48 77 -74t113 -26q79 0 154 34q74 33 153 104q78 72 155 177q83 113 166 259zM1107 -61l-13 22l13 10q106 77 154 77q22 0 42 -14q-12 2 -21 2q-27 0 -64 -20
q-34 -18 -111 -77zM2007 1278q0 -25 -5 -33q-6 -8 -26 -8q-49 0 -102 -69q-60 -81 -104 -201l-26 -7q56 146 112 221q57 76 109 76h18q14 0 24 21zM1873 849v19q10 -24 10 -44q0 -110 -200 -172q-19 -78 -51 -182q-32 -103 -69 -191q-72 -180 -169 -294l-12 23
q86 95 160 277q75 187 125 385q95 23 150 72q56 50 56 107zM1419 628l-10 -18q-95 -14 -233 -18l-25 -1l-10 -21q-64 -137 -127.5 -235.5t-132.5 -170.5q-66 -69 -151 -123q-80 -50 -176 -80q-93 -29 -178 -29q-146 0 -215 82q58 -32 108 -47q45 -13 105 -13q135 0 271 65
q137 65 237 179q54 63 89 114q35 49 79 129q47 83 80 154l9 20h33q131 0 247 13zM1071 0l-16 20q90 92 141 159q55 75 106 166q96 172 155 326l-29 -3q-101 -11 -201 -13l-87 -2l-26 -1l-8 -18q-64 -143 -125 -239q-60 -96 -134 -176q-211 -226 -481 -226q-95 0 -172 42
q-78 42 -122 116q-45 74 -45 163q0 94 53 185q51 88 142 145q74 47 179 68q108 20 257 20q-16 0 130 -2l185 -3l39 -1l19 31q89 146 174 255q83 106 185 202q95 89 210 138q117 50 224 50q69 0 109 -22q41 -23 41 -60q0 -17 -6 -22q-7 -5 -30 -7q-34 -2 -76 -44
q-44 -44 -84 -112q-39 -69 -72 -165q-32 -90 -56 -196q116 44 116 102q0 22 -19 34q21 26 46 26t40 -16q14 -17 14 -44q0 -56 -56 -101q-53 -45 -158 -74q-47 -188 -112 -360q-67 -181 -162 -297q-38 50 -92 50q-69 0 -196 -94zM1744 1467l-12 18l235 92q43 18 61 38
q20 23 20 56q0 6 -3 24q16 -31 16 -49q0 -58 -97 -95zM1715 1521l-21 38l238 176q19 16 44 16q21 0 34 -13t13 -38q0 -57 -77 -89z" />
    <glyph glyph-name="Acircumflex" unicode="&#xc2;" horiz-adv-x="1792" 
d="M1236 767h-23q58 117 126 214q68 95 138 162q70 65 145 106q74 41 153 51l-24 -25q-114 -29 -229 -124q-140 -117 -273 -361zM888 606l-15 -21l-24 -1q-354 -23 -502 -96q-77 -38 -124 -98q-47 -59 -47 -118q0 -43 34 -110q-31 32 -42 59q-12 29 -12 60q0 88 87 164
q86 76 231 112q79 19 185 33q99 11 229 16zM1149 727q12 -1 39 -1q123 0 300 19l9 23q97 238 197 383q77 110 191 174q-28 21 -65 21q-65 0 -139 -28q-73 -27 -147 -79q-71 -49 -134 -118q-49 -54 -115 -156q-39 -61 -74.5 -124.5t-61.5 -113.5zM965 648l-28 -1
q-118 -4 -231 -15q-104 -10 -193 -28q-78 -16 -140 -41q-127 -50 -189 -121q-64 -71 -64 -162q0 -59 27 -106q27 -48 77 -74t113 -26q79 0 154 34q74 33 153 104q78 72 155 177q83 113 166 259zM1107 -61l-13 22l13 10q106 77 154 77q22 0 42 -14q-12 2 -21 2q-27 0 -64 -20
q-34 -18 -111 -77zM2007 1278q0 -25 -5 -33q-6 -8 -26 -8q-49 0 -102 -69q-60 -81 -104 -201l-26 -7q56 146 112 221q57 76 109 76h18q14 0 24 21zM1873 849v19q10 -24 10 -44q0 -110 -200 -172q-19 -78 -51 -182q-32 -103 -69 -191q-72 -180 -169 -294l-12 23
q86 95 160 277q75 187 125 385q95 23 150 72q56 50 56 107zM1419 628l-10 -18q-95 -14 -233 -18l-25 -1l-10 -21q-64 -137 -127.5 -235.5t-132.5 -170.5q-66 -69 -151 -123q-80 -50 -176 -80q-93 -29 -178 -29q-146 0 -215 82q58 -32 108 -47q45 -13 105 -13q135 0 271 65
q137 65 237 179q54 63 89 114q35 49 79 129q47 83 80 154l9 20h33q131 0 247 13zM1071 0l-16 20q90 92 141 159q55 75 106 166q96 172 155 326l-29 -3q-101 -11 -201 -13l-87 -2l-26 -1l-8 -18q-64 -143 -125 -239q-60 -96 -134 -176q-211 -226 -481 -226q-95 0 -172 42
q-78 42 -122 116q-45 74 -45 163q0 94 53 185q51 88 142 145q74 47 179 68q108 20 257 20q-16 0 130 -2l185 -3l39 -1l19 31q89 146 174 255q83 106 185 202q95 89 210 138q117 50 224 50q69 0 109 -22q41 -23 41 -60q0 -17 -6 -22q-7 -5 -30 -7q-34 -2 -76 -44
q-44 -44 -84 -112q-39 -69 -72 -165q-32 -90 -56 -196q116 44 116 102q0 22 -19 34q21 26 46 26t40 -16q14 -17 14 -44q0 -56 -56 -101q-53 -45 -158 -74q-47 -188 -112 -360q-67 -181 -162 -297q-38 50 -92 50q-69 0 -196 -94zM2065 1553l12 -19q-31 -32 -61 -53
q-31 -20 -43 -20q-14 0 -36 22q16 -10 24 -10q29 0 104 80zM1805 1588q-73 -40 -169 -115l-13 -10l-14 19l17 12q65 47 112 78l33 21q11 8 19 8q9 0 15 -13zM2030 1605l14 -19q-24 -26 -51 -49q-35 -31 -51 -31q-12 0 -21 9q-8 6 -55 59q-60 70 -74 70t-55 -26l-60 -40
l-71 -48l-21 -15l-17 45l11 10q215 186 266 186q17 0 30 -10q14 -10 39 -45l33 -44q27 -35 41 -49q10 -10 20 -10q8 0 22 7z" />
    <glyph glyph-name="Atilde" unicode="&#xc3;" horiz-adv-x="1792" 
d="M1236 767h-23q58 117 126 214q68 95 138 162q70 65 145 106q74 41 153 51l-24 -25q-114 -29 -229 -124q-140 -117 -273 -361zM888 606l-15 -21l-24 -1q-354 -23 -502 -96q-77 -38 -124 -98q-47 -59 -47 -118q0 -43 34 -110q-31 32 -42 59q-12 29 -12 60q0 88 87 164
q86 76 231 112q79 19 185 33q99 11 229 16zM1149 727q12 -1 39 -1q123 0 300 19l9 23q97 238 197 383q77 110 191 174q-28 21 -65 21q-65 0 -139 -28q-73 -27 -147 -79q-71 -49 -134 -118q-49 -54 -115 -156q-39 -61 -74.5 -124.5t-61.5 -113.5zM965 648l-28 -1
q-118 -4 -231 -15q-104 -10 -193 -28q-78 -16 -140 -41q-127 -50 -189 -121q-64 -71 -64 -162q0 -59 27 -106q27 -48 77 -74t113 -26q79 0 154 34q74 33 153 104q78 72 155 177q83 113 166 259zM1107 -61l-13 22l13 10q106 77 154 77q22 0 42 -14q-12 2 -21 2q-27 0 -64 -20
q-34 -18 -111 -77zM2007 1278q0 -25 -5 -33q-6 -8 -26 -8q-49 0 -102 -69q-60 -81 -104 -201l-26 -7q56 146 112 221q57 76 109 76h18q14 0 24 21zM1873 849v19q10 -24 10 -44q0 -110 -200 -172q-19 -78 -51 -182q-32 -103 -69 -191q-72 -180 -169 -294l-12 23
q86 95 160 277q75 187 125 385q95 23 150 72q56 50 56 107zM1419 628l-10 -18q-95 -14 -233 -18l-25 -1l-10 -21q-64 -137 -127.5 -235.5t-132.5 -170.5q-66 -69 -151 -123q-80 -50 -176 -80q-93 -29 -178 -29q-146 0 -215 82q58 -32 108 -47q45 -13 105 -13q135 0 271 65
q137 65 237 179q54 63 89 114q35 49 79 129q47 83 80 154l9 20h33q131 0 247 13zM1071 0l-16 20q90 92 141 159q55 75 106 166q96 172 155 326l-29 -3q-101 -11 -201 -13l-87 -2l-26 -1l-8 -18q-64 -143 -125 -239q-60 -96 -134 -176q-211 -226 -481 -226q-95 0 -172 42
q-78 42 -122 116q-45 74 -45 163q0 94 53 185q51 88 142 145q74 47 179 68q108 20 257 20q-16 0 130 -2l185 -3l39 -1l19 31q89 146 174 255q83 106 185 202q95 89 210 138q117 50 224 50q69 0 109 -22q41 -23 41 -60q0 -17 -6 -22q-7 -5 -30 -7q-34 -2 -76 -44
q-44 -44 -84 -112q-39 -69 -72 -165q-32 -90 -56 -196q116 44 116 102q0 22 -19 34q21 26 46 26t40 -16q14 -17 14 -44q0 -56 -56 -101q-53 -45 -158 -74q-47 -188 -112 -360q-67 -181 -162 -297q-38 50 -92 50q-69 0 -196 -94zM2117 1675l12 -21q-106 -205 -251 -205
q-86 0 -178 84l-41 37q-13 12 -23 12q-15 0 -34 -34q-20 -35 -56 -118l-20 11l-8 23l14 -10q44 90 67 125q20 29 41 29q16 0 31 -15l42 -40q89 -83 164 -83q138 0 240 205zM2069 1745l29 -35q-39 -90 -99 -144q-61 -55 -118 -55q-33 0 -71 23q-37 23 -102 84q-35 35 -61 35
q-32 0 -58 -30q-29 -34 -77 -127l-31 32q49 108 111 170q61 61 117 61q46 0 105 -53q56 -52 76 -64q17 -13 53 -13q69 3 126 116z" />
    <glyph glyph-name="Adieresis" unicode="&#xc4;" horiz-adv-x="1792" 
d="M1236 767h-23q58 117 126 214q68 95 138 162q70 65 145 106q74 41 153 51l-24 -25q-114 -29 -229 -124q-140 -117 -273 -361zM888 606l-15 -21l-24 -1q-354 -23 -502 -96q-77 -38 -124 -98q-47 -59 -47 -118q0 -43 34 -110q-31 32 -42 59q-12 29 -12 60q0 88 87 164
q86 76 231 112q79 19 185 33q99 11 229 16zM1149 727q12 -1 39 -1q123 0 300 19l9 23q97 238 197 383q77 110 191 174q-28 21 -65 21q-65 0 -139 -28q-73 -27 -147 -79q-71 -49 -134 -118q-49 -54 -115 -156q-39 -61 -74.5 -124.5t-61.5 -113.5zM965 648l-28 -1
q-118 -4 -231 -15q-104 -10 -193 -28q-78 -16 -140 -41q-127 -50 -189 -121q-64 -71 -64 -162q0 -59 27 -106q27 -48 77 -74t113 -26q79 0 154 34q74 33 153 104q78 72 155 177q83 113 166 259zM1107 -61l-13 22l13 10q106 77 154 77q22 0 42 -14q-12 2 -21 2q-27 0 -64 -20
q-34 -18 -111 -77zM2007 1278q0 -25 -5 -33q-6 -8 -26 -8q-49 0 -102 -69q-60 -81 -104 -201l-26 -7q56 146 112 221q57 76 109 76h18q14 0 24 21zM1873 849v19q10 -24 10 -44q0 -110 -200 -172q-19 -78 -51 -182q-32 -103 -69 -191q-72 -180 -169 -294l-12 23
q86 95 160 277q75 187 125 385q95 23 150 72q56 50 56 107zM1419 628l-10 -18q-95 -14 -233 -18l-25 -1l-10 -21q-64 -137 -127.5 -235.5t-132.5 -170.5q-66 -69 -151 -123q-80 -50 -176 -80q-93 -29 -178 -29q-146 0 -215 82q58 -32 108 -47q45 -13 105 -13q135 0 271 65
q137 65 237 179q54 63 89 114q35 49 79 129q47 83 80 154l9 20h33q131 0 247 13zM1071 0l-16 20q90 92 141 159q55 75 106 166q96 172 155 326l-29 -3q-101 -11 -201 -13l-87 -2l-26 -1l-8 -18q-64 -143 -125 -239q-60 -96 -134 -176q-211 -226 -481 -226q-95 0 -172 42
q-78 42 -122 116q-45 74 -45 163q0 94 53 185q51 88 142 145q74 47 179 68q108 20 257 20q-16 0 130 -2l185 -3l39 -1l19 31q89 146 174 255q83 106 185 202q95 89 210 138q117 50 224 50q69 0 109 -22q41 -23 41 -60q0 -17 -6 -22q-7 -5 -30 -7q-34 -2 -76 -44
q-44 -44 -84 -112q-39 -69 -72 -165q-32 -90 -56 -196q116 44 116 102q0 22 -19 34q21 26 46 26t40 -16q14 -17 14 -44q0 -56 -56 -101q-53 -45 -158 -74q-47 -188 -112 -360q-67 -181 -162 -297q-38 50 -92 50q-69 0 -196 -94zM2024 1690q21 -33 21 -66q0 -58 -36 -102
t-83 -44q-31 0 -57 29q22 -13 41 -13q46 0 84 47q36 47 36 105q0 19 -6 44zM1818 1616q0 56 39 102q37 46 81 46q29 0 48 -24q19 -23 19 -59q0 -60 -34 -104q-34 -46 -80 -46q-33 0 -53 23t-20 62zM1738 1690q21 -31 21 -66q0 -57 -35 -101q-36 -45 -83 -45q-32 0 -58 29
q25 -13 41 -13q47 0 85 47q36 47 36 105q0 17 -7 44zM1533 1616q0 55 38 102q37 46 81 46q29 0 48 -24q19 -23 19 -59q0 -60 -34 -104q-34 -46 -79 -46q-33 0 -53 23t-20 62z" />
    <glyph glyph-name="Aring" unicode="&#xc5;" horiz-adv-x="1792" 
d="M1236 767h-23q58 117 126 214q68 95 138 162q70 65 145 106q74 41 153 51l-24 -25q-114 -29 -229 -124q-140 -117 -273 -361zM888 606l-15 -21l-24 -1q-354 -23 -502 -96q-77 -38 -124 -98q-47 -59 -47 -118q0 -43 34 -110q-31 32 -42 59q-12 29 -12 60q0 88 87 164
q86 76 231 112q79 19 185 33q99 11 229 16zM1149 727q12 -1 39 -1q123 0 300 19l9 23q97 238 197 383q77 110 191 174q-28 21 -65 21q-65 0 -139 -28q-73 -27 -147 -79q-71 -49 -134 -118q-49 -54 -115 -156q-39 -61 -74.5 -124.5t-61.5 -113.5zM965 648l-28 -1
q-118 -4 -231 -15q-104 -10 -193 -28q-78 -16 -140 -41q-127 -50 -189 -121q-64 -71 -64 -162q0 -59 27 -106q27 -48 77 -74t113 -26q79 0 154 34q74 33 153 104q78 72 155 177q83 113 166 259zM1107 -61l-13 22l13 10q106 77 154 77q22 0 42 -14q-12 2 -21 2q-27 0 -64 -20
q-34 -18 -111 -77zM2007 1278q0 -25 -5 -33q-6 -8 -26 -8q-49 0 -102 -69q-60 -81 -104 -201l-26 -7q56 146 112 221q57 76 109 76h18q14 0 24 21zM1873 849v19q10 -24 10 -44q0 -110 -200 -172q-19 -78 -51 -182q-32 -103 -69 -191q-72 -180 -169 -294l-12 23
q86 95 160 277q75 187 125 385q95 23 150 72q56 50 56 107zM1419 628l-10 -18q-95 -14 -233 -18l-25 -1l-10 -21q-64 -137 -127.5 -235.5t-132.5 -170.5q-66 -69 -151 -123q-80 -50 -176 -80q-93 -29 -178 -29q-146 0 -215 82q58 -32 108 -47q45 -13 105 -13q135 0 271 65
q137 65 237 179q54 63 89 114q35 49 79 129q47 83 80 154l9 20h33q131 0 247 13zM1071 0l-16 20q90 92 141 159q55 75 106 166q96 172 155 326l-29 -3q-101 -11 -201 -13l-87 -2l-26 -1l-8 -18q-64 -143 -125 -239q-60 -96 -134 -176q-211 -226 -481 -226q-95 0 -172 42
q-78 42 -122 116q-45 74 -45 163q0 94 53 185q51 88 142 145q74 47 179 68q108 20 257 20q-16 0 130 -2l185 -3l39 -1l19 31q89 146 174 255q83 106 185 202q95 89 210 138q117 50 224 50q69 0 109 -22q41 -23 41 -60q0 -17 -6 -22q-7 -5 -30 -7q-34 -2 -76 -44
q-44 -44 -84 -112q-39 -69 -72 -165q-32 -90 -56 -196q116 44 116 102q0 22 -19 34q21 26 46 26t40 -16q14 -17 14 -44q0 -56 -56 -101q-53 -45 -158 -74q-47 -188 -112 -360q-67 -181 -162 -297q-38 50 -92 50q-69 0 -196 -94zM1885 1710q-32 -6 -53 -42q-22 -37 -22 -85
v-16q-19 19 -19 47q0 24 12 49q11 26 29 43q17 16 33 16q13 0 20 -12zM1751 1611q0 -37 19 -57q19 -22 50 -22q45 0 80 47q34 46 34 103q0 33 -17 56q-18 21 -45 21q-46 0 -83 -46q-38 -47 -38 -102zM1760 1465q35 -23 70 -23q51 0 94 30q45 31 70 80q26 50 26 103
q0 17 -5 52q20 -42 20 -79q0 -52 -26 -99q-25 -45 -70 -75q-43 -28 -94 -28q-28 0 -46 8q-16 7 -39 31zM1698 1603q0 50 26 100q26 51 68 82q41 31 84 31q52 0 83 -37q32 -38 32 -95q0 -55 -24 -102q-26 -48 -65 -76q-40 -28 -90 -28t-82 35t-32 90z" />
    <glyph glyph-name="AE" unicode="&#xc6;" horiz-adv-x="2355" 
d="M204 159q-52 51 -52 116q0 111 139 199q80 49 236 91q157 42 348 70l-11 -26q-274 -40 -462 -107q-104 -36 -167 -101q-64 -64 -64 -136q0 -41 33 -106zM1249 833l-25 1q65 109 113 171q52 67 110 119q136 121 276 139l-23 -24q-110 -25 -223 -120q-64 -55 -114 -117
q-47 -58 -114 -169zM1829 1288q-26 20 -63 20q-84 0 -183 -48q-101 -50 -184 -130q-57 -54 -114.5 -136.5t-121.5 -199.5q142 -5 299 -27l13 31q59 139 112 230q54 96 113 158t129 102zM953 655l17 30q-331 -40 -546 -111q-307 -103 -307 -300q0 -88 59 -144t151 -56
q77 0 152 32q73 32 145 98q72 67 157 184q81 112 172 267zM1683 791l-22 4q29 99 62 184q31 79 58 130q59 104 120 104q30 0 97 -42q112 -67 197 -67q53 0 99 28q49 30 76 74q28 46 28 95v10q-1 3 -1 10q12 -28 12 -50q0 -71 -66 -130q-66 -60 -145 -60q-49 0 -100 18
q-53 19 -120 58q-50 31 -77 31q-31 0 -63 -35q-30 -34 -65 -112q-42 -96 -90 -250zM1984 55q10 -16 10 -30q0 -27 -21 -46q-22 -19 -51 -19q-36 0 -75 40q35 -21 62 -21q74 0 75 76zM1075 -57l-13 21q59 44 100 67q35 18 62 18q21 0 41 -14q-12 2 -20 2q-49 0 -170 -94z
M2076 168q-19 10 -34 10q-25 0 -45 -11t-28 -28q-5 -11 -9 -11q-11 0 -11 14q0 21 21 37q19 16 45 16q33 0 61 -27zM2264 118q26 -52 26 -98q0 -81 -37 -151q-37 -71 -102 -127q-64 -56 -150 -87q-87 -32 -175 -32q-75 0 -133 20q-56 19 -110 67q119 -69 238 -69
q121 0 225 55q106 56 167 147q62 92 62 197q0 31 -11 78zM157 16q56 -32 104 -46q42 -13 100 -13q101 0 195 33q90 30 182 97q50 38 85.5 72.5t71.5 80.5q54 68 117 176q62 107 117 228q137 -4 246 -16l-9 -21q-126 12 -226 12q-59 -129 -120 -234t-122 -176
q-104 -125 -245 -198q-143 -74 -288 -74q-42 0 -84 8q-38 7 -69 25q-29 17 -55 46zM1444 116l-20 7q62 122 103 232q40 105 75 247q93 -12 153 -12q118 0 180 35q61 34 73 107q-1 -61 -27 -96q-25 -35 -81 -52q-57 -17 -144 -17q-63 0 -141 8q-64 -253 -171 -459zM1352 87
q95 -38 216 -140q124 -102 186 -127q69 -27 138 -27q75 0 138 36q62 34 99 96q36 61 36 137q0 48 -19 86q-20 40 -52 63q-35 23 -73 23q-47 0 -82 -32t-35 -74q0 -21 12 -35q11 -14 28 -14q9 0 19 7q3 -12 3 -20q0 -25 -20 -42t-48 -17q-42 0 -72 37q-31 35 -31 84
q0 53 29 100t77 75q48 27 106 27q97 0 164 -78q67 -79 67 -194q0 -76 -33 -146q-35 -72 -91 -122q-59 -52 -138 -80q-79 -30 -168 -30q-74 0 -133 24q-58 23 -130 83q-49 43 -101 101q-50 56 -107 132q-27 39 -52 57q-23 16 -55 16q-66 0 -190 -91l-15 20l21 22
q83 87 133 156q52 72 112 187q71 137 132 284q-176 17 -310 18l-19 -38q-79 -165 -142 -267q-62 -98 -129 -169q-101 -107 -220 -163q-121 -56 -247 -56q-90 0 -166 41q-74 39 -119 112q-44 71 -44 157q0 148 90 242q90 95 237 144q150 50 316 71q168 21 367 30
q74 117 153 215q78 95 160 171q32 29 66.5 54.5t70 46t74.5 37.5q114 47 232 47q60 0 111 -10q58 -12 120 -35l84 -31q78 -28 126 -28q28 0 47 12q18 12 18 32q0 8 -1 11q-48 12 -48 40q0 16 12 25t32 9q29 0 46 -20t17 -53q0 -66 -51 -119q-53 -53 -117 -53q-67 0 -149 47
l-78 45q-31 18 -65 18q-54 0 -106 -58q-51 -57 -101 -173q-47 -109 -92 -279q154 -35 214 -35q39 0 72 13q34 13 34 25q0 10 -20 22q-18 12 -18 26q0 15 16 27q16 11 34 11q25 0 43 -18t18 -44q0 -38 -30 -71q-31 -33 -82 -52q-50 -19 -112 -19q-71 0 -190 21
q-26 -94 -53 -183q-27 -82 -49 -137q-55 -142 -123 -243z" />
    <glyph glyph-name="Ccedilla" unicode="&#xc7;" horiz-adv-x="1510" 
d="M702 19l-13 -19q-74 23 -137 82q83 -49 150 -63zM1394 1277q-13 1 -47 1q-84 0 -165 -28q-87 -30 -160 -83q-80 -58 -145 -133q-68 -79 -127 -181l-30 -2q32 66 80 129t110 124q195 189 395 189q42 0 89 -16zM650 797l36 5l188 24q204 28 313 54q106 25 182 65
q72 38 113 94q40 55 40 120q0 80 -58 126q-59 47 -154 47t-190 -39q-96 -41 -186 -112q-92 -74 -163 -170q-73 -97 -121 -214zM321 222q9 -28 9 -45q0 -46 -39 -81q-41 -35 -92 -35q-50 0 -93 38q44 -18 75 -18q63 0 102 40q38 40 38 101zM323 579l-2 -26q-64 -36 -108 -102
q-44 -68 -44 -131q0 -20 4 -45q-24 33 -24 65q0 43 23 91q23 47 62 85q39 39 89 63zM1635 1173q18 -43 18 -79q0 -52 -21 -105q-22 -55 -61 -104q-39 -51 -91 -92q-82 -64 -184 -97q-102 -34 -252 -43l-170 -7l-182 -8l-30 -1q-36 -124 -36 -217q0 -110 76 -189
q-51 27 -75 73q-25 44 -25 115q0 102 44 242l30 1q136 8 265 12q152 6 224 16q79 11 147 37q102 41 174 102q72 62 112 140q39 78 39 164q0 -6 -2 40zM862 14v0q127 14 265 103q140 90 249 249l16 -21q-60 -83 -116 -139q-52 -52 -124 -101q-75 -51 -157 -80
q-80 -29 -122 -33q-23 -23 -40 -52h-25q20 38 54 74zM719 -220q22 -7 35 -7l10 1q9 0 9 -8q0 -13 -18 -13t-36 27zM932 -164q10 -27 10 -51q0 -47 -32 -94q-34 -48 -85 -77q-52 -30 -105 -30q-44 0 -82 38q47 -18 76 -18q60 0 118 40q60 41 83 95q17 42 17 97zM782 55
q-120 3 -214 61q-49 32 -84.5 70.5t-63.5 90.5q-53 103 -53 230q0 54 14 144q-53 -19 -94 -42q-39 -22 -80 -61q-43 -43 -72 -104t-29 -114q0 -40 23 -69q23 -30 56 -30q48 0 48 53q3 1 12 1q21 0 33 -14q12 -13 12 -39q0 -46 -34 -79t-84 -33q-44 0 -80 24q-37 24 -57 65
q-21 41 -21 93q0 85 44 175q43 88 116 147q91 76 236 120q27 76 64 142q37 69 88 132q52 64 121 130q88 84 189 143q103 60 209 91t212 31q89 0 161 -33q71 -35 110 -93q38 -59 38 -133q0 -102 -61 -194q-29 -45 -71 -84t-96 -70q-82 -46 -170 -64q-51 -11 -106.5 -16
t-153.5 -10q-70 -3 -301 -17l-31 -2q-49 -153 -49 -269q0 -131 75 -206q73 -76 204 -76q256 0 468 314l39 -59q-59 -81 -116 -141q-62 -65 -122 -107q-63 -43 -126 -65q-62 -23 -134 -31q-41 -41 -73 -85t-32 -58q0 -20 16 -20q9 0 27 5q29 9 56 9q63 0 63 -63
q0 -53 -31 -100q-31 -48 -84 -78q-52 -30 -107 -30q-39 0 -68 24q-30 22 -30 54q0 21 13 34t34 13q16 0 30 -11q12 -12 12 -26q0 -15 -17 -29q17 -6 33 -6q48 0 91 31t43 67q0 27 -30 27q1 0 -37 -5q-16 -3 -34 -3q-51 0 -51 58q0 69 107 190z" />
    <glyph glyph-name="Egrave" unicode="&#xc8;" horiz-adv-x="1425" 
d="M1362 1233q-43 6 -76 6q-84 0 -164 -31q-82 -31 -148 -84q-66 -51 -115 -125q-48 -74 -66 -154l-20 -1q16 77 51 139t91 118q76 76 165 116q87 40 176 40q46 0 106 -24zM732 802l25 2q181 19 297 41.5t201 52.5q211 78 211 230q0 76 -57 124q-59 47 -147 47
q-93 0 -195 -45q-104 -47 -176 -118q-142 -136 -159 -334zM1032 267q-72 -1 -118 -44q-46 -42 -52 -115q-7 -6 -11 -6q-8 0 -8 17q0 59 48 111q47 51 101 51q18 0 40 -14zM948 35q13 -22 13 -42q0 -39 -33 -69q-32 -31 -77 -31q-53 0 -88 51q29 -19 43 -24q15 -6 32 -6
q44 0 78 31q33 30 33 70q0 15 -1 20zM738 543l-40 -9q-9 5 -24 15q-16 11 -26 24q-15 19 -16 21q43 -42 106 -51zM319 231q3 -19 3 -32q0 -45 -36 -80q-35 -34 -85 -34q-52 0 -90 45q48 -20 78 -20q109 0 130 121zM576 647l15 -18q-126 -11 -217 -50q-96 -40 -147 -102
q-51 -61 -51 -138q0 -11 3 -35q-22 26 -22 57q0 61 46 122q47 62 119 99q101 54 254 65zM1272 244q18 -45 18 -81q0 -73 -39 -159q-42 -89 -107 -158q-82 -87 -182 -133q-99 -46 -205 -46q-180 0 -256 106q113 -84 251 -84q128 0 252 74q59 36 109 83.5t88 107.5
q74 119 74 246q0 23 -3 44zM1572 1140q17 -40 17 -69q0 -53 -32 -123q-30 -66 -82 -121q-51 -54 -127 -93t-179 -63l-27 14q126 34 205 77q75 41 137 112q41 47 67 109q25 60 25 113q0 19 -4 44zM1199 580q7 -24 7 -35q0 -49 -85 -68l-101 -24q-220 -51 -323 -145
q-105 -94 -105 -242q0 -49 18 -117q-41 59 -41 138q0 69 35 141q35 69 87 111q61 49 152 84q94 37 231 67q83 20 104 35t21 55zM548 775q-1 9 -1 37q0 105 54 200.5t160 177.5q105 83 234 133q126 49 242 49q69 0 127 -18q57 -18 95 -50t59 -78t21 -105q0 -74 -34 -142
q-34 -70 -95 -125q-63 -57 -145 -91q-53 -22 -103 -31q-55 -12 -142 -18t-221 -9l-38 -1q53 -81 182 -81q44 0 71 9l55 17q21 6 41 6q25 0 41 -15t16 -41q0 -28 -20 -43q-20 -14 -72 -25q-131 -25 -260 -77q-137 -53 -212 -149t-75 -220q0 -60 19 -108q18 -49 53 -89
q35 -39 84 -60q47 -22 100 -22q128 0 220 104q48 54 80 128q30 74 30 135q0 43 -15 77q-16 34 -44 53t-63 19q-44 0 -90 -29q-43 -27 -73 -76q-29 -47 -29 -93q0 -29 14 -49q13 -19 35 -19q16 0 26 10t10 25v6h8q16 0 26 -13q11 -14 11 -33q0 -40 -32 -69q-31 -30 -74 -30
q-48 0 -83 42q-36 42 -36 97q0 77 50 154t128 124q79 47 160 47q90 0 142 -55q53 -56 53 -148q0 -90 -40 -177q-40 -88 -111 -157q-68 -68 -160 -110q-89 -40 -183 -40q-104 0 -193 50q-90 50 -140 134q-52 83 -52 183q0 91 47 179q47 86 126 140q95 65 300 114q11 4 34 9
q11 3 22.5 5.5t23.5 5.5q9 2 23 5.5t19.5 5t11.5 3.5l47 14q26 8 26 16q0 5 -7 5q5 0 -17 -2q-106 -24 -180 -24q-183 0 -257 119q-183 -12 -307 -91q-67 -42 -111 -110q-45 -69 -45 -134q0 -47 22 -76q23 -30 56 -30q18 0 31 13q12 12 12 29v11q56 0 56 -48q0 -42 -36 -74
q-36 -33 -81 -33q-63 0 -105 50q-43 49 -43 131q0 108 66 201q65 92 184 157q117 64 271 88zM1324 1470l28 49l15 -23l-31 -54l-219 89q-44 19 -73 63q18 -18 44 -29zM1091 1735l238 -176l-22 -38l-230 90q-77 32 -77 89q0 25 13 38t34 13q25 0 44 -16z" />
    <glyph glyph-name="Eacute" unicode="&#xc9;" horiz-adv-x="1425" 
d="M1362 1233q-43 6 -76 6q-84 0 -164 -31q-82 -31 -148 -84q-66 -51 -115 -125q-48 -74 -66 -154l-20 -1q16 77 51 139t91 118q76 76 165 116q87 40 176 40q46 0 106 -24zM732 802l25 2q181 19 297 41.5t201 52.5q211 78 211 230q0 76 -57 124q-59 47 -147 47
q-93 0 -195 -45q-104 -47 -176 -118q-142 -136 -159 -334zM1032 267q-72 -1 -118 -44q-46 -42 -52 -115q-7 -6 -11 -6q-8 0 -8 17q0 59 48 111q47 51 101 51q18 0 40 -14zM948 35q13 -22 13 -42q0 -39 -33 -69q-32 -31 -77 -31q-53 0 -88 51q29 -19 43 -24q15 -6 32 -6
q44 0 78 31q33 30 33 70q0 15 -1 20zM738 543l-40 -9q-9 5 -24 15q-16 11 -26 24q-15 19 -16 21q43 -42 106 -51zM319 231q3 -19 3 -32q0 -45 -36 -80q-35 -34 -85 -34q-52 0 -90 45q48 -20 78 -20q109 0 130 121zM576 647l15 -18q-126 -11 -217 -50q-96 -40 -147 -102
q-51 -61 -51 -138q0 -11 3 -35q-22 26 -22 57q0 61 46 122q47 62 119 99q101 54 254 65zM1272 244q18 -45 18 -81q0 -73 -39 -159q-42 -89 -107 -158q-82 -87 -182 -133q-99 -46 -205 -46q-180 0 -256 106q113 -84 251 -84q128 0 252 74q59 36 109 83.5t88 107.5
q74 119 74 246q0 23 -3 44zM1572 1140q17 -40 17 -69q0 -53 -32 -123q-30 -66 -82 -121q-51 -54 -127 -93t-179 -63l-27 14q126 34 205 77q75 41 137 112q41 47 67 109q25 60 25 113q0 19 -4 44zM1199 580q7 -24 7 -35q0 -49 -85 -68l-101 -24q-220 -51 -323 -145
q-105 -94 -105 -242q0 -49 18 -117q-41 59 -41 138q0 69 35 141q35 69 87 111q61 49 152 84q94 37 231 67q83 20 104 35t21 55zM548 775q-1 9 -1 37q0 105 54 200.5t160 177.5q105 83 234 133q126 49 242 49q69 0 127 -18q57 -18 95 -50t59 -78t21 -105q0 -74 -34 -142
q-34 -70 -95 -125q-63 -57 -145 -91q-53 -22 -103 -31q-55 -12 -142 -18t-221 -9l-38 -1q53 -81 182 -81q44 0 71 9l55 17q21 6 41 6q25 0 41 -15t16 -41q0 -28 -20 -43q-20 -14 -72 -25q-131 -25 -260 -77q-137 -53 -212 -149t-75 -220q0 -60 19 -108q18 -49 53 -89
q35 -39 84 -60q47 -22 100 -22q128 0 220 104q48 54 80 128q30 74 30 135q0 43 -15 77q-16 34 -44 53t-63 19q-44 0 -90 -29q-43 -27 -73 -76q-29 -47 -29 -93q0 -29 14 -49q13 -19 35 -19q16 0 26 10t10 25v6h8q16 0 26 -13q11 -14 11 -33q0 -40 -32 -69q-31 -30 -74 -30
q-48 0 -83 42q-36 42 -36 97q0 77 50 154t128 124q79 47 160 47q90 0 142 -55q53 -56 53 -148q0 -90 -40 -177q-40 -88 -111 -157q-68 -68 -160 -110q-89 -40 -183 -40q-104 0 -193 50q-90 50 -140 134q-52 83 -52 183q0 91 47 179q47 86 126 140q95 65 300 114q11 4 34 9
q11 3 22.5 5.5t23.5 5.5q9 2 23 5.5t19.5 5t11.5 3.5l47 14q26 8 26 16q0 5 -7 5q5 0 -17 -2q-106 -24 -180 -24q-183 0 -257 119q-183 -12 -307 -91q-67 -42 -111 -110q-45 -69 -45 -134q0 -47 22 -76q23 -30 56 -30q18 0 31 13q12 12 12 29v11q56 0 56 -48q0 -42 -36 -74
q-36 -33 -81 -33q-63 0 -105 50q-43 49 -43 131q0 108 66 201q65 92 184 157q117 64 271 88zM1243 1467l-12 18l235 92q43 18 61 38q20 23 20 56q0 6 -3 24q16 -31 16 -49q0 -58 -97 -95zM1214 1521l-21 38l238 176q19 16 44 16q21 0 34 -13t13 -38q0 -57 -77 -89z" />
    <glyph glyph-name="Ecircumflex" unicode="&#xca;" horiz-adv-x="1425" 
d="M1362 1233q-43 6 -76 6q-84 0 -164 -31q-82 -31 -148 -84q-66 -51 -115 -125q-48 -74 -66 -154l-20 -1q16 77 51 139t91 118q76 76 165 116q87 40 176 40q46 0 106 -24zM732 802l25 2q181 19 297 41.5t201 52.5q211 78 211 230q0 76 -57 124q-59 47 -147 47
q-93 0 -195 -45q-104 -47 -176 -118q-142 -136 -159 -334zM1032 267q-72 -1 -118 -44q-46 -42 -52 -115q-7 -6 -11 -6q-8 0 -8 17q0 59 48 111q47 51 101 51q18 0 40 -14zM948 35q13 -22 13 -42q0 -39 -33 -69q-32 -31 -77 -31q-53 0 -88 51q29 -19 43 -24q15 -6 32 -6
q44 0 78 31q33 30 33 70q0 15 -1 20zM738 543l-40 -9q-9 5 -24 15q-16 11 -26 24q-15 19 -16 21q43 -42 106 -51zM319 231q3 -19 3 -32q0 -45 -36 -80q-35 -34 -85 -34q-52 0 -90 45q48 -20 78 -20q109 0 130 121zM576 647l15 -18q-126 -11 -217 -50q-96 -40 -147 -102
q-51 -61 -51 -138q0 -11 3 -35q-22 26 -22 57q0 61 46 122q47 62 119 99q101 54 254 65zM1272 244q18 -45 18 -81q0 -73 -39 -159q-42 -89 -107 -158q-82 -87 -182 -133q-99 -46 -205 -46q-180 0 -256 106q113 -84 251 -84q128 0 252 74q59 36 109 83.5t88 107.5
q74 119 74 246q0 23 -3 44zM1572 1140q17 -40 17 -69q0 -53 -32 -123q-30 -66 -82 -121q-51 -54 -127 -93t-179 -63l-27 14q126 34 205 77q75 41 137 112q41 47 67 109q25 60 25 113q0 19 -4 44zM1199 580q7 -24 7 -35q0 -49 -85 -68l-101 -24q-220 -51 -323 -145
q-105 -94 -105 -242q0 -49 18 -117q-41 59 -41 138q0 69 35 141q35 69 87 111q61 49 152 84q94 37 231 67q83 20 104 35t21 55zM548 775q-1 9 -1 37q0 105 54 200.5t160 177.5q105 83 234 133q126 49 242 49q69 0 127 -18q57 -18 95 -50t59 -78t21 -105q0 -74 -34 -142
q-34 -70 -95 -125q-63 -57 -145 -91q-53 -22 -103 -31q-55 -12 -142 -18t-221 -9l-38 -1q53 -81 182 -81q44 0 71 9l55 17q21 6 41 6q25 0 41 -15t16 -41q0 -28 -20 -43q-20 -14 -72 -25q-131 -25 -260 -77q-137 -53 -212 -149t-75 -220q0 -60 19 -108q18 -49 53 -89
q35 -39 84 -60q47 -22 100 -22q128 0 220 104q48 54 80 128q30 74 30 135q0 43 -15 77q-16 34 -44 53t-63 19q-44 0 -90 -29q-43 -27 -73 -76q-29 -47 -29 -93q0 -29 14 -49q13 -19 35 -19q16 0 26 10t10 25v6h8q16 0 26 -13q11 -14 11 -33q0 -40 -32 -69q-31 -30 -74 -30
q-48 0 -83 42q-36 42 -36 97q0 77 50 154t128 124q79 47 160 47q90 0 142 -55q53 -56 53 -148q0 -90 -40 -177q-40 -88 -111 -157q-68 -68 -160 -110q-89 -40 -183 -40q-104 0 -193 50q-90 50 -140 134q-52 83 -52 183q0 91 47 179q47 86 126 140q95 65 300 114q11 4 34 9
q11 3 22.5 5.5t23.5 5.5q9 2 23 5.5t19.5 5t11.5 3.5l47 14q26 8 26 16q0 5 -7 5q5 0 -17 -2q-106 -24 -180 -24q-183 0 -257 119q-183 -12 -307 -91q-67 -42 -111 -110q-45 -69 -45 -134q0 -47 22 -76q23 -30 56 -30q18 0 31 13q12 12 12 29v11q56 0 56 -48q0 -42 -36 -74
q-36 -33 -81 -33q-63 0 -105 50q-43 49 -43 131q0 108 66 201q65 92 184 157q117 64 271 88zM1504 1553l12 -19q-31 -32 -61 -53q-31 -20 -43 -20q-14 0 -36 22q16 -10 24 -10q29 0 104 80zM1244 1588q-73 -40 -169 -115l-13 -10l-14 19l17 12q65 47 112 78l33 21q11 8 19 8
q9 0 15 -13zM1469 1605l14 -19q-24 -26 -51 -49q-35 -31 -51 -31q-12 0 -21 9q-8 6 -55 59q-60 70 -74 70t-55 -26l-60 -40l-71 -48l-21 -15l-17 45l11 10q215 186 266 186q17 0 30 -10q14 -10 39 -45l33 -44q27 -35 41 -49q10 -10 20 -10q8 0 22 7z" />
    <glyph glyph-name="Edieresis" unicode="&#xcb;" horiz-adv-x="1425" 
d="M1362 1233q-43 6 -76 6q-84 0 -164 -31q-82 -31 -148 -84q-66 -51 -115 -125q-48 -74 -66 -154l-20 -1q16 77 51 139t91 118q76 76 165 116q87 40 176 40q46 0 106 -24zM732 802l25 2q181 19 297 41.5t201 52.5q211 78 211 230q0 76 -57 124q-59 47 -147 47
q-93 0 -195 -45q-104 -47 -176 -118q-142 -136 -159 -334zM1032 267q-72 -1 -118 -44q-46 -42 -52 -115q-7 -6 -11 -6q-8 0 -8 17q0 59 48 111q47 51 101 51q18 0 40 -14zM948 35q13 -22 13 -42q0 -39 -33 -69q-32 -31 -77 -31q-53 0 -88 51q29 -19 43 -24q15 -6 32 -6
q44 0 78 31q33 30 33 70q0 15 -1 20zM738 543l-40 -9q-9 5 -24 15q-16 11 -26 24q-15 19 -16 21q43 -42 106 -51zM319 231q3 -19 3 -32q0 -45 -36 -80q-35 -34 -85 -34q-52 0 -90 45q48 -20 78 -20q109 0 130 121zM576 647l15 -18q-126 -11 -217 -50q-96 -40 -147 -102
q-51 -61 -51 -138q0 -11 3 -35q-22 26 -22 57q0 61 46 122q47 62 119 99q101 54 254 65zM1272 244q18 -45 18 -81q0 -73 -39 -159q-42 -89 -107 -158q-82 -87 -182 -133q-99 -46 -205 -46q-180 0 -256 106q113 -84 251 -84q128 0 252 74q59 36 109 83.5t88 107.5
q74 119 74 246q0 23 -3 44zM1572 1140q17 -40 17 -69q0 -53 -32 -123q-30 -66 -82 -121q-51 -54 -127 -93t-179 -63l-27 14q126 34 205 77q75 41 137 112q41 47 67 109q25 60 25 113q0 19 -4 44zM1199 580q7 -24 7 -35q0 -49 -85 -68l-101 -24q-220 -51 -323 -145
q-105 -94 -105 -242q0 -49 18 -117q-41 59 -41 138q0 69 35 141q35 69 87 111q61 49 152 84q94 37 231 67q83 20 104 35t21 55zM548 775q-1 9 -1 37q0 105 54 200.5t160 177.5q105 83 234 133q126 49 242 49q69 0 127 -18q57 -18 95 -50t59 -78t21 -105q0 -74 -34 -142
q-34 -70 -95 -125q-63 -57 -145 -91q-53 -22 -103 -31q-55 -12 -142 -18t-221 -9l-38 -1q53 -81 182 -81q44 0 71 9l55 17q21 6 41 6q25 0 41 -15t16 -41q0 -28 -20 -43q-20 -14 -72 -25q-131 -25 -260 -77q-137 -53 -212 -149t-75 -220q0 -60 19 -108q18 -49 53 -89
q35 -39 84 -60q47 -22 100 -22q128 0 220 104q48 54 80 128q30 74 30 135q0 43 -15 77q-16 34 -44 53t-63 19q-44 0 -90 -29q-43 -27 -73 -76q-29 -47 -29 -93q0 -29 14 -49q13 -19 35 -19q16 0 26 10t10 25v6h8q16 0 26 -13q11 -14 11 -33q0 -40 -32 -69q-31 -30 -74 -30
q-48 0 -83 42q-36 42 -36 97q0 77 50 154t128 124q79 47 160 47q90 0 142 -55q53 -56 53 -148q0 -90 -40 -177q-40 -88 -111 -157q-68 -68 -160 -110q-89 -40 -183 -40q-104 0 -193 50q-90 50 -140 134q-52 83 -52 183q0 91 47 179q47 86 126 140q95 65 300 114q11 4 34 9
q11 3 22.5 5.5t23.5 5.5q9 2 23 5.5t19.5 5t11.5 3.5l47 14q26 8 26 16q0 5 -7 5q5 0 -17 -2q-106 -24 -180 -24q-183 0 -257 119q-183 -12 -307 -91q-67 -42 -111 -110q-45 -69 -45 -134q0 -47 22 -76q23 -30 56 -30q18 0 31 13q12 12 12 29v11q56 0 56 -48q0 -42 -36 -74
q-36 -33 -81 -33q-63 0 -105 50q-43 49 -43 131q0 108 66 201q65 92 184 157q117 64 271 88zM1510 1690q21 -33 21 -66q0 -58 -36 -102t-83 -44q-31 0 -57 29q22 -13 41 -13q46 0 84 47q36 47 36 105q0 19 -6 44zM1304 1616q0 56 39 102q37 46 81 46q29 0 48 -24
q19 -23 19 -59q0 -60 -34 -104q-34 -46 -80 -46q-33 0 -53 23t-20 62zM1224 1690q21 -31 21 -66q0 -57 -35 -101q-36 -45 -83 -45q-32 0 -58 29q25 -13 41 -13q47 0 85 47q36 47 36 105q0 17 -7 44zM1019 1616q0 55 38 102q37 46 81 46q29 0 48 -24q19 -23 19 -59
q0 -60 -34 -104q-34 -46 -79 -46q-33 0 -53 23t-20 62z" />
    </font>
</defs>
</svg>
